<svg width="137" height="113" viewBox="0 0 137 113" fill="none" xmlns="http://www.w3.org/2000/svg">
<g clip-path="url(#clip0_434_15786)">
<path d="M89.4637 42.5644C88.5 43.7234 89.4637 72.3612 89.4637 72.3612H95.7182C95.7182 72.3612 97.6455 56.0254 98 55.5691L97.2 72.3612H101.445L103.727 43.1393C103.727 43.1393 90.5455 41.2684 89.4728 42.5644H89.4637Z" fill="#010000"/>
<path d="M94.2908 26.0734L100.363 31.8502L100.109 25.2612L100.118 20.2874L95.3726 19.5026L94.2908 26.0734Z" fill="#ECB5BC"/>
<path d="M96.8489 22.1934L94.9744 21.8819L96.4933 12.6712L104.556 14.0112L104.062 17.0094C103.496 20.4397 100.266 22.7613 96.8489 22.1934Z" fill="#ECB5BC"/>
<path d="M100.163 22.5781C99.0633 22.2039 98.3906 21.3369 97.6542 20.4973C97.3088 20.1049 96.6906 20.7346 97.0815 21.0722C97.9997 21.8662 98.8451 22.6785 100.072 22.9066C100.291 22.9522 100.372 22.6511 100.163 22.5781Z" fill="#DC8D8F"/>
<path d="M103.327 17.6043C103.282 17.9055 103.327 18.161 103.427 18.1793C103.527 18.1975 103.654 17.9694 103.7 17.6682C103.745 17.367 103.7 17.1115 103.6 17.0932C103.5 17.075 103.372 17.3031 103.327 17.6043Z" fill="#010000"/>
<path d="M101.009 17.221C100.963 17.5222 101.009 17.7777 101.109 17.796C101.209 17.8142 101.336 17.5861 101.382 17.2849C101.427 16.9837 101.382 16.7282 101.282 16.7099C101.182 16.6917 101.054 16.9198 101.009 17.221Z" fill="#010000"/>
<path d="M102.591 17.3944C102.391 17.8598 102.227 18.3435 102.191 18.8546C102.154 19.3657 102.154 20.0136 102.536 20.3695C102.772 20.5886 103.209 20.5156 103.282 20.1688C103.382 19.7125 103.154 19.3657 103.045 18.9276C102.927 18.4348 102.809 17.9602 102.782 17.4583C102.782 17.367 102.627 17.3031 102.582 17.4035L102.591 17.3944Z" fill="#DC8D8F"/>
<path d="M102.891 20.698C102.891 20.698 101.145 20.4151 100.918 20.3695C100.918 20.6433 101.263 21.2365 101.991 21.3551C102.463 21.4373 102.827 21.1635 102.891 20.698Z" fill="white"/>
<path d="M95.5362 11.9735C95.9635 10.9605 96.7999 9.96573 97.8362 9.73758C99.3999 9.39991 101.4 10.13 102.6 10.9879C103.918 11.9279 106.027 12.7948 107.482 11.6358C107.2 13.5979 105.973 14.6383 104.109 15.0946C102.073 15.5874 100.663 15.341 98.7362 14.6748C98.6635 15.7243 98.918 16.783 99.1453 17.796C98.909 17.8142 98.3817 17.9055 98.1726 17.7686C97.7271 17.4948 97.5817 16.5001 97.4635 16.0529C96.6726 17.148 95.3726 19.5026 95.3726 19.5026C95.3726 19.3565 93.509 15.1676 93.6453 14.1911C94.009 11.6267 95.7726 12.0282 95.5362 11.9735Z" fill="#010000"/>
<path d="M96.4271 16.9198C96.3089 17.6591 96.9271 18.3892 97.418 18.4622C97.9089 18.5443 98.0816 17.9511 98.2089 17.2119C98.3271 16.4727 98.0362 15.7973 97.5452 15.7152C97.0543 15.6331 96.5543 16.1715 96.4362 16.9107L96.4271 16.9198Z" fill="#ECB5BC"/>
<path d="M97.8997 16.792C97.9542 16.4818 97.8451 16.1532 97.5633 15.9889C97.2815 15.8247 96.7724 15.8703 96.6724 16.2262C96.5997 16.4818 96.8724 16.6278 97.0815 16.5365C97.1997 16.4818 97.2361 16.3631 97.3815 16.4087C97.527 16.4544 97.5906 16.6187 97.5997 16.7464C97.6088 16.9016 97.8633 16.9654 97.8906 16.7829L97.8997 16.792Z" fill="#DC8D8F"/>
<path d="M97.4907 16.2354C97.2362 16.4179 97.0725 16.6643 96.9725 16.9563C96.9089 17.148 97.0453 17.4126 97.2544 17.4491C97.3362 17.4674 97.3816 17.4674 97.4634 17.4491C97.6816 17.4035 97.7816 17.1571 97.7453 16.9563C97.718 16.8377 97.7271 16.6643 97.7816 16.5274C97.818 16.4361 97.818 16.3449 97.7453 16.2719C97.6816 16.208 97.5634 16.1806 97.4907 16.2354Z" fill="#DC8D8F"/>
<path d="M87.9817 26.2833C89.2181 24.6041 94.5272 24.6041 94.5272 24.6041C101.2 33.3834 100.109 25.252 100.109 25.252C100.473 26.1555 102.954 27.8073 103.409 28.6104C103.591 28.939 102.791 45.7859 102.564 46.014C102.418 46.16 97.1454 47.6111 90.3181 45.3387C90.1181 43.8146 87.0636 30.1163 87.9817 26.2742V26.2833Z" fill="#145187"/>
<path d="M97.3544 28.9481C97.2635 28.3914 94.0544 24.7957 93.9272 24.3759C92.609 24.1752 87.809 24.7684 87.4453 27.2233C87.0726 29.7056 87.5181 35.7106 87.809 40.2737C88.1635 45.8406 87.8181 49.9109 87.809 50.7961C89.6817 51.508 93.1999 51.4167 96.4908 50.9787C97.7181 38.704 97.3544 31.8138 97.3544 28.939V28.9481Z" fill="#F2D666"/>
<path d="M92.118 42.318C91.3362 43.9881 90.518 45.5121 89.0999 46.735C88.409 47.3282 89.4544 48.4051 90.109 47.748C91.5271 46.3244 91.9999 44.3622 92.4271 42.4549C92.4635 42.2723 92.1999 42.1355 92.118 42.3271V42.318Z" fill="#EDB25A"/>
<path d="M97.2181 38.6036C97.2181 38.7952 97.0636 38.9595 96.8636 38.9595C96.6636 38.9595 96.509 38.8044 96.509 38.6036C96.509 38.4028 96.6636 38.2477 96.8636 38.2477C97.0636 38.2477 97.2181 38.4028 97.2181 38.6036Z" fill="#EDB25A"/>
<path d="M96.9818 43.0572C96.9818 43.2488 96.8273 43.4131 96.6272 43.4131C96.4272 43.4131 96.2727 43.2579 96.2727 43.0572C96.2727 42.8564 96.4272 42.7012 96.6272 42.7012C96.8273 42.7012 96.9818 42.8564 96.9818 43.0572Z" fill="#EDB25A"/>
<path d="M96.6634 47.7663C96.6634 47.9579 96.5089 48.1222 96.3089 48.1222C96.1089 48.1222 95.9543 47.967 95.9543 47.7663C95.9543 47.5655 96.1089 47.4103 96.3089 47.4103C96.5089 47.4103 96.6634 47.5655 96.6634 47.7663Z" fill="#EDB25A"/>
<path d="M96.4545 27.3876C96.1999 35.163 94.6817 43.3675 95.1908 51.1156C95.209 51.3437 95.5726 51.4258 95.609 51.1703C96.8181 43.4496 96.8999 35.163 96.5454 27.3876C96.5454 27.3328 96.4545 27.3328 96.4545 27.3876Z" fill="#EDB25A"/>
<path d="M101.109 25.8817C100.782 26.7396 100.509 27.6248 100.273 28.51C100.273 28.51 101.2 26.9769 101.2 51.3254C102.236 51.006 103.4 51.2889 103.718 50.4128C104.345 48.6788 104.355 31.5856 104.064 28.437C104.027 28.0172 101.891 26.5662 101.109 25.8817Z" fill="#F2D666"/>
<path d="M100.618 26.7852C102.682 34.5333 102.027 43.2397 102 51.1886C102 51.5171 102.509 51.5171 102.509 51.1886C102.482 43.194 103.073 34.4877 100.936 26.694C100.882 26.4841 100.555 26.5753 100.609 26.7852H100.618Z" fill="#EDB25A"/>
<path d="M101.364 38.3024C101.509 38.3024 101.645 38.3024 101.791 38.3024C101.891 38.3024 101.973 38.2111 101.955 38.1107C101.945 38.0195 101.836 37.9282 101.745 37.9647C101.609 38.0195 101.473 38.0742 101.336 38.1381C101.255 38.1746 101.255 38.3024 101.355 38.3024H101.364Z" fill="#EDB25A"/>
<path d="M101.355 42.9932C101.546 42.9932 101.746 42.9841 101.936 42.975C102.118 42.975 102.091 42.6921 101.9 42.7195C101.709 42.7468 101.518 42.7833 101.327 42.8198C101.236 42.8381 101.255 42.9932 101.346 42.9841L101.355 42.9932Z" fill="#EDB25A"/>
<path d="M101.355 47.5564L101.936 47.5381C102.118 47.5381 102.091 47.2552 101.9 47.2826L101.327 47.383C101.236 47.4012 101.255 47.5563 101.346 47.5472L101.355 47.5564Z" fill="#EDB25A"/>
<path d="M103.945 28.4461C104.054 31.038 103.654 33.8306 104.054 36.3859C104.091 36.5958 104.427 36.5867 104.464 36.3859C104.718 35.1812 104.527 33.8397 104.464 32.6077C104.4 31.2205 104.318 29.8333 104.2 28.4461C104.182 28.2819 103.936 28.2819 103.945 28.4461Z" fill="#EDB25A"/>
<path d="M101.091 36.1395C102.082 35.738 103.9 34.8345 104.927 35.163C106.127 35.5463 107.482 36.6232 107.418 36.7966C107.236 37.0156 106.455 36.5046 105.909 36.2764C105.273 36.0117 104.773 35.8748 104.509 35.8566C105.873 36.249 107.091 37.116 107.027 37.2255C106.764 37.691 105.173 36.4589 104.273 36.468C105.2 36.8422 106.636 37.4445 106.655 37.7457C106.418 38.1473 104.5 37.2346 104.046 37.0704C104.609 37.3807 106.291 37.9647 106.164 38.3207C106.027 38.6127 104.627 37.9374 103.991 37.8735C103.727 37.8461 101.255 38.923 100.336 38.4575C98.9819 37.3259 98.6637 36.9882 101.091 36.1213V36.1395Z" fill="#ECB5BC"/>
<path d="M89.2455 38.8226C90.191 40.7847 97.0637 39.5618 100.673 38.5671C100.673 38.5671 99.3546 37.9282 99.7546 36.7053C95.291 37.5358 92.1819 36.8148 92.1819 36.8148C92.0455 36.4315 91.1546 29.4774 91.0455 28.6287C90.9092 27.5609 89.4364 26.3289 88.2546 27.7343C87.4001 28.7564 88.2183 36.6962 89.2455 38.8226Z" fill="#ECB5BC"/>
<path d="M94.8728 36.9883C94.8728 36.9883 93.5819 36.8696 92.4365 36.751C92.2819 35.3821 92.991 26.411 89.0546 26.5479C86.2637 26.6392 88.4546 38.5488 89.0183 39.288C89.9546 40.5201 94.4455 39.9634 94.4455 39.9634C95.3274 39.4249 94.691 38.275 94.8637 36.9883H94.8728Z" fill="#F2D666"/>
<path d="M96.4364 36.8605C96.5182 37.5723 96.3273 39.4067 96.3 39.7991C96.3 39.7991 94.8909 40.228 94.2091 40.3284C93.7455 39.0964 94.1 37.8826 94.5182 36.678C95.0909 36.6688 95.5636 36.6506 96.4364 36.8605Z" fill="#F2D666"/>
<path d="M94.1453 36.8787C93.8726 37.4263 93.6726 38.0013 93.5726 38.6127C93.4999 39.0873 93.3544 39.6896 93.7181 40.0638C93.8362 40.1824 94.0362 40.1459 94.1181 40.009C94.3544 39.6257 94.1817 39.1329 94.1999 38.6948C94.2181 38.1199 94.3453 37.5723 94.5362 37.043C94.6181 36.8149 94.2544 36.6597 94.1453 36.8787Z" fill="#EDB25A"/>
<path d="M87.7 28.8842C87.2545 31.0836 87.0363 33.3013 87.4182 35.5281C87.6818 37.0978 87.9182 39.1055 89.4091 39.9634C89.6182 40.0912 89.9 39.8356 89.7545 39.6166C87.8363 36.7054 87.6182 32.2974 87.8636 28.9025C87.8636 28.8112 87.7182 28.7839 87.7 28.8842Z" fill="#EDB25A"/>
<path d="M91.9455 29.2128C92.1091 30.4265 92.0909 31.6677 92.1 32.8906C92.1091 33.9492 91.9727 35.0626 92.2364 36.0939C92.2727 36.249 92.5364 36.2673 92.5637 36.0939C92.9909 33.9219 92.1364 31.4122 92.0273 29.2128C92.0273 29.1489 91.9273 29.158 91.9364 29.2128H91.9455Z" fill="#EDB25A"/>
<path d="M92.4909 36.5502C91.8545 36.7966 91.2182 37.0795 90.6454 37.4628C90.1818 37.7822 89.7818 38.1199 89.9182 38.7313C89.9545 38.8865 90.1636 38.9412 90.2727 38.8226C90.5909 38.5032 90.8364 38.129 91.1909 37.837C91.6364 37.4628 92.1182 37.1434 92.6182 36.8605C92.7818 36.7692 92.6727 36.4772 92.4909 36.5502Z" fill="#EDB25A"/>
<path d="M91.691 36.8605C90.8819 36.6506 90.0637 36.751 89.3182 37.1252C89.0273 37.2712 89.3001 37.7457 89.5728 37.5724C90.191 37.1708 90.891 37.0065 91.6182 37.1069C91.7728 37.1252 91.8546 36.9061 91.6819 36.8605H91.691Z" fill="#EDB25A"/>
<path d="M87.6454 31.5673C87.8091 32.197 88.1909 32.6898 88.6363 33.1552C89.2 33.7484 89.7727 34.4694 90.4545 34.9348C90.7091 35.1082 90.9363 34.7432 90.7636 34.5333C89.8545 33.4564 88.2727 32.9453 87.7273 31.5582C87.7091 31.5125 87.6273 31.5308 87.6454 31.5764V31.5673Z" fill="#EDB25A"/>
<path d="M94.8999 39.9269C94.8362 40.0181 94.709 40.0364 94.618 39.9725C94.5271 39.9086 94.5089 39.7809 94.5726 39.6896C94.6362 39.5983 94.7635 39.5801 94.8544 39.644C94.9453 39.7078 94.9635 39.8356 94.8999 39.9269Z" fill="#EDB25A"/>
<path d="M95.7727 39.6257C95.709 39.717 95.5818 39.7352 95.4908 39.6714C95.3999 39.6075 95.3818 39.4797 95.4454 39.3884C95.509 39.2972 95.6363 39.2789 95.7272 39.3428C95.8181 39.4067 95.8363 39.5345 95.7727 39.6257Z" fill="#EDB25A"/>
<path d="M94.7273 23.4268C94.7546 23.5637 97.6091 27.1412 98 27.6979C98 27.6979 97.3728 29.1398 96.7455 29.7239C95.1819 29.0303 93.2819 24.96 93.3728 24.3486C94.0819 23.9835 94.5728 23.3629 94.7273 23.4268Z" fill="#F2D666"/>
<path d="M93.5455 24.5493C94.0364 26.0004 94.5455 27.6705 95.3819 28.9664C96.1273 30.1254 96.5728 29.4592 97.3637 28.6196C97.4819 28.5009 97.3092 28.3367 97.1819 28.437C96.991 28.5922 96.791 28.793 96.5728 28.9207C96.2092 29.1398 96.2092 29.1124 95.9364 28.9025C95.5819 28.6196 95.3001 27.8895 95.1001 27.5062C94.591 26.5297 94.1273 25.5258 93.7092 24.5037C93.6728 24.4033 93.5092 24.4398 93.5455 24.5493Z" fill="#EDB25A"/>
<path d="M100.118 24.7592C99.7637 25.7631 99.5092 26.6392 99.2546 27.6613C99.2546 27.6613 99.9274 28.3914 100.509 28.8021C101.036 28.218 101.146 25.4893 101.146 25.4893C101.146 25.4893 100.736 24.8505 100.127 24.7683L100.118 24.7592Z" fill="#F2D666"/>
<path d="M100.955 25.9547C100.991 26.411 100.864 26.8947 100.8 27.351C100.746 27.7161 100.736 28.1359 100.609 28.4736L100.818 28.2637C100.736 28.2819 100.555 28.145 100.482 28.1268C100.355 28.0903 100.309 28.0994 100.164 28.1085C99.9364 28.1359 99.7364 28.4371 99.9546 28.6196C100.264 28.8842 101.055 29.1306 101.2 28.5648C101.291 28.2272 101.164 27.7435 101.127 27.3967C101.082 26.9312 100.982 26.4202 101.046 25.9639C101.046 25.9091 100.946 25.9 100.955 25.9639V25.9547Z" fill="#EDB25A"/>
<path d="M77.5545 47.2643C76.5363 48.4599 77.8817 73.575 77.8817 73.575L84.3636 73.6389C84.3636 73.6389 85.6454 58.0241 85.7272 58.6264C86.2181 62.432 87.5636 73.9675 87.5636 73.9675L93.7363 74.077L90.6727 48.3595C90.6727 48.3595 78.6817 45.941 77.5545 47.2643Z" fill="#145187"/>
<path d="M86.6364 49.1443C86.5546 50.4585 86.7727 50.3125 85.8455 50.4037C85.1546 50.4767 84.3091 50.2303 83.6182 50.1573C81.5 49.9292 79.3727 49.6371 77.3182 49.0439C77 48.9527 76.8636 49.4455 77.1818 49.5367C80.1818 50.3946 83.4273 50.7596 86.5455 50.7962C86.6091 50.7962 86.6818 50.7505 86.7 50.6775C86.8364 50.1482 86.8273 49.701 86.8182 49.1443C86.8182 49.0348 86.6546 49.0348 86.6455 49.1443H86.6364Z" fill="#023D66"/>
<path d="M90.8273 49.628C90.1546 49.8105 89.4819 50.0022 88.8001 50.13C88.0637 50.276 87.3364 50.2395 86.591 50.3034C86.3728 50.3216 86.2819 50.6867 86.5364 50.7232C88.0092 50.9513 89.5364 50.3764 90.9182 49.9474C91.1273 49.8836 91.0364 49.5641 90.8273 49.6189V49.628Z" fill="#023D66"/>
<path d="M86.2728 50.6501C86.0365 51.8365 86.2092 53.2237 86.2092 54.4284C86.2092 55.487 86.491 56.7008 85.5547 57.4582C85.4819 57.5221 85.4637 57.6681 85.5183 57.7412L85.5637 57.7959C85.6728 57.9419 85.8274 57.9967 86.0001 57.9145C86.8183 57.5039 86.9183 56.3814 86.891 55.5965C86.8274 54.0542 87.0092 52.0556 86.3546 50.6319C86.3365 50.5954 86.2819 50.6045 86.2728 50.641V50.6501Z" fill="#023D66"/>
<path d="M85.3638 50.6136C85.4092 52.083 85.4547 53.5614 85.4729 55.0398C85.491 56.3631 85.3092 57.7138 85.5001 59.0188C85.5274 59.1922 85.791 59.174 85.8274 59.0188C86.482 56.3996 86.0274 53.2146 85.491 50.6045C85.4729 50.5315 85.3638 50.5498 85.3638 50.6228V50.6136Z" fill="#023D66"/>
<path d="M81.3001 50.1208C81.1364 51.0426 80.6546 51.8913 80.0455 52.594C79.7455 52.9408 79.4001 53.2602 78.991 53.4793C78.7092 53.6344 78.3728 53.6527 78.1546 53.8991C78.0637 53.9903 78.0728 54.1728 78.2001 54.2367C78.9273 54.6018 79.8728 53.5523 80.2728 53.0412C80.9273 52.2199 81.4092 51.2069 81.5092 50.1482C81.5183 50.0296 81.3182 50.0022 81.3001 50.1208Z" fill="#023D66"/>
<path d="M77.8001 49.482C77.7819 57.4856 78.5547 65.5258 79.0274 73.5203C79.0547 74.0405 79.8638 74.0405 79.8365 73.5203C79.4001 65.5075 79.1183 57.4035 77.9274 49.4729C77.9183 49.3999 77.8001 49.4181 77.8001 49.4911V49.482Z" fill="#023D66"/>
<path d="M86.1 57.3396C87.3363 62.8244 87.6545 68.3731 88.5545 73.8945C88.5909 74.1409 88.9636 74.0679 88.9727 73.8397C89.2181 68.3275 87.7909 62.5415 86.3091 57.2849C86.2727 57.148 86.0727 57.2119 86.1 57.3396Z" fill="#023D66"/>
<path d="M85.3 49.9383C85.3 50.1299 85.4455 50.2851 85.6273 50.2942C85.8182 50.2942 85.9728 50.1482 85.9819 49.9657C85.9819 49.774 85.8364 49.6189 85.6546 49.6098C85.4728 49.6006 85.3091 49.7558 85.3 49.9383Z" fill="#F2D666"/>
<path d="M89.1363 30.7095C89.0999 29.4866 83.7999 28.2181 77.0636 28.3093C76.8545 28.3093 73.5363 30.5817 74.509 35.9844C74.509 35.9844 73.8636 46.0597 74.1727 46.6712C75.1272 48.542 86.8545 48.9162 88.9636 48.0401C89.5363 47.8028 89.1272 30.7095 89.1272 30.7095H89.1363Z" fill="#010000"/>
<path d="M103.636 27.8622C103.818 28.0173 105.364 24.2299 106.027 24.5494C106.391 24.7228 104.791 27.0864 104.891 27.3146C105.136 27.2051 106.764 24.2208 107.046 24.4946C107.373 24.8231 105.455 27.5975 105.564 27.78C105.818 27.8257 107.073 25.033 107.446 25.2977C107.736 25.5806 106.146 28.0082 106.291 28.209C106.5 28.3093 107.418 26.6758 107.7 26.8583C107.918 27.0408 106.373 29.6326 105.364 30.4357C104.136 31.3483 103.127 31.832 102.9 29.66C102.846 29.4227 102.809 29.1946 102.791 28.9847C103.127 28.6379 103.418 28.1907 103.609 27.707C103.609 27.78 103.609 27.8257 103.636 27.8439V27.8622Z" fill="#ECB5BC"/>
<path d="M97.9 36.7966C100.682 35.9844 104.236 32.4526 105.136 30.8373C105.136 30.8373 103.664 30.5452 102.718 29.952C101.318 31.1019 98.5545 32.3066 96.6545 32.7446C94.4091 33.2648 88.4636 31.3118 87.7364 31.467C86.9636 31.6312 87.2 35.5829 87.5818 35.9205C88.4454 36.6871 95.9454 37.3625 97.9091 36.7875L97.9 36.7966Z" fill="#E06666"/>
<path d="M103.918 32.2518C103.627 31.905 103.318 31.5856 102.982 31.2845C102.673 31.0107 102.418 30.7643 102.009 30.7186C101.809 30.6913 101.755 30.9559 101.855 31.0837C102.109 31.3849 102.491 31.4944 102.836 31.6769C103.182 31.8594 103.536 32.0876 103.864 32.3248C103.909 32.3522 103.945 32.2883 103.918 32.261V32.2518Z" fill="#B44452"/>
<path d="M103.518 26.1282C103.627 25.8818 103.945 26.1464 103.809 26.7853C103.718 27.2051 103.836 27.9169 103.627 28.9116C103.445 29.3862 103.127 28.6561 102.8 28.9938C102.645 27.4241 103.318 26.5936 103.527 26.1282H103.518Z" fill="#ECB5BC"/>
<path d="M82.7727 31.4669L89.7909 36.5137L88.2909 30.892L88.4636 26.2012L84.0091 25.2977L82.7727 31.4669Z" fill="#ECB5BC"/>
<path d="M88.291 30.892C88.291 30.892 89.1637 34.7433 88.3092 34.7159C85.6819 34.6246 83.1364 29.6509 83.1364 29.6509C83.1364 29.6509 79.4183 29.9977 78.891 30.9559C78.0819 32.4161 80.1274 37.7001 79.9455 39.8174C79.7546 42.0533 76.391 48.0674 77.2728 48.2682C78.9637 48.6606 87.791 50.3216 90.9546 48.5511C90.9546 48.5511 89.5455 43.8329 89.6183 41.5514C89.691 39.352 91.3455 38.0104 91.3455 37.2803C91.3364 36.2126 90.8364 33.8672 89.9546 32.0419C89.7455 31.6039 88.3001 30.8829 88.3001 30.8829L88.291 30.892Z" fill="#E06666"/>
<path d="M88.3547 41.6335C86.9547 41.6335 85.0002 41.6061 83.7547 42.318C83.5002 42.464 83.6093 42.8838 83.9093 42.8747C84.5729 42.8564 85.2274 42.6009 85.882 42.4822C86.7002 42.3362 87.5274 42.2541 88.3547 42.2267C88.7365 42.2176 88.7365 41.6335 88.3547 41.6244V41.6335Z" fill="#B44452"/>
<path d="M85.4729 18.2614C85.8001 17.5131 85.6092 16.2902 85.4456 15.5327C84.8729 12.9956 82.5365 10.705 79.8638 10.632C77.691 10.5772 76.6001 12.4663 75.3456 13.8991C74.3274 15.0673 72.7456 16.5366 71.0547 16.4453C73.8092 18.1154 75.3547 19.8311 78.6274 17.796C79.682 17.1389 86.0638 14.8391 83.7638 20.0045C83.5001 20.5977 85.191 18.9185 85.4729 18.2523V18.2614Z" fill="#F2D666"/>
<path d="M85.5912 15.7243C84.8457 15.7608 83.5457 16.8012 83.5366 17.0111L83.9094 17.294C84.1548 17.3579 85.573 16.4727 85.9275 16.2171C85.8639 16.0711 85.7548 15.9434 85.5912 15.7152V15.7243Z" fill="#E06666"/>
<path d="M84.9819 27.8285L83.5649 27.5422L85.2977 18.8997L92.8641 20.4285L92.3691 22.8978C91.6856 26.3065 88.3775 28.5146 84.9819 27.8285Z" fill="#ECB5BC"/>
<path d="M88.4274 28.3459C87.4092 27.9534 86.8001 27.1047 86.1365 26.2833C85.8092 25.8818 85.1728 26.5024 85.5638 26.8583C86.4092 27.634 87.191 28.4189 88.3365 28.6744C88.5547 28.72 88.6274 28.4189 88.4274 28.3459Z" fill="#DC8D8F"/>
<path d="M91.5818 23.7645C91.5273 24.0474 91.5545 24.2938 91.6545 24.3121C91.7545 24.3303 91.8727 24.1204 91.9364 23.8375C91.9909 23.5546 91.9636 23.3082 91.8636 23.2899C91.7636 23.2717 91.6455 23.4816 91.5818 23.7645Z" fill="#010000"/>
<path d="M91.8636 23.2899L92.0999 23.3355L91.8181 23.5089L91.8636 23.2899Z" fill="#010000"/>
<path d="M89.4092 23.3264C89.3547 23.6093 89.3819 23.8558 89.4819 23.874C89.5819 23.8923 89.7001 23.6824 89.7638 23.3994C89.8274 23.1165 89.791 22.8701 89.691 22.8519C89.591 22.8336 89.4728 23.0435 89.4092 23.3264Z" fill="#010000"/>
<path d="M89.691 22.8519L89.9364 22.8975L89.6455 23.0709L89.691 22.8519Z" fill="#010000"/>
<path d="M90.8909 23.5455C90.6818 23.9744 90.4909 24.4398 90.4454 24.9235C90.4 25.4072 90.3545 26.0278 90.7363 26.3746C90.9818 26.6027 91.3909 26.5115 91.4818 26.1738C91.6 25.7449 91.3818 25.3981 91.2909 24.9783C91.1909 24.5129 91.0909 24.0657 91.0818 23.5911C91.0818 23.4907 90.9363 23.436 90.8818 23.5364L90.8909 23.5455Z" fill="#DC8D8F"/>
<path d="M91.0637 26.6666C91.0637 26.6666 89.4183 26.3472 89.2092 26.2924C89.2001 26.548 89.5092 27.1229 90.191 27.2598C90.6274 27.3511 90.991 27.1138 91.0637 26.6666Z" fill="white"/>
<path d="M90.8093 19.5209C90.7911 20.3513 88.8456 20.8441 88.2638 21.1088C86.9911 21.6838 85.8911 22.4777 85.4911 23.8923C85.0275 25.535 85.6911 27.2416 86.4456 28.6288C84.9911 27.9625 84.1275 26.8948 83.8275 25.316C83.4275 23.2261 83.982 21.5925 85.2275 19.8859C86.1547 18.6174 87.0729 17.9785 88.5457 17.4675C89.5638 17.1115 90.8366 16.9929 91.2638 18.2432" fill="#F2D666"/>
<path d="M88.4456 17.0933C88.3456 19.0919 89.9638 20.689 91.1092 21.6564C93.191 23.4086 92.9547 26.2377 91.791 28.501C92.9819 27.9899 93.6819 26.3837 94.0819 25.2338C94.6638 23.582 94.4729 21.7294 93.9274 20.1141C93.3274 18.3436 92.1183 16.71 90.2001 16.3176C88.8638 16.0529 88.1183 17.2941 88.4456 17.0933Z" fill="#F2D666"/>
<path d="M91.9911 17.1663C87.0365 13.379 83.082 17.4766 82.582 18.9824C81.8729 21.0905 82.1274 24.7319 83.8547 26.1099C84.8729 19.8403 92.0002 17.1663 92.0002 17.1663H91.9911Z" fill="#F2D666"/>
<path d="M84.9727 23.3264C84.8363 24.02 85.3909 24.7227 85.8545 24.8231C86.3181 24.9144 86.4999 24.3668 86.6363 23.6641C86.7727 22.9705 86.5181 22.3225 86.0545 22.2313C85.5909 22.14 85.109 22.6328 84.9636 23.3264H84.9727Z" fill="#ECB5BC"/>
<path d="M86.3728 23.2534C86.4364 22.9522 86.3364 22.6328 86.0728 22.4686C85.8091 22.3043 85.3092 22.3317 85.2092 22.6876C85.1546 22.8792 85.3455 23.0983 85.5455 23.0253C85.6273 22.9979 85.6819 22.9431 85.7546 22.8975C85.791 22.8792 85.8364 22.8792 85.8728 22.8884C86.0091 22.9249 86.0637 23.0891 86.0728 23.2169C86.0728 23.3812 86.3273 23.4268 86.3637 23.2534H86.3728Z" fill="#DC8D8F"/>
<path d="M85.9818 22.7058C85.7273 22.8701 85.5637 23.0983 85.4546 23.3812C85.3546 23.6276 85.6 23.8923 85.8364 23.8923C86.1091 23.8923 86.2727 23.6367 86.2182 23.3812C86.2 23.2899 86.2091 23.1257 86.2637 22.9979C86.3455 22.8245 86.1727 22.5781 85.9727 22.7058H85.9818Z" fill="#DC8D8F"/>
<path d="M80.3729 30.0798C81.5001 30.1985 83.0638 31.6586 83.191 33.6116C83.3183 35.6924 81.8183 37.0887 79.691 38.6858C79.4365 38.8774 79.6547 39.6258 79.8729 39.5893C82.3092 39.1603 85.3365 35.3365 84.1001 32.1697C83.0729 29.5231 81.7365 29.6691 81.6274 29.6783C81.0274 29.6965 80.3729 29.8334 80.382 30.0889L80.3729 30.0798Z" fill="#010000"/>
<path d="M88.3091 30.9285C89.4364 31.0472 91.2182 35.3456 91.3364 37.2895C91.3364 37.2895 91.8273 35.9844 91.4909 34.9988C91.1636 34.0406 89.8091 30.5726 88.3091 30.9194V30.9285Z" fill="#010000"/>
<path d="M71.6363 49.2629C70.9909 49.2629 67.4636 54.5196 67.3909 55.2041C68.0091 55.2679 70.3 53.1872 70.7727 52.6214C70.7636 53.4336 70.2454 54.3371 69.9272 55.0672C71.2545 54.6656 73.0727 50.5771 73.2363 49.6827C72.8909 49.5093 72.4 49.2538 71.6363 49.2629Z" fill="#ECB5BC"/>
<path d="M69.4455 52.448C69.0546 52.9225 68.6455 53.3788 68.2637 53.8625C67.9728 54.2276 67.3455 54.6747 67.3546 55.1675C67.3546 55.2588 67.4364 55.3044 67.5182 55.2953C67.9819 55.2314 68.3455 54.5105 68.6091 54.1363C68.9728 53.6344 69.2364 53.0594 69.5091 52.5027C69.5273 52.4662 69.4728 52.4114 69.4455 52.448Z" fill="#DC8D8F"/>
<path d="M70.4456 49.2904C70.0365 49.8927 73.4547 51.1704 73.4547 51.1704C73.5729 50.8053 81.2365 38.7679 82.2638 33.9676C82.4456 33.128 79.7002 30.3992 79.2002 30.6365C78.0638 31.175 74.5456 43.2945 70.4456 49.2904Z" fill="#E06666"/>
<path d="M73.8819 49.7741C73.0364 49.4547 72.2546 48.9892 71.5728 48.396C71.2819 48.1496 70.891 48.5329 71.1546 48.8158C71.8364 49.555 72.6273 50.1665 73.5273 50.6228C74.1273 50.9331 74.5273 50.0022 73.891 49.7649L73.8819 49.7741Z" fill="#B44452"/>
<path d="M79.6728 30.819C80.8455 31.4031 81.5455 32.5348 81.6273 33.8398C81.691 34.9167 81.191 35.8749 81.1819 36.9244C81.1819 37.0978 81.4273 37.2256 81.5455 37.0796C83.2182 35.0718 82.1092 31.4761 79.8092 30.5087C79.6273 30.4357 79.5092 30.7369 79.6819 30.819H79.6728Z" fill="#B44452"/>
<path d="M108.373 29.9794C107.791 30.244 106.018 34.7797 106.173 36.2217C106.264 37.1343 110.473 38.4119 111.536 38.2203C111.464 36.7145 110.263 35.9296 110.082 33.3287C109.945 31.4395 110.091 29.8881 110.009 29.6143L108.382 29.9702L108.373 29.9794Z" fill="#010000"/>
<path d="M105.382 50.7779C106.936 53.1324 110.764 55.2771 112.509 55.6421C112.509 55.6421 112.527 54.6656 112.8 53.6161C111.336 52.6396 108.345 50.6227 107.391 48.98C106.264 47.0362 106.982 40.6113 106.627 39.9816C106.245 39.3154 102.664 40.6661 102.464 41.1224C102.009 42.1537 104.282 49.126 105.382 50.787V50.7779Z" fill="#ECB5BC"/>
<path d="M116.118 53.1233C116.382 53.1598 116.227 53.5249 115.591 53.5796C115.018 53.6344 114.591 53.6161 114.546 53.7256C114.464 53.9447 118.391 54.2823 118.3 54.9942C118.246 55.3775 115.6 54.5744 115.418 54.7295C115.591 54.9212 118.818 55.5782 118.636 55.925C118.427 56.3266 115.309 55.3318 115.173 55.4961C115.209 55.7425 118.146 56.1076 118 56.5274C117.827 56.8742 115.118 56.0984 114.982 56.2992C114.946 56.5182 116.718 56.9107 116.636 57.221C116.536 57.4765 113.691 56.792 112.664 56.0802C111.473 55.2041 110.727 54.4101 112.673 53.5614C114.4 52.5666 115.564 53.0503 116.118 53.1142V53.1233Z" fill="#ECB5BC"/>
<path d="M102.609 40.3923L108.182 45.6855L107.955 39.644L107.964 35.0809L103.6 34.3599L102.609 40.3923Z" fill="#ECB5BC"/>
<path d="M108.7 49.5458C108.7 49.5458 117.327 74.6427 116.809 75.4732C114.973 78.3662 95.1909 77.5449 88.3363 72.6167C87.8909 72.2973 99.4 50.5771 100.445 48.8979C100.864 48.2408 108.709 49.5367 108.709 49.5367L108.7 49.5458Z" fill="#145187"/>
<path d="M107.955 39.644L108.018 43.0024L102.909 38.6218C102.909 38.6218 99.6546 38.8865 99.1727 39.8265C98.4364 41.2684 100.445 48.9161 100.445 48.9161C100.445 48.9161 108.4 50.5406 108.755 50.1208C110.291 48.3686 111.155 46.4612 111.127 45.7585C111.073 44.4808 108.445 41.4327 107.955 39.6531V39.644Z" fill="#145187"/>
<path d="M108.618 50.0478C107.882 50.0204 107.182 49.7922 106.463 49.701C105.582 49.5915 104.854 49.3542 103.991 49.2355C102.818 49.0713 101.618 48.4689 100.445 48.4507C99.818 48.4507 99.818 49.4272 100.445 49.4363C101.073 49.4454 102.1 49.92 102.809 50.0113C103.518 50.1025 104.227 50.1664 104.936 50.3672C106.091 50.6866 107.5 50.7687 108.673 50.5223C108.936 50.4676 108.863 50.0751 108.609 50.0569L108.618 50.0478Z" fill="#023D66"/>
<path d="M101.409 49.4272C100.518 51.2615 99.6726 53.1141 98.8362 54.9667C98.2271 56.3174 97.009 57.8232 97.5726 59.3017C97.6635 59.539 97.8999 59.6576 98.1362 59.5298C99.5362 58.7906 99.5999 56.8924 100.027 55.4687C100.609 53.4974 101.191 51.5353 101.718 49.5549C101.764 49.3724 101.491 49.2447 101.409 49.4272Z" fill="#023D66"/>
<path d="M103.073 49.7648C102.945 51.5353 102.736 53.2875 102.545 55.058C102.382 56.5638 101.945 58.1883 102.364 59.6576C102.436 59.9222 102.809 59.9679 102.945 59.7306C103.709 58.4712 103.664 56.8832 103.755 55.4322C103.873 53.5431 103.818 51.6539 103.755 49.7648C103.736 49.3177 103.109 49.3268 103.073 49.7648Z" fill="#023D66"/>
<path d="M104.982 50.1208C105.118 51.2159 104.9 52.3841 105.154 53.4427C105.191 53.607 105.464 53.6618 105.545 53.4975C106.018 52.448 105.727 51.1521 105.491 50.0569C105.427 49.7831 104.954 49.8379 104.991 50.1208H104.982Z" fill="#023D66"/>
<path d="M107.173 50.4219C107.173 51.3893 106.954 52.5392 107.236 53.4701C107.318 53.7347 107.691 53.7347 107.773 53.4701C108.073 52.521 107.745 51.3163 107.554 50.3763C107.509 50.1573 107.173 50.212 107.182 50.4311L107.173 50.4219Z" fill="#023D66"/>
<path d="M109.255 47.7754C108.582 47.5746 107.891 47.4377 107.191 47.3921C106.582 47.3464 105.809 47.246 105.291 47.6202C105.073 47.7754 105.091 48.1221 105.364 48.2043C105.909 48.3686 106.491 48.1495 107.055 48.1221C107.745 48.0856 108.436 48.1495 109.118 48.2773C109.436 48.3321 109.573 47.8757 109.255 47.7845V47.7754Z" fill="#023D66"/>
<path d="M108.173 48.761C108 48.9891 107.827 49.2173 107.664 49.4455C107.5 49.6736 107.273 49.8653 107.291 50.1482C107.3 50.3854 107.536 50.5041 107.736 50.4037C107.991 50.2851 108.064 49.9839 108.182 49.7466C108.3 49.4911 108.427 49.2356 108.545 48.98C108.664 48.7245 108.345 48.542 108.182 48.761H108.173Z" fill="#023D66"/>
<path d="M107.027 48.7427C106.873 49.0621 106.718 49.3907 106.573 49.7101C106.309 50.2668 107.209 50.5406 107.291 50.0113C107.345 49.6462 107.4 49.2812 107.454 48.9253C107.491 48.688 107.154 48.4781 107.027 48.7427Z" fill="#023D66"/>
<path d="M105.464 48.8523C105.473 49.1625 105.464 49.4728 105.427 49.7831C105.391 50.0934 105.546 50.3672 105.873 50.3672C106.182 50.3672 106.382 50.0752 106.318 49.7831C106.246 49.4363 106.136 49.1078 106.009 48.7793C105.9 48.5146 105.455 48.5146 105.464 48.8523Z" fill="#023D66"/>
<path d="M102.9 47.5929C103.045 48.2408 103.173 48.8888 103.273 49.5459C103.3 49.7466 103.536 49.8835 103.718 49.8926C103.809 49.8926 103.882 49.8744 103.954 49.8288C104.118 49.7284 104.245 49.4911 104.173 49.2995C103.918 48.6606 103.636 48.0309 103.336 47.4103C103.218 47.1639 102.854 47.3373 102.909 47.5929H102.9Z" fill="#023D66"/>
<path d="M101.673 47.027C101.655 47.7206 101.627 48.4233 101.664 49.1169C101.664 49.2629 101.773 49.4363 101.927 49.4637C102 49.4728 102.055 49.482 102.118 49.4637C102.264 49.4272 102.391 49.2721 102.382 49.1169C102.345 48.4142 102.264 47.7206 102.182 47.027C102.145 46.7076 101.682 46.6894 101.673 47.027Z" fill="#023D66"/>
<path d="M108.645 63.7644H109.8V52.6488H108.645V63.7644Z" fill="#E6F0FC"/>
<path d="M100.318 63.7644H101.473V52.6488H100.318V63.7644Z" fill="#E6F0FC"/>
<path d="M99.5 53.3423H110.618V51.946H99.5V53.3423Z" fill="#010000"/>
<path d="M100.473 86.3334H109.654C112.135 86.3334 114.145 84.3149 114.145 81.8251V61.8753C114.145 59.3854 112.135 57.367 109.654 57.367H100.473C97.9923 57.367 95.9816 59.3854 95.9816 61.8753V81.8251C95.9816 84.3149 97.9923 86.3334 100.473 86.3334Z" fill="#E06666"/>
<path d="M110.627 84.8002C111.591 84.8002 112.382 84.0153 112.382 83.0388V60.6524C112.382 59.685 111.6 58.8911 110.627 58.8911C109.663 58.8911 108.873 59.6759 108.873 60.6524V83.0388C108.873 84.0062 109.654 84.8002 110.627 84.8002Z" fill="#B44452"/>
<path d="M105.064 84.8002C106.027 84.8002 106.818 84.0153 106.818 83.0388V60.6524C106.818 59.685 106.036 58.8911 105.064 58.8911C104.1 58.8911 103.309 59.6759 103.309 60.6524V83.0388C103.309 84.0062 104.091 84.8002 105.064 84.8002Z" fill="#B44452"/>
<path d="M99.5089 84.8002C100.473 84.8002 101.263 84.0153 101.263 83.0388V60.6524C101.263 59.685 100.482 58.8911 99.5089 58.8911C98.5453 58.8911 97.7544 59.6759 97.7544 60.6524V83.0388C97.7544 84.0062 98.5362 84.8002 99.5089 84.8002Z" fill="#B44452"/>
<path d="M102.909 49.3451C103.864 49.5733 105.7 49.8562 106.3 50.6593C106.991 51.5901 107.445 53.1142 107.3 53.2146C107.045 53.2785 106.736 52.4845 106.445 52.0191C106.109 51.4806 105.809 51.1065 105.618 50.9604C106.427 51.9826 106.882 53.2785 106.782 53.3241C106.336 53.534 105.8 51.7635 105.118 51.2981C105.609 52.0647 106.373 53.2876 106.218 53.5249C105.836 53.6983 104.873 51.9917 104.618 51.6266C104.873 52.156 105.827 53.4884 105.545 53.6892C105.291 53.8352 104.6 52.5849 104.155 52.1925C103.973 52.0373 101.545 51.5171 101.109 50.6867C100.691 49.117 100.636 48.6972 102.909 49.336V49.3451Z" fill="#ECB5BC"/>
<path d="M93.7363 47.1001C93.409 49.0804 98.4727 50.3946 101.482 50.7961C101.482 50.7961 101.345 49.8835 102.282 49.1808C98.5909 48.3047 96.9909 47.1548 96.9909 47.1548C97.0909 46.7989 102.082 43.5956 102.209 42.8199C102.345 41.9985 100.318 39.3885 99.8363 39.6349C98.7545 40.1916 94.0909 44.9554 93.7363 47.0909V47.1001Z" fill="#ECB5BC"/>
<path d="M97.1544 47.0362C96.5271 46.4521 95.6635 46.4247 94.8453 46.443C94.5089 46.443 94.518 46.9906 94.8453 46.9541C95.5362 46.881 96.3271 46.808 96.9089 47.2735C97.0726 47.4104 97.318 47.1822 97.1544 47.0271V47.0362Z" fill="#DC8D8F"/>
<path d="M104.45 36.7417L103.24 36.5404L104.632 28.0951L112.032 29.3248L111.663 31.5577C111.098 34.988 107.868 37.3096 104.45 36.7417Z" fill="#ECB5BC"/>
<path d="M108 37.1617C107 36.8149 106.391 36.0118 105.718 35.2361C105.373 34.8436 104.746 35.4734 105.146 35.811C105.991 36.532 106.782 37.2803 107.909 37.4902C108.127 37.5267 108.209 37.2347 108 37.1617Z" fill="#DC8D8F"/>
<path d="M112.664 28.2454C113.655 31.6221 109.491 30.9376 107.518 31.1384C104.609 31.5399 104.109 33.2374 105.591 35.4459C105.936 36.0756 106.127 36.7601 106.173 37.4902C104.318 37.0978 102.118 36.7784 100.582 35.6467C97.9182 32.772 100.118 28.3367 102.682 26.2103C105.536 23.8375 111.145 25.0421 112.645 28.2454H112.664Z" fill="#010000"/>
<path d="M110.9 32.6169C110.854 32.8907 110.9 33.128 110.991 33.1462C111.082 33.1645 111.2 32.9546 111.245 32.6808C111.291 32.407 111.245 32.1697 111.154 32.1515C111.064 32.1332 110.945 32.3431 110.9 32.6169Z" fill="#010000"/>
<path d="M111.155 32.1423L111.391 32.1879L111.118 32.3613L111.155 32.1423Z" fill="#010000"/>
<path d="M108.782 32.2609C108.736 32.5347 108.782 32.772 108.873 32.7902C108.964 32.8085 109.082 32.5986 109.127 32.3248C109.173 32.051 109.127 31.8137 109.036 31.7955C108.945 31.7772 108.827 31.9871 108.782 32.2609Z" fill="#010000"/>
<path d="M109.036 31.7955L109.273 31.832L109 32.0054L109.036 31.7955Z" fill="#010000"/>
<path d="M110.218 32.4252C110.027 32.845 109.855 33.3013 109.827 33.7667C109.8 34.2322 109.773 34.8619 110.155 35.1813C110.409 35.3912 110.809 35.3364 110.9 34.9805C111.018 34.5516 110.791 34.2322 110.682 33.8215C110.564 33.3743 110.455 32.9454 110.418 32.48C110.418 32.3887 110.264 32.3248 110.218 32.4252Z" fill="#DC8D8F"/>
<path d="M110.5 35.4551C110.5 35.4551 108.891 35.1996 108.691 35.1539C108.691 35.4003 109.009 35.9479 109.673 36.0574C110.1 36.1304 110.436 35.884 110.5 35.4551Z" fill="white"/>
<path d="M104.473 32.4069C104.364 33.0914 104.927 33.7485 105.382 33.8215C105.836 33.8945 105.991 33.356 106.109 32.6716C106.218 31.9871 105.945 31.3757 105.5 31.3026C105.055 31.2296 104.591 31.7224 104.482 32.3978L104.473 32.4069Z" fill="#ECB5BC"/>
<path d="M105.836 32.2974C105.891 32.0053 105.791 31.6951 105.527 31.5399C105.264 31.3848 104.764 31.4213 104.682 31.7681C104.636 31.9597 104.809 32.1879 105.018 32.1057C105.082 32.0784 105.127 32.0601 105.182 32.0145C105.2 31.9962 105.2 31.9871 105.218 31.9688C105.255 31.9506 105.291 31.9415 105.327 31.9506C105.464 31.9688 105.527 32.1331 105.536 32.2517C105.555 32.4069 105.8 32.4708 105.827 32.2883L105.836 32.2974Z" fill="#DC8D8F"/>
<path d="M105.436 31.768C105.191 31.9323 105.036 32.1605 104.936 32.4343C104.846 32.6807 105.073 32.9453 105.318 32.9453C105.582 32.9453 105.764 32.6898 105.7 32.4343C105.682 32.3521 105.673 32.3247 105.682 32.2244C105.682 32.1513 105.709 32.0783 105.736 32.0053C105.8 31.8319 105.573 31.6585 105.427 31.768H105.436Z" fill="#DC8D8F"/>
<mask id="mask0_434_15786" style="mask-type:luminance" maskUnits="userSpaceOnUse" x="7" y="0" width="131" height="111">
<path d="M62.6001 109.952C86.1728 111.485 128.346 93.4609 133.2 86.2056C146.009 67.0589 123.746 38.4211 107.4 32.0875C93.6183 26.7487 54.2364 -10.8693 34.9364 3.34927C1.69098 27.8347 7.78189 41.5605 9.19098 60.3786C11.6637 93.2966 42.7819 108.665 62.6001 109.952Z" fill="white"/>
</mask>
<g mask="url(#mask0_434_15786)">
<path d="M89.4639 42.5644C88.5003 43.7234 89.4639 72.3612 89.4639 72.3612H95.7185C95.7185 72.3612 97.6457 56.0254 98.0003 55.5691L97.2003 72.3612H101.446L103.728 43.1393C103.728 43.1393 90.5457 41.2684 89.473 42.5644H89.4639Z" fill="#010000"/>
<path d="M94.291 26.0734L100.364 31.8502L100.109 25.2612L100.118 20.2874L95.3728 19.5026L94.291 26.0734Z" fill="#ECB5BC"/>
<path d="M96.8491 22.1934L94.9746 21.8819L96.4935 12.6712L104.557 14.0112L104.062 17.0094C103.496 20.4397 100.266 22.7613 96.8491 22.1934Z" fill="#ECB5BC"/>
<path d="M100.164 22.5781C99.0636 22.2039 98.3908 21.3369 97.6545 20.4973C97.309 20.1049 96.6908 20.7346 97.0818 21.0722C97.9999 21.8662 98.8454 22.6785 100.073 22.9066C100.291 22.9522 100.373 22.6511 100.164 22.5781Z" fill="#DC8D8F"/>
<path d="M103.327 17.6043C103.282 17.9055 103.327 18.161 103.427 18.1793C103.527 18.1975 103.655 17.9694 103.7 17.6682C103.745 17.367 103.7 17.1115 103.6 17.0932C103.5 17.075 103.373 17.3031 103.327 17.6043Z" fill="#010000"/>
<path d="M101.009 17.221C100.964 17.5222 101.009 17.7777 101.109 17.796C101.209 17.8142 101.336 17.5861 101.382 17.2849C101.427 16.9837 101.382 16.7282 101.282 16.7099C101.182 16.6917 101.055 16.9198 101.009 17.221Z" fill="#010000"/>
<path d="M102.591 17.3944C102.391 17.8598 102.227 18.3435 102.191 18.8546C102.155 19.3657 102.155 20.0136 102.536 20.3695C102.773 20.5886 103.209 20.5156 103.282 20.1688C103.382 19.7125 103.155 19.3657 103.045 18.9276C102.927 18.4348 102.809 17.9602 102.782 17.4583C102.782 17.367 102.627 17.3031 102.582 17.4035L102.591 17.3944Z" fill="#DC8D8F"/>
<path d="M102.891 20.698C102.891 20.698 101.145 20.4151 100.918 20.3695C100.918 20.6433 101.264 21.2365 101.991 21.3551C102.464 21.4373 102.827 21.1635 102.891 20.698Z" fill="white"/>
<path d="M95.5365 11.9735C95.9637 10.9605 96.8001 9.96573 97.8365 9.73758C99.4001 9.39991 101.4 10.13 102.6 10.9879C103.918 11.9279 106.027 12.7948 107.482 11.6358C107.2 13.5979 105.973 14.6383 104.109 15.0946C102.073 15.5874 100.664 15.341 98.7365 14.6748C98.6637 15.7243 98.9183 16.783 99.1456 17.796C98.9092 17.8142 98.3819 17.9055 98.1728 17.7686C97.7274 17.4948 97.5819 16.5001 97.4637 16.0529C96.6728 17.148 95.3728 19.5026 95.3728 19.5026C95.3728 19.3565 93.5092 15.1676 93.6456 14.1911C94.0092 11.6267 95.7728 12.0282 95.5365 11.9735Z" fill="#010000"/>
<path d="M96.4273 16.9198C96.3091 17.6591 96.9273 18.3892 97.4182 18.4622C97.9091 18.5443 98.0818 17.9511 98.2091 17.2119C98.3273 16.4727 98.0364 15.7973 97.5455 15.7152C97.0546 15.6331 96.5546 16.1715 96.4364 16.9107L96.4273 16.9198Z" fill="#ECB5BC"/>
<path d="M97.8999 16.792C97.9545 16.4818 97.8454 16.1532 97.5636 15.9889C97.2817 15.8247 96.7727 15.8703 96.6727 16.2262C96.5999 16.4818 96.8727 16.6278 97.0818 16.5365C97.1999 16.4818 97.2363 16.3631 97.3818 16.4087C97.5272 16.4544 97.5908 16.6187 97.5999 16.7464C97.609 16.9016 97.8636 16.9654 97.8908 16.7829L97.8999 16.792Z" fill="#DC8D8F"/>
<path d="M97.491 16.2354C97.2364 16.4179 97.0728 16.6643 96.9728 16.9563C96.9091 17.148 97.0455 17.4126 97.2546 17.4491C97.3364 17.4674 97.3819 17.4674 97.4637 17.4491C97.6819 17.4035 97.7819 17.1571 97.7455 16.9563C97.7182 16.8377 97.7273 16.6643 97.7819 16.5274C97.8182 16.4361 97.8182 16.3449 97.7455 16.2719C97.6819 16.208 97.5637 16.1806 97.491 16.2354Z" fill="#DC8D8F"/>
<path d="M87.982 26.2833C89.2183 24.6041 94.5274 24.6041 94.5274 24.6041C101.2 33.3834 100.109 25.252 100.109 25.252C100.473 26.1555 102.955 27.8073 103.409 28.6104C103.591 28.939 102.791 45.7859 102.564 46.014C102.418 46.16 97.1456 47.6111 90.3183 45.3387C90.1183 43.8146 87.0638 30.1163 87.982 26.2742V26.2833Z" fill="#145187"/>
<path d="M97.3547 28.9481C97.2638 28.3914 94.0547 24.7957 93.9274 24.3759C92.6092 24.1752 87.8092 24.7684 87.4456 27.2233C87.0729 29.7056 87.5183 35.7106 87.8092 40.2737C88.1638 45.8406 87.8183 49.9109 87.8092 50.7961C89.6819 51.508 93.2001 51.4167 96.491 50.9787C97.7183 38.704 97.3547 31.8138 97.3547 28.939V28.9481Z" fill="#F2D666"/>
<path d="M92.1183 42.318C91.3365 43.9881 90.5183 45.5121 89.1001 46.735C88.4092 47.3282 89.4547 48.4051 90.1092 47.748C91.5274 46.3244 92.0001 44.3622 92.4274 42.4549C92.4637 42.2723 92.2001 42.1355 92.1183 42.3271V42.318Z" fill="#EDB25A"/>
<path d="M97.2184 38.6036C97.2184 38.7952 97.0638 38.9595 96.8638 38.9595C96.6638 38.9595 96.5093 38.8044 96.5093 38.6036C96.5093 38.4028 96.6638 38.2477 96.8638 38.2477C97.0638 38.2477 97.2184 38.4028 97.2184 38.6036Z" fill="#EDB25A"/>
<path d="M96.982 43.0572C96.982 43.2488 96.8275 43.4131 96.6275 43.4131C96.4275 43.4131 96.2729 43.2579 96.2729 43.0572C96.2729 42.8564 96.4275 42.7012 96.6275 42.7012C96.8275 42.7012 96.982 42.8564 96.982 43.0572Z" fill="#EDB25A"/>
<path d="M96.6637 47.7663C96.6637 47.9579 96.5091 48.1222 96.3091 48.1222C96.1091 48.1222 95.9546 47.967 95.9546 47.7663C95.9546 47.5655 96.1091 47.4103 96.3091 47.4103C96.5091 47.4103 96.6637 47.5655 96.6637 47.7663Z" fill="#EDB25A"/>
<path d="M96.4547 27.3876C96.2002 35.163 94.682 43.3675 95.1911 51.1156C95.2092 51.3437 95.5729 51.4258 95.6092 51.1703C96.8183 43.4496 96.9002 35.163 96.5456 27.3876C96.5456 27.3328 96.4547 27.3328 96.4547 27.3876Z" fill="#EDB25A"/>
<path d="M101.109 25.8817C100.782 26.7396 100.509 27.6248 100.273 28.51C100.273 28.51 101.2 26.9769 101.2 51.3254C102.237 51.006 103.4 51.2889 103.718 50.4128C104.346 48.6788 104.355 31.5856 104.064 28.437C104.027 28.0172 101.891 26.5662 101.109 25.8817Z" fill="#F2D666"/>
<path d="M100.618 26.7852C102.682 34.5333 102.028 43.2397 102 51.1886C102 51.5171 102.509 51.5171 102.509 51.1886C102.482 43.194 103.073 34.4877 100.937 26.694C100.882 26.4841 100.555 26.5753 100.609 26.7852H100.618Z" fill="#EDB25A"/>
<path d="M101.364 38.3024C101.509 38.3024 101.646 38.3024 101.791 38.3024C101.891 38.3024 101.973 38.2111 101.955 38.1107C101.946 38.0195 101.837 37.9282 101.746 37.9647C101.609 38.0195 101.473 38.0742 101.337 38.1381C101.255 38.1746 101.255 38.3024 101.355 38.3024H101.364Z" fill="#EDB25A"/>
<path d="M101.355 42.9932C101.546 42.9932 101.746 42.9841 101.937 42.975C102.118 42.975 102.091 42.6921 101.9 42.7195C101.709 42.7468 101.518 42.7833 101.328 42.8198C101.237 42.8381 101.255 42.9932 101.346 42.9841L101.355 42.9932Z" fill="#EDB25A"/>
<path d="M101.355 47.5564L101.937 47.5381C102.118 47.5381 102.091 47.2552 101.9 47.2826L101.328 47.383C101.237 47.4012 101.255 47.5563 101.346 47.5472L101.355 47.5564Z" fill="#EDB25A"/>
<path d="M103.946 28.4461C104.055 31.038 103.655 33.8306 104.055 36.3859C104.091 36.5958 104.427 36.5867 104.464 36.3859C104.718 35.1812 104.527 33.8397 104.464 32.6077C104.4 31.2205 104.318 29.8333 104.2 28.4461C104.182 28.2819 103.937 28.2819 103.946 28.4461Z" fill="#EDB25A"/>
<path d="M101.091 36.1395C102.082 35.738 103.9 34.8345 104.928 35.163C106.128 35.5463 107.482 36.6232 107.419 36.7966C107.237 37.0156 106.455 36.5046 105.909 36.2764C105.273 36.0117 104.773 35.8748 104.509 35.8566C105.873 36.249 107.091 37.116 107.028 37.2255C106.764 37.691 105.173 36.4589 104.273 36.468C105.2 36.8422 106.637 37.4445 106.655 37.7457C106.419 38.1473 104.5 37.2346 104.046 37.0704C104.609 37.3807 106.291 37.9647 106.164 38.3207C106.028 38.6127 104.628 37.9374 103.991 37.8735C103.728 37.8461 101.255 38.923 100.337 38.4575C98.9821 37.3259 98.664 36.9882 101.091 36.1213V36.1395Z" fill="#ECB5BC"/>
<path d="M89.2458 38.8226C90.1912 40.7847 97.0639 39.5618 100.673 38.5671C100.673 38.5671 99.3549 37.9282 99.7549 36.7053C95.2912 37.5358 92.1821 36.8148 92.1821 36.8148C92.0458 36.4315 91.1549 29.4774 91.0458 28.6287C90.9094 27.5609 89.4367 26.3289 88.2549 27.7343C87.4003 28.7564 88.2185 36.6962 89.2458 38.8226Z" fill="#ECB5BC"/>
<path d="M94.8728 36.9883C94.8728 36.9883 93.5819 36.8696 92.4365 36.751C92.2819 35.3821 92.991 26.411 89.0546 26.5479C86.2637 26.6392 88.4546 38.5488 89.0183 39.288C89.9546 40.5201 94.4455 39.9634 94.4455 39.9634C95.3274 39.4249 94.691 38.275 94.8637 36.9883H94.8728Z" fill="#F2D666"/>
<path d="M96.4366 36.8605C96.5184 37.5723 96.3275 39.4067 96.3002 39.7991C96.3002 39.7991 94.8912 40.228 94.2093 40.3284C93.7457 39.0964 94.1003 37.8826 94.5184 36.678C95.0912 36.6688 95.5639 36.6506 96.4366 36.8605Z" fill="#F2D666"/>
<path d="M94.1456 36.8787C93.8728 37.4263 93.6728 38.0013 93.5728 38.6127C93.5001 39.0873 93.3547 39.6896 93.7183 40.0638C93.8365 40.1824 94.0365 40.1459 94.1183 40.009C94.3547 39.6257 94.1819 39.1329 94.2001 38.6948C94.2183 38.1199 94.3456 37.5723 94.5365 37.043C94.6183 36.8149 94.2547 36.6597 94.1456 36.8787Z" fill="#EDB25A"/>
<path d="M87.7002 28.8842C87.2548 31.0836 87.0366 33.3013 87.4184 35.5281C87.682 37.0978 87.9184 39.1055 89.4093 39.9634C89.6184 40.0912 89.9002 39.8356 89.7548 39.6166C87.8366 36.7054 87.6184 32.2974 87.8639 28.9025C87.8639 28.8112 87.7184 28.7839 87.7002 28.8842Z" fill="#EDB25A"/>
<path d="M91.9457 29.2128C92.1093 30.4265 92.0912 31.6677 92.1003 32.8906C92.1093 33.9492 91.973 35.0626 92.2366 36.0939C92.273 36.249 92.5366 36.2673 92.5639 36.0939C92.9912 33.9219 92.1366 31.4122 92.0275 29.2128C92.0275 29.1489 91.9275 29.158 91.9366 29.2128H91.9457Z" fill="#EDB25A"/>
<path d="M92.4911 36.5502C91.8548 36.7966 91.2184 37.0795 90.6457 37.4628C90.1821 37.7822 89.7821 38.1199 89.9184 38.7313C89.9548 38.8865 90.1639 38.9412 90.273 38.8226C90.5911 38.5032 90.8366 38.129 91.1911 37.837C91.6366 37.4628 92.1184 37.1434 92.6184 36.8605C92.7821 36.7692 92.673 36.4772 92.4911 36.5502Z" fill="#EDB25A"/>
<path d="M91.6912 36.8605C90.8821 36.6506 90.0639 36.751 89.3185 37.1252C89.0276 37.2712 89.3003 37.7457 89.573 37.5724C90.1912 37.1708 90.8912 37.0065 91.6185 37.1069C91.773 37.1252 91.8548 36.9061 91.6821 36.8605H91.6912Z" fill="#EDB25A"/>
<path d="M87.6457 31.5673C87.8093 32.197 88.1911 32.6898 88.6366 33.1552C89.2002 33.7484 89.773 34.4694 90.4548 34.9348C90.7093 35.1082 90.9366 34.7432 90.7639 34.5333C89.8548 33.4564 88.273 32.9453 87.7275 31.5582C87.7093 31.5125 87.6275 31.5308 87.6457 31.5764V31.5673Z" fill="#EDB25A"/>
<path d="M94.9001 39.9269C94.8365 40.0181 94.7092 40.0364 94.6183 39.9725C94.5274 39.9086 94.5092 39.7809 94.5728 39.6896C94.6365 39.5983 94.7637 39.5801 94.8546 39.644C94.9456 39.7078 94.9637 39.8356 94.9001 39.9269Z" fill="#EDB25A"/>
<path d="M95.7729 39.6257C95.7093 39.717 95.582 39.7352 95.4911 39.6714C95.4002 39.6075 95.382 39.4797 95.4456 39.3884C95.5093 39.2972 95.6365 39.2789 95.7275 39.3428C95.8184 39.4067 95.8365 39.5345 95.7729 39.6257Z" fill="#EDB25A"/>
<path d="M94.7276 23.4268C94.7548 23.5637 97.6094 27.1412 98.0003 27.6979C98.0003 27.6979 97.373 29.1398 96.7457 29.7239C95.1821 29.0303 93.2821 24.96 93.373 24.3486C94.0821 23.9835 94.573 23.3629 94.7276 23.4268Z" fill="#F2D666"/>
<path d="M93.5458 24.5493C94.0367 26.0004 94.5458 27.6705 95.3821 28.9664C96.1276 30.1254 96.573 29.4592 97.3639 28.6196C97.4821 28.5009 97.3094 28.3367 97.1821 28.437C96.9912 28.5922 96.7912 28.793 96.573 28.9207C96.2094 29.1398 96.2094 29.1124 95.9367 28.9025C95.5821 28.6196 95.3003 27.8895 95.1003 27.5062C94.5912 26.5297 94.1276 25.5258 93.7094 24.5037C93.673 24.4033 93.5094 24.4398 93.5458 24.5493Z" fill="#EDB25A"/>
<path d="M100.119 24.7592C99.764 25.7631 99.5094 26.6392 99.2549 27.6613C99.2549 27.6613 99.9276 28.3914 100.509 28.8021C101.037 28.218 101.146 25.4893 101.146 25.4893C101.146 25.4893 100.737 24.8505 100.128 24.7683L100.119 24.7592Z" fill="#F2D666"/>
<path d="M100.955 25.9547C100.991 26.411 100.864 26.8947 100.8 27.351C100.746 27.7161 100.737 28.1359 100.609 28.4736L100.819 28.2637C100.737 28.2819 100.555 28.145 100.482 28.1268C100.355 28.0903 100.309 28.0994 100.164 28.1085C99.9367 28.1359 99.7367 28.4371 99.9549 28.6196C100.264 28.8842 101.055 29.1306 101.2 28.5648C101.291 28.2272 101.164 27.7435 101.128 27.3967C101.082 26.9312 100.982 26.4202 101.046 25.9639C101.046 25.9091 100.946 25.9 100.955 25.9639V25.9547Z" fill="#EDB25A"/>
<path d="M77.5547 47.2643C76.5365 48.4599 77.882 73.575 77.882 73.575L84.3638 73.6389C84.3638 73.6389 85.6456 58.0241 85.7274 58.6264C86.2184 62.432 87.5638 73.9675 87.5638 73.9675L93.7365 74.077L90.6729 48.3595C90.6729 48.3595 78.682 45.941 77.5547 47.2643Z" fill="#145187"/>
<path d="M86.6364 49.1443C86.5546 50.4585 86.7727 50.3125 85.8455 50.4037C85.1546 50.4767 84.3091 50.2303 83.6182 50.1573C81.5 49.9292 79.3727 49.6371 77.3182 49.0439C77 48.9527 76.8636 49.4455 77.1818 49.5367C80.1818 50.3946 83.4273 50.7596 86.5455 50.7962C86.6091 50.7962 86.6818 50.7505 86.7 50.6775C86.8364 50.1482 86.8273 49.701 86.8182 49.1443C86.8182 49.0348 86.6546 49.0348 86.6455 49.1443H86.6364Z" fill="#023D66"/>
<path d="M90.8273 49.628C90.1546 49.8105 89.4819 50.0022 88.8001 50.13C88.0637 50.276 87.3364 50.2395 86.591 50.3034C86.3728 50.3216 86.2819 50.6867 86.5364 50.7232C88.0092 50.9513 89.5364 50.3764 90.9182 49.9474C91.1273 49.8836 91.0364 49.5641 90.8273 49.6189V49.628Z" fill="#023D66"/>
<path d="M86.2728 50.6501C86.0365 51.8365 86.2092 53.2237 86.2092 54.4284C86.2092 55.487 86.491 56.7008 85.5547 57.4582C85.4819 57.5221 85.4637 57.6681 85.5183 57.7412L85.5637 57.7959C85.6728 57.9419 85.8274 57.9967 86.0001 57.9145C86.8183 57.5039 86.9183 56.3814 86.891 55.5965C86.8274 54.0542 87.0092 52.0556 86.3546 50.6319C86.3365 50.5954 86.2819 50.6045 86.2728 50.641V50.6501Z" fill="#023D66"/>
<path d="M85.3638 50.6136C85.4092 52.083 85.4547 53.5614 85.4729 55.0398C85.491 56.3631 85.3092 57.7138 85.5001 59.0188C85.5274 59.1922 85.791 59.174 85.8274 59.0188C86.482 56.3996 86.0274 53.2146 85.491 50.6045C85.4729 50.5315 85.3638 50.5498 85.3638 50.6228V50.6136Z" fill="#023D66"/>
<path d="M81.3001 50.1208C81.1364 51.0426 80.6546 51.8913 80.0455 52.594C79.7455 52.9408 79.4001 53.2602 78.991 53.4793C78.7092 53.6344 78.3728 53.6527 78.1546 53.8991C78.0637 53.9903 78.0728 54.1728 78.2001 54.2367C78.9273 54.6018 79.8728 53.5523 80.2728 53.0412C80.9273 52.2199 81.4092 51.2069 81.5092 50.1482C81.5183 50.0296 81.3182 50.0022 81.3001 50.1208Z" fill="#023D66"/>
<path d="M77.8001 49.482C77.7819 57.4856 78.5547 65.5258 79.0274 73.5203C79.0547 74.0405 79.8638 74.0405 79.8365 73.5203C79.4001 65.5075 79.1183 57.4035 77.9274 49.4729C77.9183 49.3999 77.8001 49.4181 77.8001 49.4911V49.482Z" fill="#023D66"/>
<path d="M86.1 57.3396C87.3363 62.8244 87.6545 68.3731 88.5545 73.8945C88.5909 74.1409 88.9636 74.0679 88.9727 73.8397C89.2181 68.3275 87.7909 62.5415 86.3091 57.2849C86.2727 57.148 86.0727 57.2119 86.1 57.3396Z" fill="#023D66"/>
<path d="M85.3 49.9383C85.3 50.1299 85.4455 50.2851 85.6273 50.2942C85.8182 50.2942 85.9728 50.1482 85.9819 49.9657C85.9819 49.774 85.8364 49.6189 85.6546 49.6098C85.4728 49.6006 85.3091 49.7558 85.3 49.9383Z" fill="#F2D666"/>
<path d="M89.1363 30.7095C89.0999 29.4866 83.7999 28.2181 77.0636 28.3093C76.8545 28.3093 73.5363 30.5817 74.509 35.9844C74.509 35.9844 73.8636 46.0597 74.1727 46.6712C75.1272 48.542 86.8545 48.9162 88.9636 48.0401C89.5363 47.8028 89.1272 30.7095 89.1272 30.7095H89.1363Z" fill="#010000"/>
<path d="M103.636 27.8622C103.818 28.0173 105.364 24.2299 106.027 24.5494C106.391 24.7228 104.791 27.0864 104.891 27.3146C105.136 27.2051 106.764 24.2208 107.046 24.4946C107.373 24.8231 105.455 27.5975 105.564 27.78C105.818 27.8257 107.073 25.033 107.446 25.2977C107.736 25.5806 106.146 28.0082 106.291 28.209C106.5 28.3093 107.418 26.6758 107.7 26.8583C107.918 27.0408 106.373 29.6326 105.364 30.4357C104.136 31.3483 103.127 31.832 102.9 29.66C102.846 29.4227 102.809 29.1946 102.791 28.9847C103.127 28.6379 103.418 28.1907 103.609 27.707C103.609 27.78 103.609 27.8257 103.636 27.8439V27.8622Z" fill="#ECB5BC"/>
<path d="M97.9 36.7966C100.682 35.9844 104.236 32.4526 105.136 30.8373C105.136 30.8373 103.664 30.5452 102.718 29.952C101.318 31.1019 98.5545 32.3066 96.6545 32.7446C94.4091 33.2648 88.4636 31.3118 87.7364 31.467C86.9636 31.6312 87.2 35.5829 87.5818 35.9205C88.4454 36.6871 95.9454 37.3625 97.9091 36.7875L97.9 36.7966Z" fill="#E06666"/>
<path d="M103.918 32.2518C103.627 31.905 103.318 31.5856 102.982 31.2845C102.673 31.0107 102.418 30.7643 102.009 30.7186C101.809 30.6913 101.755 30.9559 101.855 31.0837C102.109 31.3849 102.491 31.4944 102.836 31.6769C103.182 31.8594 103.536 32.0876 103.864 32.3248C103.909 32.3522 103.945 32.2883 103.918 32.261V32.2518Z" fill="#B44452"/>
<path d="M103.518 26.1282C103.627 25.8818 103.945 26.1464 103.809 26.7853C103.718 27.2051 103.836 27.9169 103.627 28.9116C103.445 29.3862 103.127 28.6561 102.8 28.9938C102.645 27.4241 103.318 26.5936 103.527 26.1282H103.518Z" fill="#ECB5BC"/>
<path d="M82.7727 31.4669L89.7909 36.5137L88.2909 30.892L88.4636 26.2012L84.0091 25.2977L82.7727 31.4669Z" fill="#ECB5BC"/>
<path d="M88.291 30.892C88.291 30.892 89.1637 34.7433 88.3092 34.7159C85.6819 34.6246 83.1364 29.6509 83.1364 29.6509C83.1364 29.6509 79.4183 29.9977 78.891 30.9559C78.0819 32.4161 80.1274 37.7001 79.9455 39.8174C79.7546 42.0533 76.391 48.0674 77.2728 48.2682C78.9637 48.6606 87.791 50.3216 90.9546 48.5511C90.9546 48.5511 89.5455 43.8329 89.6183 41.5514C89.691 39.352 91.3455 38.0104 91.3455 37.2803C91.3364 36.2126 90.8364 33.8672 89.9546 32.0419C89.7455 31.6039 88.3001 30.8829 88.3001 30.8829L88.291 30.892Z" fill="#E06666"/>
<path d="M88.3547 41.6335C86.9547 41.6335 85.0002 41.6061 83.7547 42.318C83.5002 42.464 83.6093 42.8838 83.9093 42.8747C84.5729 42.8564 85.2274 42.6009 85.882 42.4822C86.7002 42.3362 87.5274 42.2541 88.3547 42.2267C88.7365 42.2176 88.7365 41.6335 88.3547 41.6244V41.6335Z" fill="#B44452"/>
<path d="M85.4729 18.2614C85.8001 17.5131 85.6092 16.2902 85.4456 15.5327C84.8729 12.9956 82.5365 10.705 79.8638 10.632C77.691 10.5772 76.6001 12.4663 75.3456 13.8991C74.3274 15.0673 72.7456 16.5366 71.0547 16.4453C73.8092 18.1154 75.3547 19.8311 78.6274 17.796C79.682 17.1389 86.0638 14.8391 83.7638 20.0045C83.5001 20.5977 85.191 18.9185 85.4729 18.2523V18.2614Z" fill="#F2D666"/>
<path d="M85.5912 15.7243C84.8457 15.7608 83.5457 16.8012 83.5366 17.0111L83.9094 17.294C84.1548 17.3579 85.573 16.4727 85.9275 16.2171C85.8639 16.0711 85.7548 15.9434 85.5912 15.7152V15.7243Z" fill="#E06666"/>
<path d="M84.9819 27.8285L83.5649 27.5422L85.2977 18.8997L92.8641 20.4285L92.3691 22.8978C91.6856 26.3065 88.3775 28.5146 84.9819 27.8285Z" fill="#ECB5BC"/>
<path d="M88.4274 28.3459C87.4092 27.9534 86.8001 27.1047 86.1365 26.2833C85.8092 25.8818 85.1728 26.5024 85.5638 26.8583C86.4092 27.634 87.191 28.4189 88.3365 28.6744C88.5547 28.72 88.6274 28.4189 88.4274 28.3459Z" fill="#DC8D8F"/>
<path d="M91.5818 23.7645C91.5273 24.0474 91.5545 24.2938 91.6545 24.3121C91.7545 24.3303 91.8727 24.1204 91.9364 23.8375C91.9909 23.5546 91.9636 23.3082 91.8636 23.2899C91.7636 23.2717 91.6455 23.4816 91.5818 23.7645Z" fill="#010000"/>
<path d="M91.8636 23.2899L92.0999 23.3355L91.8181 23.5089L91.8636 23.2899Z" fill="#010000"/>
<path d="M89.4092 23.3264C89.3547 23.6093 89.3819 23.8558 89.4819 23.874C89.5819 23.8923 89.7001 23.6824 89.7638 23.3994C89.8274 23.1165 89.791 22.8701 89.691 22.8519C89.591 22.8336 89.4728 23.0435 89.4092 23.3264Z" fill="#010000"/>
<path d="M89.691 22.8519L89.9364 22.8975L89.6455 23.0709L89.691 22.8519Z" fill="#010000"/>
<path d="M90.8909 23.5455C90.6818 23.9744 90.4909 24.4398 90.4454 24.9235C90.4 25.4072 90.3545 26.0278 90.7363 26.3746C90.9818 26.6027 91.3909 26.5115 91.4818 26.1738C91.6 25.7449 91.3818 25.3981 91.2909 24.9783C91.1909 24.5129 91.0909 24.0657 91.0818 23.5911C91.0818 23.4907 90.9363 23.436 90.8818 23.5364L90.8909 23.5455Z" fill="#DC8D8F"/>
<path d="M91.0637 26.6666C91.0637 26.6666 89.4183 26.3472 89.2092 26.2924C89.2001 26.548 89.5092 27.1229 90.191 27.2598C90.6274 27.3511 90.991 27.1138 91.0637 26.6666Z" fill="white"/>
<path d="M90.8093 19.5209C90.7911 20.3513 88.8456 20.8441 88.2638 21.1088C86.9911 21.6838 85.8911 22.4777 85.4911 23.8923C85.0275 25.535 85.6911 27.2416 86.4456 28.6288C84.9911 27.9625 84.1275 26.8948 83.8275 25.316C83.4275 23.2261 83.982 21.5925 85.2275 19.8859C86.1547 18.6174 87.0729 17.9785 88.5457 17.4675C89.5638 17.1115 90.8366 16.9929 91.2638 18.2432" fill="#F2D666"/>
<path d="M88.4456 17.0933C88.3456 19.0919 89.9638 20.689 91.1092 21.6564C93.191 23.4086 92.9547 26.2377 91.791 28.501C92.9819 27.9899 93.6819 26.3837 94.0819 25.2338C94.6638 23.582 94.4729 21.7294 93.9274 20.1141C93.3274 18.3436 92.1183 16.71 90.2001 16.3176C88.8638 16.0529 88.1183 17.2941 88.4456 17.0933Z" fill="#F2D666"/>
<path d="M91.9911 17.1663C87.0365 13.379 83.082 17.4766 82.582 18.9824C81.8729 21.0905 82.1274 24.7319 83.8547 26.1099C84.8729 19.8403 92.0002 17.1663 92.0002 17.1663H91.9911Z" fill="#F2D666"/>
<path d="M84.9727 23.3264C84.8363 24.02 85.3909 24.7227 85.8545 24.8231C86.3181 24.9144 86.4999 24.3668 86.6363 23.6641C86.7727 22.9705 86.5181 22.3225 86.0545 22.2313C85.5909 22.14 85.109 22.6328 84.9636 23.3264H84.9727Z" fill="#ECB5BC"/>
<path d="M86.3728 23.2534C86.4364 22.9522 86.3364 22.6328 86.0728 22.4686C85.8091 22.3043 85.3092 22.3317 85.2092 22.6876C85.1546 22.8792 85.3455 23.0983 85.5455 23.0253C85.6273 22.9979 85.6819 22.9431 85.7546 22.8975C85.791 22.8792 85.8364 22.8792 85.8728 22.8884C86.0091 22.9249 86.0637 23.0891 86.0728 23.2169C86.0728 23.3812 86.3273 23.4268 86.3637 23.2534H86.3728Z" fill="#DC8D8F"/>
<path d="M85.9818 22.7058C85.7273 22.8701 85.5637 23.0983 85.4546 23.3812C85.3546 23.6276 85.6 23.8923 85.8364 23.8923C86.1091 23.8923 86.2727 23.6367 86.2182 23.3812C86.2 23.2899 86.2091 23.1257 86.2637 22.9979C86.3455 22.8245 86.1727 22.5781 85.9727 22.7058H85.9818Z" fill="#DC8D8F"/>
<path d="M80.3729 30.0798C81.5001 30.1985 83.0638 31.6586 83.191 33.6116C83.3183 35.6924 81.8183 37.0887 79.691 38.6858C79.4365 38.8774 79.6547 39.6258 79.8729 39.5893C82.3092 39.1603 85.3365 35.3365 84.1001 32.1697C83.0729 29.5231 81.7365 29.6691 81.6274 29.6783C81.0274 29.6965 80.3729 29.8334 80.382 30.0889L80.3729 30.0798Z" fill="#010000"/>
<path d="M88.3091 30.9285C89.4364 31.0472 91.2182 35.3456 91.3364 37.2895C91.3364 37.2895 91.8273 35.9844 91.4909 34.9988C91.1636 34.0406 89.8091 30.5726 88.3091 30.9194V30.9285Z" fill="#010000"/>
<path d="M71.6363 49.2629C70.9909 49.2629 67.4636 54.5196 67.3909 55.2041C68.0091 55.2679 70.3 53.1872 70.7727 52.6214C70.7636 53.4336 70.2454 54.3371 69.9272 55.0672C71.2545 54.6656 73.0727 50.5771 73.2363 49.6827C72.8909 49.5093 72.4 49.2538 71.6363 49.2629Z" fill="#ECB5BC"/>
<path d="M69.4455 52.448C69.0546 52.9225 68.6455 53.3788 68.2637 53.8625C67.9728 54.2276 67.3455 54.6747 67.3546 55.1675C67.3546 55.2588 67.4364 55.3044 67.5182 55.2953C67.9819 55.2314 68.3455 54.5105 68.6091 54.1363C68.9728 53.6344 69.2364 53.0594 69.5091 52.5027C69.5273 52.4662 69.4728 52.4114 69.4455 52.448Z" fill="#DC8D8F"/>
<path d="M70.4456 49.2904C70.0365 49.8927 73.4547 51.1704 73.4547 51.1704C73.5729 50.8053 81.2365 38.7679 82.2638 33.9676C82.4456 33.128 79.7002 30.3992 79.2002 30.6365C78.0638 31.175 74.5456 43.2945 70.4456 49.2904Z" fill="#E06666"/>
<path d="M73.8819 49.7741C73.0364 49.4547 72.2546 48.9892 71.5728 48.396C71.2819 48.1496 70.891 48.5329 71.1546 48.8158C71.8364 49.555 72.6273 50.1665 73.5273 50.6228C74.1273 50.9331 74.5273 50.0022 73.891 49.7649L73.8819 49.7741Z" fill="#B44452"/>
<path d="M79.6728 30.819C80.8455 31.4031 81.5455 32.5348 81.6273 33.8398C81.691 34.9167 81.191 35.8749 81.1819 36.9244C81.1819 37.0978 81.4273 37.2256 81.5455 37.0796C83.2182 35.0718 82.1092 31.4761 79.8092 30.5087C79.6273 30.4357 79.5092 30.7369 79.6819 30.819H79.6728Z" fill="#B44452"/>
<path d="M108.373 29.9794C107.791 30.244 106.018 34.7797 106.173 36.2217C106.264 37.1343 110.473 38.4119 111.536 38.2203C111.464 36.7145 110.264 35.9296 110.082 33.3287C109.946 31.4395 110.091 29.8881 110.009 29.6143L108.382 29.9702L108.373 29.9794Z" fill="#010000"/>
<path d="M105.382 50.7779C106.937 53.1324 110.764 55.2771 112.509 55.6421C112.509 55.6421 112.527 54.6656 112.8 53.6161C111.337 52.6396 108.346 50.6227 107.391 48.98C106.264 47.0362 106.982 40.6113 106.627 39.9816C106.246 39.3154 102.664 40.6661 102.464 41.1224C102.009 42.1537 104.282 49.126 105.382 50.787V50.7779Z" fill="#ECB5BC"/>
<path d="M116.118 53.1233C116.382 53.1598 116.228 53.5249 115.591 53.5796C115.018 53.6344 114.591 53.6161 114.546 53.7256C114.464 53.9447 118.391 54.2823 118.3 54.9942C118.246 55.3775 115.6 54.5744 115.418 54.7295C115.591 54.9212 118.818 55.5782 118.637 55.925C118.428 56.3266 115.309 55.3318 115.173 55.4961C115.209 55.7425 118.146 56.1076 118 56.5274C117.828 56.8742 115.118 56.0984 114.982 56.2992C114.946 56.5182 116.718 56.9107 116.637 57.221C116.537 57.4765 113.691 56.792 112.664 56.0802C111.473 55.2041 110.728 54.4101 112.673 53.5614C114.4 52.5666 115.564 53.0503 116.118 53.1142V53.1233Z" fill="#ECB5BC"/>
<path d="M102.609 40.3923L108.182 45.6855L107.955 39.644L107.964 35.0809L103.6 34.3599L102.609 40.3923Z" fill="#ECB5BC"/>
<path d="M108.7 49.5458C108.7 49.5458 117.327 74.6427 116.809 75.4732C114.973 78.3662 95.1911 77.5449 88.3366 72.6167C87.8911 72.2973 99.4002 50.5771 100.446 48.8979C100.864 48.2408 108.709 49.5367 108.709 49.5367L108.7 49.5458Z" fill="#145187"/>
<path d="M107.955 39.644L108.018 43.0024L102.909 38.6218C102.909 38.6218 99.6548 38.8865 99.173 39.8265C98.4366 41.2684 100.446 48.9161 100.446 48.9161C100.446 48.9161 108.4 50.5406 108.755 50.1208C110.291 48.3686 111.155 46.4612 111.128 45.7585C111.073 44.4808 108.446 41.4327 107.955 39.6531V39.644Z" fill="#145187"/>
<path d="M108.618 50.0478C107.882 50.0204 107.182 49.7922 106.464 49.701C105.582 49.5915 104.855 49.3542 103.991 49.2355C102.818 49.0713 101.618 48.4689 100.446 48.4507C99.8183 48.4507 99.8183 49.4272 100.446 49.4363C101.073 49.4454 102.1 49.92 102.809 50.0113C103.518 50.1025 104.227 50.1664 104.936 50.3672C106.091 50.6866 107.5 50.7687 108.673 50.5223C108.936 50.4676 108.864 50.0751 108.609 50.0569L108.618 50.0478Z" fill="#023D66"/>
<path d="M101.409 49.4272C100.518 51.2615 99.6728 53.1141 98.8365 54.9667C98.2274 56.3174 97.0092 57.8232 97.5728 59.3017C97.6638 59.539 97.9001 59.6576 98.1365 59.5298C99.5365 58.7906 99.6001 56.8924 100.027 55.4687C100.609 53.4974 101.191 51.5353 101.718 49.5549C101.764 49.3724 101.491 49.2447 101.409 49.4272Z" fill="#023D66"/>
<path d="M103.073 49.7648C102.946 51.5353 102.737 53.2875 102.546 55.058C102.382 56.5638 101.946 58.1883 102.364 59.6576C102.437 59.9222 102.809 59.9679 102.946 59.7306C103.709 58.4712 103.664 56.8832 103.755 55.4322C103.873 53.5431 103.818 51.6539 103.755 49.7648C103.737 49.3177 103.109 49.3268 103.073 49.7648Z" fill="#023D66"/>
<path d="M104.982 50.1208C105.118 51.2159 104.9 52.3841 105.155 53.4427C105.191 53.607 105.464 53.6618 105.546 53.4975C106.018 52.448 105.727 51.1521 105.491 50.0569C105.427 49.7831 104.955 49.8379 104.991 50.1208H104.982Z" fill="#023D66"/>
<path d="M107.173 50.4219C107.173 51.3893 106.955 52.5392 107.236 53.4701C107.318 53.7347 107.691 53.7347 107.773 53.4701C108.073 52.521 107.746 51.3163 107.555 50.3763C107.509 50.1573 107.173 50.212 107.182 50.4311L107.173 50.4219Z" fill="#023D66"/>
<path d="M109.255 47.7754C108.582 47.5746 107.891 47.4377 107.191 47.3921C106.582 47.3464 105.809 47.246 105.291 47.6202C105.073 47.7754 105.091 48.1221 105.364 48.2043C105.909 48.3686 106.491 48.1495 107.055 48.1221C107.746 48.0856 108.437 48.1495 109.118 48.2773C109.437 48.3321 109.573 47.8757 109.255 47.7845V47.7754Z" fill="#023D66"/>
<path d="M108.173 48.761C108 48.9891 107.827 49.2173 107.664 49.4455C107.5 49.6736 107.273 49.8653 107.291 50.1482C107.3 50.3854 107.537 50.5041 107.737 50.4037C107.991 50.2851 108.064 49.9839 108.182 49.7466C108.3 49.4911 108.427 49.2356 108.546 48.98C108.664 48.7245 108.346 48.542 108.182 48.761H108.173Z" fill="#023D66"/>
<path d="M107.027 48.7427C106.873 49.0621 106.718 49.3907 106.573 49.7101C106.309 50.2668 107.209 50.5406 107.291 50.0113C107.346 49.6462 107.4 49.2812 107.455 48.9253C107.491 48.688 107.155 48.4781 107.027 48.7427Z" fill="#023D66"/>
<path d="M105.464 48.8523C105.473 49.1625 105.464 49.4728 105.428 49.7831C105.391 50.0934 105.546 50.3672 105.873 50.3672C106.182 50.3672 106.382 50.0752 106.318 49.7831C106.246 49.4363 106.137 49.1078 106.009 48.7793C105.9 48.5146 105.455 48.5146 105.464 48.8523Z" fill="#023D66"/>
<path d="M102.9 47.5929C103.046 48.2408 103.173 48.8888 103.273 49.5459C103.3 49.7466 103.537 49.8835 103.718 49.8926C103.809 49.8926 103.882 49.8744 103.955 49.8288C104.118 49.7284 104.246 49.4911 104.173 49.2995C103.918 48.6606 103.637 48.0309 103.337 47.4103C103.218 47.1639 102.855 47.3373 102.909 47.5929H102.9Z" fill="#023D66"/>
<path d="M101.673 47.027C101.655 47.7206 101.628 48.4233 101.664 49.1169C101.664 49.2629 101.773 49.4363 101.928 49.4637C102 49.4728 102.055 49.482 102.118 49.4637C102.264 49.4272 102.391 49.2721 102.382 49.1169C102.346 48.4142 102.264 47.7206 102.182 47.027C102.146 46.7076 101.682 46.6894 101.673 47.027Z" fill="#023D66"/>
<path d="M108.646 63.7644H109.8V52.6488H108.646V63.7644Z" fill="#E6F0FC"/>
<path d="M100.318 63.7644H101.473V52.6488H100.318V63.7644Z" fill="#E6F0FC"/>
<path d="M99.5002 53.3423H110.618V51.946H99.5002V53.3423Z" fill="#010000"/>
<path d="M100.473 86.3334H109.655C112.135 86.3334 114.146 84.3149 114.146 81.8251V61.8753C114.146 59.3854 112.135 57.367 109.655 57.367H100.473C97.9925 57.367 95.9819 59.3854 95.9819 61.8753V81.8251C95.9819 84.3149 97.9925 86.3334 100.473 86.3334Z" fill="#E06666"/>
<path d="M110.627 84.8002C111.591 84.8002 112.382 84.0153 112.382 83.0388V60.6524C112.382 59.685 111.6 58.8911 110.627 58.8911C109.664 58.8911 108.873 59.6759 108.873 60.6524V83.0388C108.873 84.0062 109.655 84.8002 110.627 84.8002Z" fill="#B44452"/>
<path d="M105.064 84.8002C106.027 84.8002 106.818 84.0153 106.818 83.0388V60.6524C106.818 59.685 106.036 58.8911 105.064 58.8911C104.1 58.8911 103.309 59.6759 103.309 60.6524V83.0388C103.309 84.0062 104.091 84.8002 105.064 84.8002Z" fill="#B44452"/>
<path d="M99.5092 84.8002C100.473 84.8002 101.264 84.0153 101.264 83.0388V60.6524C101.264 59.685 100.482 58.8911 99.5092 58.8911C98.5455 58.8911 97.7546 59.6759 97.7546 60.6524V83.0388C97.7546 84.0062 98.5365 84.8002 99.5092 84.8002Z" fill="#B44452"/>
<path d="M102.909 49.3451C103.864 49.5733 105.7 49.8562 106.3 50.6593C106.991 51.5901 107.446 53.1142 107.3 53.2146C107.046 53.2785 106.737 52.4845 106.446 52.0191C106.109 51.4806 105.809 51.1065 105.618 50.9604C106.428 51.9826 106.882 53.2785 106.782 53.3241C106.337 53.534 105.8 51.7635 105.118 51.2981C105.609 52.0647 106.373 53.2876 106.218 53.5249C105.837 53.6983 104.873 51.9917 104.618 51.6266C104.873 52.156 105.828 53.4884 105.546 53.6892C105.291 53.8352 104.6 52.5849 104.155 52.1925C103.973 52.0373 101.546 51.5171 101.109 50.6867C100.691 49.117 100.637 48.6972 102.909 49.336V49.3451Z" fill="#ECB5BC"/>
<path d="M93.7366 47.1001C93.4093 49.0804 98.4729 50.3946 101.482 50.7961C101.482 50.7961 101.346 49.8835 102.282 49.1808C98.5911 48.3047 96.9911 47.1548 96.9911 47.1548C97.0911 46.7989 102.082 43.5956 102.209 42.8199C102.346 41.9985 100.318 39.3885 99.8366 39.6349C98.7547 40.1916 94.0911 44.9554 93.7366 47.0909V47.1001Z" fill="#ECB5BC"/>
<path d="M97.1546 47.0362C96.5274 46.4521 95.6637 46.4247 94.8456 46.443C94.5092 46.443 94.5183 46.9906 94.8456 46.9541C95.5365 46.881 96.3274 46.808 96.9092 47.2735C97.0728 47.4104 97.3183 47.1822 97.1546 47.0271V47.0362Z" fill="#DC8D8F"/>
<path d="M104.451 36.7417L103.24 36.5404L104.633 28.0951L112.032 29.3248L111.664 31.5577C111.098 34.988 107.868 37.3096 104.451 36.7417Z" fill="#ECB5BC"/>
<path d="M108 37.1617C107 36.8149 106.391 36.0118 105.718 35.2361C105.373 34.8436 104.746 35.4734 105.146 35.811C105.991 36.532 106.782 37.2803 107.909 37.4902C108.128 37.5267 108.209 37.2347 108 37.1617Z" fill="#DC8D8F"/>
<path d="M112.664 28.2454C113.655 31.6221 109.491 30.9376 107.518 31.1384C104.609 31.5399 104.109 33.2374 105.591 35.4459C105.937 36.0756 106.128 36.7601 106.173 37.4902C104.318 37.0978 102.118 36.7784 100.582 35.6467C97.9184 32.772 100.118 28.3367 102.682 26.2103C105.537 23.8375 111.146 25.0421 112.646 28.2454H112.664Z" fill="#010000"/>
<path d="M110.9 32.6169C110.855 32.8907 110.9 33.128 110.991 33.1462C111.082 33.1645 111.2 32.9546 111.246 32.6808C111.291 32.407 111.246 32.1697 111.155 32.1515C111.064 32.1332 110.946 32.3431 110.9 32.6169Z" fill="#010000"/>
<path d="M111.155 32.1423L111.391 32.1879L111.118 32.3613L111.155 32.1423Z" fill="#010000"/>
<path d="M108.782 32.2609C108.737 32.5347 108.782 32.772 108.873 32.7902C108.964 32.8085 109.082 32.5986 109.127 32.3248C109.173 32.051 109.127 31.8137 109.037 31.7955C108.946 31.7772 108.827 31.9871 108.782 32.2609Z" fill="#010000"/>
<path d="M109.037 31.7955L109.273 31.832L109 32.0054L109.037 31.7955Z" fill="#010000"/>
<path d="M110.218 32.4252C110.028 32.845 109.855 33.3013 109.828 33.7667C109.8 34.2322 109.773 34.8619 110.155 35.1813C110.409 35.3912 110.809 35.3364 110.9 34.9805C111.018 34.5516 110.791 34.2322 110.682 33.8215C110.564 33.3743 110.455 32.9454 110.418 32.48C110.418 32.3887 110.264 32.3248 110.218 32.4252Z" fill="#DC8D8F"/>
<path d="M110.5 35.4551C110.5 35.4551 108.891 35.1996 108.691 35.1539C108.691 35.4003 109.009 35.9479 109.673 36.0574C110.1 36.1304 110.437 35.884 110.5 35.4551Z" fill="white"/>
<path d="M104.473 32.4069C104.364 33.0914 104.927 33.7485 105.382 33.8215C105.837 33.8945 105.991 33.356 106.109 32.6716C106.218 31.9871 105.946 31.3757 105.5 31.3026C105.055 31.2296 104.591 31.7224 104.482 32.3978L104.473 32.4069Z" fill="#ECB5BC"/>
<path d="M105.837 32.2974C105.891 32.0053 105.791 31.6951 105.528 31.5399C105.264 31.3848 104.764 31.4213 104.682 31.7681C104.637 31.9597 104.809 32.1879 105.018 32.1057C105.082 32.0784 105.128 32.0601 105.182 32.0145C105.2 31.9962 105.2 31.9871 105.218 31.9688C105.255 31.9506 105.291 31.9415 105.328 31.9506C105.464 31.9688 105.528 32.1331 105.537 32.2517C105.555 32.4069 105.8 32.4708 105.828 32.2883L105.837 32.2974Z" fill="#DC8D8F"/>
<path d="M105.437 31.768C105.191 31.9323 105.037 32.1605 104.937 32.4343C104.846 32.6807 105.073 32.9453 105.319 32.9453C105.582 32.9453 105.764 32.6898 105.7 32.4343C105.682 32.3521 105.673 32.3247 105.682 32.2244C105.682 32.1513 105.709 32.0783 105.737 32.0053C105.8 31.8319 105.573 31.6585 105.428 31.768H105.437Z" fill="#DC8D8F"/>
<path d="M52.2184 49.9657H66.5729C66.8184 49.9657 67.0002 49.701 66.9275 49.4272L65.6639 44.4991C65.6184 44.3166 65.4729 44.1979 65.3093 44.1979H53.482C53.3184 44.1979 53.1729 44.3166 53.1275 44.4991L51.8638 49.4272C51.7911 49.6919 51.9729 49.9657 52.2184 49.9657Z" fill="#010000"/>
<mask id="mask1_434_15786" style="mask-type:luminance" maskUnits="userSpaceOnUse" x="40" y="84" width="11" height="26">
<path d="M50.5638 84.2982H43.6456C42.0819 84.2982 40.8274 89.9929 40.8274 97.0109C40.8274 104.029 42.0819 109.724 43.6456 109.724H50.5638C49.0001 109.724 47.7456 104.029 47.7456 97.0109C47.7456 89.9929 49.0001 84.2982 50.5638 84.2982Z" fill="white"/>
</mask>
<g mask="url(#mask1_434_15786)">
<path d="M50.4728 84.3073H43.5547C43.5547 84.3073 43.5001 84.3073 43.4819 84.3256H50.4001C50.4001 84.3256 50.4547 84.3164 50.4728 84.3073Z" fill="#010000"/>
<path d="M50.4001 84.3256H43.482C43.482 84.3256 43.4274 84.3439 43.4001 84.353H50.3183C50.3183 84.353 50.3729 84.3347 50.4001 84.3256Z" fill="#010000"/>
<path d="M50.3184 84.3439H43.4002C43.4002 84.3439 43.3366 84.3713 43.3093 84.3895H50.2275C50.2275 84.3895 50.2911 84.3621 50.3184 84.3439Z" fill="#010000"/>
<path d="M50.2274 84.3895H43.3092C43.3092 84.3895 43.2455 84.426 43.2183 84.4442H50.1364C50.1364 84.4442 50.2001 84.4077 50.2274 84.3895Z" fill="#010000"/>
<path d="M50.1364 84.4442H43.2182C43.1728 84.4807 43.1182 84.5172 43.0728 84.5629H49.9909C50.0364 84.5172 50.0818 84.4807 50.1364 84.4442Z" fill="#010000"/>
<path d="M49.991 84.5629H43.0728C42.991 84.6359 42.9092 84.7363 42.8274 84.8458H49.7456C49.8274 84.7363 49.9092 84.645 49.991 84.5629Z" fill="#010000"/>
<path d="M49.7456 84.8458H42.8274C42.5638 85.2108 42.3183 85.7401 42.0911 86.4063H49.0092C49.2365 85.731 49.482 85.2017 49.7456 84.8458Z" fill="#010000"/>
<path d="M49.0091 86.4064H42.0909C41.8 87.2825 41.5455 88.3867 41.3455 89.6735H48.2636C48.4636 88.3867 48.7182 87.2734 49.0091 86.4064Z" fill="#010000"/>
<path d="M48.2637 89.6735H41.3455C41.1182 91.0972 40.9637 92.7399 40.8818 94.5195H47.8C47.8818 92.7399 48.0364 91.0972 48.2637 89.6735Z" fill="#010000"/>
<path d="M47.8001 94.5195H40.8819C40.8456 95.3226 40.8274 96.1622 40.8274 97.011C40.8274 97.9966 40.8547 98.9457 40.9001 99.8675H47.8183C47.7728 98.9457 47.7456 97.9966 47.7456 97.011C47.7456 96.1622 47.7638 95.3226 47.8001 94.5195Z" fill="#010000"/>
<path d="M47.8183 99.8674H40.9001C40.9729 101.273 41.0911 102.578 41.2547 103.764H48.1729C48.0092 102.578 47.882 101.273 47.8183 99.8674Z" fill="#010000"/>
<path d="M48.1728 103.764H41.2546C41.3728 104.622 41.5183 105.407 41.6728 106.11H48.591C48.4274 105.407 48.291 104.622 48.1728 103.764Z" fill="#010000"/>
<path d="M48.591 106.11H41.6729C41.7819 106.603 41.9092 107.059 42.0365 107.47H48.9547C48.8274 107.068 48.7001 106.612 48.591 106.11Z" fill="#010000"/>
<path d="M48.9546 107.47H42.0364C42.1364 107.771 42.2364 108.054 42.3364 108.3H49.2546C49.1455 108.054 49.0455 107.771 48.9546 107.47Z" fill="#010000"/>
<path d="M49.2636 108.3H42.3455C42.4273 108.492 42.5091 108.665 42.6 108.829H49.5182C49.4273 108.674 49.3455 108.501 49.2636 108.3Z" fill="#010000"/>
<path d="M49.5183 108.82H42.6001C42.6819 108.966 42.7637 109.094 42.8456 109.203H49.7637C49.6819 109.094 49.6001 108.966 49.5183 108.82Z" fill="#010000"/>
<path d="M49.7636 109.203H42.8455C43.1 109.541 43.3727 109.724 43.6545 109.724H50.5727C50.2909 109.724 50.0182 109.541 49.7636 109.203Z" fill="#010000"/>
</g>
<path d="M50.5638 84.2982C49.0001 84.2982 47.7456 89.9929 47.7456 97.0109C47.7456 104.029 49.0001 109.724 50.5638 109.724C52.1274 109.724 53.382 104.029 53.382 97.0109C53.382 89.9929 52.1183 84.2982 50.5638 84.2982Z" fill="#010000"/>
<mask id="mask2_434_15786" style="mask-type:luminance" maskUnits="userSpaceOnUse" x="8" y="84" width="12" height="30">
<path d="M19.1728 84.2982H11.3637C9.60007 84.2982 8.18188 90.723 8.18188 98.6536C8.18188 106.584 9.60007 113.009 11.3637 113.009H19.1728C17.4092 113.009 15.991 106.584 15.991 98.6536C15.991 90.723 17.4092 84.2982 19.1728 84.2982Z" fill="white"/>
</mask>
<g mask="url(#mask2_434_15786)">
<path d="M19.0638 84.3073H11.2547C11.2547 84.3073 11.2001 84.3164 11.1729 84.3256H18.9819C18.9819 84.3256 19.0365 84.3164 19.0638 84.3073Z" fill="#010000"/>
<path d="M18.9818 84.3256H11.1727C11.1727 84.3256 11.1182 84.3439 11.0818 84.353H18.8909C18.8909 84.353 18.9454 84.3347 18.9818 84.3256Z" fill="#010000"/>
<path d="M18.8911 84.353H11.082C11.082 84.353 11.0093 84.3803 10.9729 84.3986H18.782C18.782 84.3986 18.8547 84.3621 18.8911 84.353Z" fill="#010000"/>
<path d="M18.7909 84.3986H10.9818C10.9818 84.3986 10.9091 84.4351 10.8818 84.4625H18.6909C18.6909 84.4625 18.7637 84.4169 18.7909 84.3986Z" fill="#010000"/>
<path d="M18.682 84.4625H10.8729C10.8183 84.499 10.7638 84.5446 10.7092 84.5902H18.5183C18.5729 84.5446 18.6274 84.499 18.682 84.4625Z" fill="#010000"/>
<path d="M18.5274 84.5994H10.7183C10.6274 84.6906 10.5365 84.791 10.4456 84.9188H18.2546C18.3456 84.8001 18.4365 84.6906 18.5274 84.5994Z" fill="#010000"/>
<path d="M18.2455 84.9097H10.4364C10.1364 85.3203 9.85459 85.9135 9.60913 86.671H17.4182C17.6728 85.9135 17.9546 85.3112 18.2455 84.9097Z" fill="#010000"/>
<path d="M17.4182 86.6801H9.60913C9.28185 87.6657 8.99094 88.916 8.76367 90.3671H16.5728C16.8 88.916 17.0909 87.6566 17.4182 86.6801Z" fill="#010000"/>
<path d="M16.5729 90.3671H8.76379C8.50924 91.9733 8.32742 93.8351 8.24561 95.8337H16.0547C16.1456 93.8259 16.3274 91.9733 16.5729 90.3671Z" fill="#010000"/>
<path d="M16.0546 95.8428H8.24552C8.20916 96.7554 8.18188 97.6954 8.18188 98.6536C8.18188 99.7579 8.20916 100.844 8.2637 101.875H16.0728C16.0182 100.835 15.991 99.7579 15.991 98.6536C15.991 97.6954 16.0092 96.7554 16.0546 95.8428Z" fill="#010000"/>
<path d="M16.0728 101.875H8.26367C8.34549 103.454 8.48185 104.942 8.66367 106.274H16.4728C16.2909 104.942 16.1455 103.454 16.0728 101.875Z" fill="#010000"/>
<path d="M16.4729 106.274H8.66382C8.80018 107.241 8.95473 108.127 9.13655 108.921H16.9456C16.7638 108.127 16.6093 107.241 16.4729 106.274Z" fill="#010000"/>
<path d="M16.9456 108.921H9.13647C9.26375 109.477 9.40011 109.997 9.54557 110.454H17.3547C17.2092 109.997 17.0728 109.486 16.9456 108.921Z" fill="#010000"/>
</g>
<path d="M19.1728 113.009C20.9301 113.009 22.3546 106.582 22.3546 98.6536C22.3546 90.7254 20.9301 84.2982 19.1728 84.2982C17.4155 84.2982 15.991 90.7254 15.991 98.6536C15.991 106.582 17.4155 113.009 19.1728 113.009Z" fill="#010000"/>
<path d="M110.455 97.8597C110.455 97.8597 112.918 93.47 112.918 85.2565V73.2009C112.918 73.2009 111.373 68.4826 106.282 66.557C106.282 66.557 98.182 49.0439 83.4911 49.0439H51.5638C51.5638 49.0439 41.0365 49.5641 36.8729 51.8C32.7092 54.0268 20.9638 70.1436 20.9638 70.1436C20.9638 70.1436 10.0274 74.7341 8.7547 81.022C7.48197 87.3099 6.5547 98.7176 10.9547 105.005H102.582L110.446 97.8597H110.455Z" fill="#010000"/>
<path d="M23.9455 67.9168C23.9455 67.9168 24.1728 64.9052 22.5546 64.9052C20.9364 64.9052 15.2637 64.7774 15.2637 67.9168C15.2637 71.0562 22.2091 70.1436 22.2091 70.1436C22.2091 70.1436 23.9455 69.879 23.9455 67.9168Z" fill="#010000"/>
<mask id="mask3_434_15786" style="mask-type:luminance" maskUnits="userSpaceOnUse" x="97" y="84" width="11" height="26">
<path d="M107.182 84.2982H100.264C98.7001 84.2982 97.4456 89.9929 97.4456 97.0109C97.4456 104.029 98.7001 109.724 100.264 109.724H107.182C105.618 109.724 104.364 104.029 104.364 97.0109C104.364 89.9929 105.618 84.2982 107.182 84.2982Z" fill="white"/>
</mask>
<g mask="url(#mask3_434_15786)">
<path d="M107.082 84.3073H100.164C100.164 84.3073 100.109 84.3073 100.091 84.3256H107.009C107.009 84.3256 107.064 84.3164 107.082 84.3073Z" fill="#010000"/>
<path d="M107.009 84.3256H100.091C100.091 84.3256 100.037 84.3439 100.009 84.353H106.927C106.927 84.353 106.982 84.3347 107.009 84.3256Z" fill="#010000"/>
<path d="M106.927 84.3439H100.009C100.009 84.3439 99.9455 84.3713 99.9182 84.3895H106.836C106.836 84.3895 106.9 84.3621 106.927 84.3439Z" fill="#010000"/>
<path d="M106.836 84.3895H99.9183C99.9183 84.3895 99.8547 84.426 99.8274 84.4442H106.746C106.746 84.4442 106.809 84.4077 106.836 84.3895Z" fill="#010000"/>
<path d="M106.746 84.4442H99.8273C99.7819 84.4807 99.7273 84.5172 99.6819 84.5629H106.6C106.646 84.5172 106.691 84.4807 106.746 84.4442Z" fill="#010000"/>
<path d="M106.6 84.5629H99.682C99.6002 84.6359 99.5183 84.7363 99.4365 84.8458H106.355C106.437 84.7363 106.518 84.645 106.6 84.5629Z" fill="#010000"/>
<path d="M106.364 84.8458H99.4456C99.182 85.2108 98.9365 85.7401 98.7092 86.4063H105.627C105.855 85.731 106.1 85.2017 106.364 84.8458Z" fill="#010000"/>
<path d="M105.618 86.4064H98.7C98.4091 87.2825 98.1546 88.3867 97.9546 89.6735H104.873C105.073 88.3867 105.327 87.2734 105.618 86.4064Z" fill="#010000"/>
<path d="M104.873 89.6735H97.9546C97.7273 91.0972 97.5728 92.7399 97.491 94.5195H104.409C104.491 92.7399 104.646 91.0972 104.873 89.6735Z" fill="#010000"/>
<path d="M104.418 94.5195H97.5001C97.4637 95.3226 97.4456 96.1622 97.4456 97.011C97.4456 97.9966 97.4728 98.9457 97.5183 99.8675H104.436C104.391 98.9457 104.364 97.9966 104.364 97.011C104.364 96.1622 104.382 95.3226 104.418 94.5195Z" fill="#010000"/>
<path d="M104.436 99.8674H97.5183C97.591 101.273 97.7092 102.578 97.8729 103.764H104.791C104.627 102.578 104.5 101.273 104.436 99.8674Z" fill="#010000"/>
<path d="M104.791 103.764H97.8728C97.991 104.622 98.1364 105.407 98.291 106.11H105.209C105.046 105.407 104.909 104.622 104.791 103.764Z" fill="#010000"/>
<path d="M105.209 106.11H98.291C98.4001 106.603 98.5274 107.059 98.6546 107.47H105.573C105.446 107.068 105.318 106.612 105.209 106.11Z" fill="#010000"/>
<path d="M105.573 107.47H98.6545C98.7545 107.771 98.8545 108.054 98.9545 108.3H105.873C105.764 108.054 105.664 107.771 105.573 107.47Z" fill="#010000"/>
<path d="M105.873 108.3H98.9546C99.0364 108.492 99.1182 108.665 99.2091 108.829H106.127C106.036 108.674 105.955 108.501 105.873 108.3Z" fill="#010000"/>
<path d="M106.127 108.82H99.2092C99.291 108.966 99.3729 109.094 99.4547 109.203H106.373C106.291 109.094 106.209 108.966 106.127 108.82Z" fill="#010000"/>
<path d="M106.373 109.203H99.4546C99.7091 109.541 99.9819 109.724 100.264 109.724H107.182C106.9 109.724 106.627 109.541 106.373 109.203Z" fill="#010000"/>
</g>
<path d="M107.182 84.2982C105.618 84.2982 104.364 89.9929 104.364 97.0109C104.364 104.029 105.618 109.724 107.182 109.724C108.746 109.724 110 104.029 110 97.0109C110 89.9929 108.736 84.2982 107.182 84.2982Z" fill="#010000"/>
<path d="M107.182 90.2028C106.346 90.2028 105.673 93.251 105.673 97.0109C105.673 100.771 106.346 103.819 107.182 103.819C108.018 103.819 108.691 100.771 108.691 97.0109C108.691 93.251 108.009 90.2028 107.182 90.2028Z" fill="#E6EFFE"/>
<mask id="mask4_434_15786" style="mask-type:luminance" maskUnits="userSpaceOnUse" x="69" y="84" width="12" height="30">
<path d="M80.3273 84.2982H72.5182C70.7546 84.2982 69.3364 90.723 69.3364 98.6536C69.3364 106.584 70.7546 113.009 72.5182 113.009H80.3273C78.5637 113.009 77.1455 106.584 77.1455 98.6536C77.1455 90.723 78.5637 84.2982 80.3273 84.2982Z" fill="white"/>
</mask>
<g mask="url(#mask4_434_15786)">
<path d="M80.2181 84.3073H72.409C72.409 84.3073 72.3544 84.3164 72.3271 84.3256H80.1362C80.1362 84.3256 80.1908 84.3164 80.2181 84.3073Z" fill="#010000"/>
<path d="M80.1363 84.3256H72.3272C72.3272 84.3256 72.2727 84.3439 72.2363 84.353H80.0454C80.0454 84.353 80.1 84.3347 80.1363 84.3256Z" fill="#010000"/>
<path d="M80.0454 84.353H72.2363C72.2363 84.353 72.1636 84.3803 72.1272 84.3986H79.9363C79.9363 84.3986 80.009 84.3621 80.0454 84.353Z" fill="#010000"/>
<path d="M79.9362 84.3986H72.1271C72.1271 84.3986 72.0544 84.4351 72.0271 84.4625H79.8362C79.8362 84.4625 79.9089 84.4169 79.9362 84.3986Z" fill="#010000"/>
<path d="M79.8362 84.4625H72.0272C71.9726 84.499 71.9181 84.5446 71.8635 84.5902H79.6726C79.7272 84.5446 79.7817 84.499 79.8362 84.4625Z" fill="#010000"/>
<path d="M79.6726 84.5994H71.8636C71.7726 84.6906 71.6817 84.791 71.5908 84.9188H79.3999C79.4908 84.8001 79.5817 84.6906 79.6726 84.5994Z" fill="#010000"/>
<path d="M79.4 84.9097H71.5909C71.2909 85.3203 71.0091 85.9135 70.7637 86.671H78.5728C78.8273 85.9135 79.1091 85.3112 79.4 84.9097Z" fill="#010000"/>
<path d="M78.5635 86.6801H70.7544C70.4271 87.6657 70.1362 88.916 69.9089 90.3671H77.718C77.9453 88.916 78.2362 87.6566 78.5635 86.6801Z" fill="#010000"/>
<path d="M77.7272 90.3671H69.9181C69.6635 91.9733 69.4817 93.8351 69.3999 95.8337H77.209C77.2999 93.8259 77.4817 91.9733 77.7272 90.3671Z" fill="#010000"/>
<path d="M77.1999 95.8428H69.3908C69.3544 96.7554 69.3271 97.6954 69.3271 98.6536C69.3271 99.7579 69.3544 100.844 69.409 101.875H77.2181C77.1635 100.835 77.1362 99.7579 77.1362 98.6536C77.1362 97.6954 77.1544 96.7554 77.1999 95.8428Z" fill="#010000"/>
<path d="M77.218 101.875H69.4089C69.4908 103.454 69.6271 104.942 69.8089 106.274H77.618C77.4362 104.942 77.2908 103.454 77.218 101.875Z" fill="#010000"/>
<path d="M77.6272 106.274H69.8181C69.9545 107.241 70.109 108.127 70.2908 108.921H78.0999C77.9181 108.127 77.7636 107.241 77.6272 106.274Z" fill="#010000"/>
<path d="M78.0999 108.921H70.2908C70.418 109.477 70.5544 109.997 70.6999 110.454H78.509C78.3635 109.997 78.2271 109.486 78.0999 108.921Z" fill="#010000"/>
</g>
<path d="M80.3273 113.009C82.0846 113.009 83.5091 106.582 83.5091 98.6536C83.5091 90.7254 82.0846 84.2982 80.3273 84.2982C78.5701 84.2982 77.1455 90.7254 77.1455 98.6536C77.1455 106.582 78.5701 113.009 80.3273 113.009Z" fill="#010000"/>
<path d="M80.3274 106.338C81.2663 106.338 82.0274 102.898 82.0274 98.6536C82.0274 94.4098 81.2663 90.9694 80.3274 90.9694C79.3886 90.9694 78.6274 94.4098 78.6274 98.6536C78.6274 102.898 79.3886 106.338 80.3274 106.338Z" fill="#E6EFFE"/>
<path d="M88.2366 52.4115L94.9638 67.6339L103.082 66.4019C100.209 58.7542 94.0548 51.8548 88.2366 52.4115Z" fill="#E6EFFE"/>
<path d="M84.0912 69.2766L92.9457 67.9442L86.5366 52.5849C86.5366 52.5849 82.4639 52.6123 84.0912 69.2858V69.2766Z" fill="#E6EFFE"/>
<path d="M79.8547 52.3841H37.9729C37.9729 52.3841 31.2638 57.7685 22.3547 69.8242H79.8547V52.3841Z" fill="#E6EFFE"/>
<path d="M66.3366 81.2775L65.7729 86.6802H70.7548C70.7548 86.6802 69.8911 82.2083 69.0911 81.5513C68.9002 81.4052 67.8457 81.3231 66.3366 81.2866V81.2775Z" fill="#E6EFFE"/>
<path d="M49.7729 86.6802H64.7911L65.3639 81.2684C60.0093 81.1954 50.8184 81.4783 50.8184 81.4783L49.7729 86.6802Z" fill="#E6EFFE"/>
<path d="M9.09104 86.6802C9.09104 86.6802 9.04559 82.2083 9.85468 81.5513C10.6638 80.8942 23.2638 81.4782 23.2638 81.4782L21.9456 86.6802H9.10013H9.09104Z" fill="#E6EFFE"/>
<path d="M104.964 76.2398H105.446C105.782 76.2398 106.055 75.9295 106.055 75.5554C106.055 75.1721 105.782 74.8709 105.446 74.8709H104.964C104.627 74.8709 104.355 75.1812 104.355 75.5554C104.355 75.9387 104.627 76.2398 104.964 76.2398Z" fill="#E6EFFE"/>
<path d="M95.6274 77.7183H96.1092C96.4456 77.7183 96.7183 77.408 96.7183 77.0338C96.7183 76.6505 96.4456 76.3494 96.1092 76.3494H95.6274C95.291 76.3494 95.0183 76.6597 95.0183 77.0338C95.0183 77.4171 95.291 77.7183 95.6274 77.7183Z" fill="#E6EFFE"/>
<path d="M25.1184 82.2905H47.9002L48.073 81.4874H25.282L25.1184 82.2905Z" fill="#E6EFFE"/>
<path d="M24.7002 84.3074H47.482L47.6275 83.6047H24.8456L24.7002 84.3074Z" fill="#E6EFFE"/>
<path d="M24.2637 86.4611H47.0273L47.2 85.6215H24.4364L24.2637 86.4611Z" fill="#E6EFFE"/>
<path d="M85.4638 67.9168C85.4638 67.9168 85.2365 64.9052 86.8547 64.9052C88.4729 64.9052 94.1456 64.7774 94.1456 67.9168C94.1456 71.0562 87.2002 70.1436 87.2002 70.1436C87.2002 70.1436 85.4638 69.879 85.4638 67.9168Z" fill="#010000"/>
<path d="M82.7456 69.8516C82.7456 70.9193 83.1365 71.7863 83.6092 71.7863C84.082 71.7863 87.0183 70.9193 87.0183 69.8516C87.0183 68.7838 84.082 67.9168 83.6092 67.9168C83.1365 67.9168 82.7456 68.7838 82.7456 69.8516Z" fill="#010000"/>
</g>
<path d="M30.8818 39.2242C30.8818 42.7286 28.8636 45.8772 25.6636 48.0309C25.1636 48.3686 30.2818 54.0177 29.7273 54.3097C29.1 54.6383 22.7818 49.5824 22.0909 49.8379C20.0818 50.568 17.8273 50.9787 15.4455 50.9787C6.91818 50.9787 0 45.722 0 39.2242C0 32.7264 6.90909 27.4697 15.4455 27.4697C23.9818 27.4697 30.8909 32.7264 30.8909 39.2242H30.8818Z" fill="#F2D666"/>
<path d="M6.81817 34.7706H9.61817C11.3182 34.7706 12.1091 35.446 12.1091 36.6597C12.1091 37.472 11.7454 38.0287 10.8636 38.3116V38.3481C11.8091 38.5124 12.4091 39.0325 12.4091 40.1277C12.4091 41.3506 11.5909 42.2723 9.77272 42.2723H6.80908V34.7706H6.81817ZM9.30908 37.9374C10.0364 37.9374 10.5727 37.6727 10.5727 36.8879C10.5727 36.103 10.1545 35.8566 9.35454 35.8566H8.35454V37.9374H9.30908ZM9.50908 41.1589C10.3545 41.1589 10.8273 40.7848 10.8273 39.9999C10.8273 39.2151 10.3364 38.8957 9.45454 38.8957H8.35454V41.1589H9.50908Z" fill="black"/>
<path d="M13.3455 43.6869V42.7104C13.5182 42.7652 13.7273 42.7743 13.9182 42.7743C14.4273 42.7743 14.6364 42.6648 14.8455 42.1811L15.0455 41.6792L12.9182 36.5959H14.4182L15.7364 39.9178H15.7818L17.0364 36.5959H18.4091L16.3637 42.0716C15.9909 43.1576 15.3546 43.8512 14.2546 43.8512C13.9455 43.8512 13.5455 43.7873 13.3546 43.6778L13.3455 43.6869Z" fill="black"/>
<path d="M18.8726 39.498V39.352C18.8726 37.4811 19.9908 36.4955 21.5181 36.4955C23.2272 36.4955 23.9453 37.472 23.9453 39.279V39.7991H20.3272C20.4272 40.8943 21.009 41.2502 22.0363 41.2502C22.7363 41.2502 23.2635 41.0859 23.7453 40.876V41.816C23.3544 42.0807 22.6908 42.3362 21.709 42.3362C19.8181 42.3362 18.8635 41.2867 18.8635 39.4706L18.8726 39.498ZM20.3363 38.8865H22.5453C22.5453 37.8918 22.1817 37.5176 21.4908 37.5176C20.9817 37.5176 20.409 37.8096 20.3363 38.8865Z" fill="black"/>
</g>
<defs>
<clipPath id="clip0_434_15786">
<rect width="137" height="113" fill="white"/>
</clipPath>
</defs>
</svg>
