<svg width="430" height="932" viewBox="0 0 430 932" fill="none" xmlns="http://www.w3.org/2000/svg">
<rect width="430" height="932" fill="#254293"/>
<path opacity="0.8" d="M140.736 472.172V470.696H149.43V472.172H146.118C146.406 473.648 148.224 474.854 149.88 475.088L148.98 476.564C147.54 476.222 145.884 475.07 145.182 473.864C144.66 475.232 143.004 476.6 141.24 477.086L140.268 475.61C142.266 475.142 143.94 473.774 144.21 472.172H140.736ZM153.246 467.384V483.422H151.392V467.384H153.246ZM150.492 478.544L150.636 479.966C147.288 480.398 143.742 480.488 140.106 480.524L139.818 478.994C141.204 478.994 142.734 479.012 144.228 478.958V476.132H146.082V478.886C147.684 478.814 149.304 478.706 150.492 478.544ZM142.86 469.688V468.212H147.36V469.688H142.86ZM155.825 469.94V468.41H164.249V469.94H161.063V470.138C161.063 472.532 162.827 474.26 164.699 474.854L163.673 476.312C162.359 475.79 160.793 474.512 160.109 473.036C159.641 474.602 157.913 476.168 156.311 476.78L155.195 475.34C157.445 474.494 159.155 472.568 159.155 470.21V469.94H155.825ZM157.679 477.662H168.497V483.44H166.661V479.138H157.679V477.662ZM168.479 476.834H166.643V472.91H164.033V471.38H166.643V467.384H168.479V476.834ZM179.949 472.478C179.949 474.692 178.113 476.132 175.755 476.132C173.415 476.132 171.651 474.656 171.651 472.478C171.651 470.264 173.433 468.644 175.755 468.644C178.131 468.644 179.949 470.228 179.949 472.478ZM178.095 472.46C178.095 471.074 177.051 470.228 175.755 470.228C174.513 470.228 173.451 471.128 173.451 472.46C173.451 473.738 174.531 474.566 175.755 474.566C177.015 474.566 178.095 473.738 178.095 472.46ZM184.107 467.384V483.422H182.271V467.384H184.107ZM181.371 477.842L181.515 479.318C178.077 479.696 174.621 479.858 170.859 479.876L170.571 478.292C172.281 478.31 174.027 478.31 175.899 478.202C178.185 478.112 179.985 477.986 181.371 477.842ZM204.05 480.254C204.05 482.18 202.034 483.422 198.542 483.422C195.086 483.422 193.106 482.18 193.106 480.254C193.106 478.292 195.086 477.05 198.542 477.05C202.034 477.05 204.05 478.292 204.05 480.254ZM198.902 468.518C198.686 472.82 195.968 475.502 191.774 476.888L190.766 475.394C193.736 474.692 196.292 472.802 196.85 470.048H191.54V468.518H198.902ZM203.924 476.924H202.07V474.872H198.92V473.378H202.07V471.686H199.136V470.192H202.07V467.384H203.924V476.924ZM202.142 480.254C202.142 479.192 200.828 478.562 198.542 478.562C196.328 478.562 194.996 479.192 194.996 480.254C194.996 481.298 196.328 481.928 198.542 481.928C200.828 481.928 202.142 481.298 202.142 480.254ZM219.228 477.23H214.278V479.912H220.632V481.388H206.142V479.912H212.442V477.23H207.996V472.046H216.924V469.976H207.942V468.5H218.76V473.54H209.85V475.736H219.228V477.23ZM238.774 474.188H228.01V467.888H229.864V469.67H236.938V467.87H238.774V474.188ZM234.436 479.966H232.582V477.14H226.156V475.646H240.646V477.14H234.436V479.966ZM238.972 482.954H228.028V478.508H229.882V481.496H238.972V482.954ZM236.938 472.694V471.11H229.864V472.694H236.938ZM244.017 477.554H254.817V483.44H252.981V479.03H244.017V477.554ZM254.799 476.744H252.963V472.316H250.029V470.804H252.963V467.384H254.799V476.744ZM251.055 474.53L249.993 475.97C248.679 475.412 247.041 474.08 246.339 472.55C245.853 474.224 244.233 475.664 242.577 476.402L241.443 474.926C243.729 474.026 245.385 472.1 245.385 469.634V468.05H247.275V469.544C247.275 472.046 249.237 473.918 251.055 474.53ZM274.417 480.488C274.417 482.288 272.365 483.422 268.855 483.422C265.345 483.422 263.293 482.288 263.293 480.488C263.293 478.868 264.967 477.788 267.901 477.59V476.222H261.601V474.746H276.091V476.222H269.737V477.59C272.707 477.752 274.417 478.868 274.417 480.488ZM275.335 472.442L274.525 473.882C272.131 473.594 269.719 472.244 268.855 470.696C268.081 472.352 265.831 473.594 263.185 473.882L262.375 472.442C264.913 472.262 267.307 471.128 267.811 469.346H263.095V467.852H274.633V469.346H269.935C270.511 471.128 273.175 472.298 275.335 472.442ZM272.509 480.488C272.509 479.552 271.069 479.03 268.837 479.03C266.605 479.03 265.183 479.552 265.183 480.488C265.183 481.46 266.605 481.928 268.837 481.928C271.087 481.928 272.509 481.46 272.509 480.488ZM277.752 481.442V479.498H279.732V481.442H277.752ZM282.108 481.442V479.498H284.088V481.442H282.108ZM286.464 481.442V479.498H288.444V481.442H286.464Z" fill="white"/>
<path d="M215 445C223.206 445 230 438.191 230 430C230 421.794 223.191 415 214.985 415C206.794 415 200 421.794 200 430C200 438.191 206.809 445 215 445Z" stroke="white" stroke-width="5" stroke-linecap="round" stroke-linejoin="round" stroke-dasharray="0.1 10"/>
</svg>
