<svg width="40" height="60" viewBox="0 0 40 60" fill="none" xmlns="http://www.w3.org/2000/svg">
<path fill-rule="evenodd" clip-rule="evenodd" d="M1.88391 28.766C6.63524 39.9263 20.0575 60 20.0575 60C20.0575 60 35.6097 35.6476 38.7936 27.1805H38.7723C39.5664 25.0042 40 22.6519 40 20.1972C40 9.04261 31.0457 0 20 0C8.9543 0 0 9.04261 0 20.1972C0 23.2606 0.675353 26.1648 1.88391 28.766Z" fill="#E90000"/>
<path fill-rule="evenodd" clip-rule="evenodd" d="M20 34C27.732 34 34 27.9558 34 20.5C34 13.0442 27.732 7 20 7C12.268 7 6 13.0442 6 20.5C6 27.9558 12.268 34 20 34Z" fill="white"/>
<path d="M19.106 25.949H10.695V23.245H17.143V22.725H10.695V21.607H13.958V21.048H9.51195V19.917H19.977V21.048H15.479V21.607H18.651V24.298H12.229V24.831H19.106V25.949ZM19.522 18.422L18.937 19.618C17.234 19.501 15.427 18.89 14.738 17.98C14.075 18.903 12.385 19.527 10.539 19.618L9.92795 18.422C11.696 18.435 13.23 17.954 13.776 17.252H10.539V16.108H18.937V17.252H15.739C16.324 17.954 17.897 18.409 19.522 18.422ZM12.814 15.666V14.522H16.662V15.666H12.814ZM26.792 19.904H21.319V14.886H22.814V16.342H25.271V14.86H26.792V19.904ZM25.271 18.721V17.538H22.814V18.721H25.271ZM31.706 18.071H30.081V20.32H28.534V14.444H30.081V16.823H31.706V18.071ZM30.406 25.936H22.515V22.868H28.534V22.127H22.424V20.918H30.081V23.986H24.023V24.714H30.406V25.936Z" fill="#E90000"/>
</svg>
