<svg width="120" height="102" viewBox="0 0 120 102" fill="none" xmlns="http://www.w3.org/2000/svg">
<mask id="mask0_429_12448" style="mask-type:luminance" maskUnits="userSpaceOnUse" x="0" y="0" width="120" height="102">
<path d="M50.7567 101.065C72.5468 102.476 111.53 85.8848 116.018 79.2062C127.858 61.5814 107.278 35.2199 92.1688 29.3898C79.4376 24.4753 43.0339 -10.1526 25.1934 2.9358C-5.53792 25.4834 0.083973 38.1181 1.39491 55.4321C3.68064 85.7336 32.4456 99.8804 50.7651 101.065H50.7567Z" fill="white"/>
</mask>
<g mask="url(#mask0_429_12448)">
<path d="M97.7742 46.0737H110.018C110.228 46.0737 110.379 45.872 110.32 45.6704L109.236 41.9573C109.194 41.8229 109.077 41.7305 108.934 41.7305H98.8498C98.7069 41.7305 98.5893 41.8229 98.5473 41.9573L97.4632 45.6704C97.4044 45.872 97.5557 46.0737 97.7658 46.0737H97.7742Z" fill="#010000"/>
<mask id="mask1_429_12448" style="mask-type:luminance" maskUnits="userSpaceOnUse" x="88" y="71" width="9" height="21">
<path d="M96.3619 71.9228H90.4627C89.135 71.9228 88.0593 76.2072 88.0593 81.4912C88.0593 86.7753 89.135 91.0597 90.4627 91.0597H96.3619C95.0342 91.0597 93.9585 86.7753 93.9585 81.4912C93.9585 76.2072 95.0342 71.9228 96.3619 71.9228Z" fill="white"/>
</mask>
<g mask="url(#mask1_429_12448)">
<path d="M96.2858 71.9228H90.3866C90.3866 71.9228 90.3445 71.9228 90.3193 71.9312H96.2186C96.2186 71.9312 96.2606 71.9228 96.2858 71.9228Z" fill="#010000"/>
<path d="M96.2189 71.9396H90.3197C90.3197 71.9396 90.2777 71.948 90.2524 71.9564H96.1517C96.1517 71.9564 96.1937 71.9396 96.2189 71.9396Z" fill="#010000"/>
<path d="M96.1516 71.9564H90.2524C90.2524 71.9564 90.202 71.9732 90.1768 71.99H96.076C96.076 71.99 96.1264 71.9648 96.1516 71.9564Z" fill="#010000"/>
<path d="M96.0764 71.99H90.1772C90.1772 71.99 90.1268 72.0152 90.1016 72.032H96.0008C96.0008 72.032 96.0512 71.9984 96.0764 71.99Z" fill="#010000"/>
<path d="M95.9921 72.032H90.0928C90.0928 72.032 90.0088 72.0824 89.9668 72.116H95.866C95.866 72.116 95.95 72.0572 95.9921 72.032Z" fill="#010000"/>
<path d="M95.8742 72.116H89.975C89.9078 72.1748 89.8321 72.242 89.7649 72.326H95.6641C95.7313 72.242 95.7986 72.1748 95.8742 72.116Z" fill="#010000"/>
<path d="M95.6642 72.3259H89.765C89.5381 72.5948 89.328 72.998 89.1348 73.502H95.034C95.2273 72.998 95.4373 72.5948 95.6642 72.3259Z" fill="#010000"/>
<path d="M95.034 73.5021H89.1348C88.8826 74.1574 88.6726 74.9975 88.4961 75.9636H94.3953C94.5634 74.9975 94.7819 74.1574 95.034 73.5021Z" fill="#010000"/>
<path d="M94.3955 75.9636H88.4963C88.303 77.0389 88.1685 78.2738 88.1013 79.6095H94.0005C94.0678 78.2738 94.2022 77.0389 94.3955 75.9636Z" fill="#010000"/>
<path d="M94.0086 79.6179H88.1094C88.0758 80.2227 88.0674 80.8528 88.0674 81.4912C88.0674 82.2305 88.0842 82.953 88.1262 83.6418H94.0254C93.9834 82.953 93.9666 82.2305 93.9666 81.4912C93.9666 80.8528 93.9834 80.2227 94.0086 79.6179Z" fill="#010000"/>
<path d="M94.0174 83.6418H88.1182C88.177 84.7003 88.2862 85.6832 88.4207 86.5737H94.3199C94.177 85.6832 94.0762 84.6919 94.0174 83.6418Z" fill="#010000"/>
<path d="M94.3282 86.5737H88.429C88.5298 87.2206 88.6475 87.8086 88.7903 88.3379H94.6895C94.5551 87.8086 94.4374 87.2206 94.3282 86.5737Z" fill="#010000"/>
<path d="M94.681 88.3378H88.7817C88.8742 88.7075 88.9834 89.0519 89.0927 89.3543H94.9919C94.8826 89.0519 94.7734 88.7075 94.681 88.3378Z" fill="#010000"/>
<path d="M94.992 89.3543H89.0928C89.1768 89.5811 89.2608 89.7911 89.3533 89.976H95.2525C95.16 89.7911 95.076 89.5811 94.992 89.3543Z" fill="#010000"/>
<path d="M95.2527 89.9844H89.3535C89.4207 90.1272 89.4964 90.2617 89.572 90.3793H95.4712C95.3956 90.2617 95.3283 90.1272 95.2527 89.9844Z" fill="#010000"/>
<path d="M95.471 90.3792H89.5718C89.639 90.4884 89.7062 90.5808 89.7819 90.6648H95.6811C95.6139 90.5808 95.5382 90.4884 95.471 90.3792Z" fill="#010000"/>
<path d="M95.681 90.6648H89.7817C90.0002 90.9252 90.2271 91.0596 90.4708 91.0596H96.37C96.1347 91.0596 95.8994 90.9252 95.681 90.6648Z" fill="#010000"/>
</g>
<path d="M96.3616 71.9228C95.0339 71.9228 93.9583 76.2072 93.9583 81.4912C93.9583 86.7753 95.0339 91.0597 96.3616 91.0597C97.6894 91.0597 98.765 86.7753 98.765 81.4912C98.765 76.2072 97.6894 71.9228 96.3616 71.9228Z" fill="#010000"/>
<mask id="mask2_429_12448" style="mask-type:luminance" maskUnits="userSpaceOnUse" x="60" y="71" width="10" height="23">
<path d="M69.5883 71.923H62.9328C61.4286 71.923 60.2185 76.7619 60.2185 82.7264C60.2185 88.6909 61.4286 93.5298 62.9328 93.5298H69.5883C68.0841 93.5298 66.874 88.6909 66.874 82.7264C66.874 76.7619 68.0841 71.923 69.5883 71.923Z" fill="white"/>
</mask>
<g mask="url(#mask2_429_12448)">
<path d="M69.4956 71.9227H62.84C62.84 71.9227 62.7896 71.9227 62.7644 71.9395H69.4199C69.4199 71.9395 69.4703 71.9311 69.4956 71.9227Z" fill="#010000"/>
<path d="M69.4282 71.9395H62.7726C62.7726 71.9395 62.7222 71.9563 62.697 71.9647H69.3525C69.3525 71.9647 69.403 71.9479 69.4282 71.9395Z" fill="#010000"/>
<path d="M69.3527 71.9563H62.6972C62.6972 71.9563 62.6384 71.9815 62.6047 71.9899H69.2603C69.2603 71.9899 69.3191 71.9647 69.3527 71.9563Z" fill="#010000"/>
<path d="M69.2602 71.9984H62.6046C62.6046 71.9984 62.5458 72.032 62.5122 72.0488H69.1677C69.1677 72.0488 69.2266 72.0152 69.2602 71.9984Z" fill="#010000"/>
<path d="M69.1677 72.0486H62.5121C62.4617 72.0738 62.4197 72.1074 62.3777 72.1494H69.0332C69.0752 72.1158 69.1256 72.0822 69.1677 72.0486Z" fill="#010000"/>
<path d="M69.0336 72.1411H62.3781C62.3025 72.2083 62.2185 72.2839 62.1428 72.3763H68.7983C68.874 72.2839 68.9496 72.2083 69.0336 72.1411Z" fill="#010000"/>
<path d="M68.7979 72.3847H62.1424C61.8903 72.6871 61.6466 73.1408 61.4365 73.712H68.092C68.3105 73.1408 68.5458 72.6871 68.7979 72.3847Z" fill="#010000"/>
<path d="M68.0921 73.712H61.4366C61.1592 74.4513 60.9155 75.4006 60.7139 76.4927H67.3694C67.5627 75.4006 67.8064 74.4513 68.0921 73.712Z" fill="#010000"/>
<path d="M67.3695 76.4843H60.7139C60.4955 77.694 60.3442 79.0885 60.2686 80.6007H66.9241C66.9997 79.0885 67.151 77.694 67.3695 76.4843Z" fill="#010000"/>
<path d="M66.9242 80.609H60.2687C60.2351 81.2895 60.2183 82.0035 60.2183 82.726C60.2183 83.5577 60.2435 84.3725 60.2855 85.1538H66.941C66.899 84.3725 66.8738 83.5577 66.8738 82.726C66.8738 82.0035 66.8906 81.2979 66.9242 80.609Z" fill="#010000"/>
<path d="M66.9412 85.1454H60.2856C60.3529 86.3383 60.4705 87.4556 60.6302 88.4553H67.2857C67.126 87.4472 67.0084 86.3383 66.9412 85.1454Z" fill="#010000"/>
<path d="M67.2857 88.4637H60.6301C60.7478 89.1946 60.8822 89.8583 61.0335 90.4547H67.689C67.5378 89.8583 67.4033 89.1862 67.2857 88.4637Z" fill="#010000"/>
<path d="M67.6887 90.4547H61.0332C61.1424 90.8747 61.2601 91.2612 61.3861 91.6056H68.0417C67.9156 91.2612 67.798 90.8747 67.6887 90.4547Z" fill="#010000"/>
<path d="M68.0417 91.6057H61.3862C61.4787 91.8661 61.5795 92.1013 61.6803 92.3113H68.3359C68.235 92.1013 68.1342 91.8661 68.0417 91.6057Z" fill="#010000"/>
<path d="M68.3359 92.3113H61.6804C61.7561 92.4793 61.8401 92.6221 61.9241 92.7565H68.5796C68.4956 92.6221 68.4116 92.4709 68.3359 92.3113Z" fill="#010000"/>
<path d="M68.5796 92.7565H61.9241C61.9997 92.8741 62.0753 92.9833 62.1594 93.0758H68.8149C68.7393 92.9833 68.6552 92.8741 68.5796 92.7565Z" fill="#010000"/>
<path d="M68.8149 93.0757H62.1594C62.4031 93.3614 62.6636 93.521 62.9325 93.521H69.5881C69.3192 93.521 69.0586 93.3614 68.8149 93.0757Z" fill="#010000"/>
</g>
<path d="M69.5883 93.521C71.0874 93.521 72.3026 88.6842 72.3026 82.7177C72.3026 76.7511 71.0874 71.9143 69.5883 71.9143C68.0893 71.9143 66.874 76.7511 66.874 82.7177C66.874 88.6842 68.0893 93.521 69.5883 93.521Z" fill="#010000"/>
<path d="M147.439 82.1297C147.439 82.1297 149.539 78.8282 149.539 72.6452V63.5724C149.539 63.5724 148.22 60.0189 143.884 58.5739C143.884 58.5739 136.976 45.3848 124.447 45.3848H97.2112C97.2112 45.3848 88.228 45.7796 84.6817 47.4598C81.1271 49.1399 71.1186 61.2706 71.1186 61.2706C71.1186 61.2706 61.7908 64.7233 60.7067 69.4613C59.6227 74.1993 58.8328 82.7765 62.5807 87.5145H140.733L147.439 82.138V82.1297Z" fill="#010000"/>
<path d="M73.6559 59.5905C73.6559 59.5905 73.8491 57.3223 72.471 57.3223C71.0928 57.3223 66.2524 57.2215 66.2524 59.5905C66.2524 61.9595 72.1769 61.2706 72.1769 61.2706C72.1769 61.2706 73.6559 61.0774 73.6559 59.5905Z" fill="#010000"/>
<mask id="mask3_429_12448" style="mask-type:luminance" maskUnits="userSpaceOnUse" x="112" y="71" width="10" height="23">
<path d="M121.748 71.9232H115.093C113.589 71.9232 112.379 76.7621 112.379 82.7266C112.379 88.6911 113.589 93.5299 115.093 93.5299H121.748C120.244 93.5299 119.034 88.6911 119.034 82.7266C119.034 76.7621 120.244 71.9232 121.748 71.9232Z" fill="white"/>
</mask>
<g mask="url(#mask3_429_12448)">
<path d="M121.656 71.9227H115.001C115.001 71.9227 114.95 71.9227 114.925 71.9395H121.581C121.581 71.9395 121.631 71.9311 121.656 71.9227Z" fill="#010000"/>
<path d="M121.581 71.9395H114.925C114.925 71.9395 114.875 71.9563 114.85 71.9647H121.505C121.505 71.9647 121.556 71.9479 121.581 71.9395Z" fill="#010000"/>
<path d="M121.505 71.9563H114.85C114.85 71.9563 114.791 71.9815 114.757 71.9899H121.413C121.413 71.9899 121.471 71.9647 121.505 71.9563Z" fill="#010000"/>
<path d="M121.421 71.9984H114.766C114.766 71.9984 114.707 72.032 114.673 72.0488H121.329C121.329 72.0488 121.387 72.0152 121.421 71.9984Z" fill="#010000"/>
<path d="M121.329 72.0486H114.673C114.623 72.0738 114.581 72.1074 114.539 72.1494H121.194C121.236 72.1158 121.287 72.0822 121.329 72.0486Z" fill="#010000"/>
<path d="M121.194 72.1411H114.539C114.463 72.2083 114.379 72.2839 114.303 72.3763H120.959C121.035 72.2839 121.11 72.2083 121.194 72.1411Z" fill="#010000"/>
<path d="M120.959 72.3847H114.304C114.051 72.6871 113.808 73.1408 113.598 73.712H120.253C120.472 73.1408 120.707 72.6871 120.959 72.3847Z" fill="#010000"/>
<path d="M120.245 73.712H113.589C113.312 74.4513 113.068 75.4006 112.866 76.4927H119.522C119.715 75.4006 119.959 74.4513 120.245 73.712Z" fill="#010000"/>
<path d="M119.53 76.4843H112.875C112.656 77.694 112.505 79.0885 112.429 80.6007H119.085C119.161 79.0885 119.312 77.694 119.53 76.4843Z" fill="#010000"/>
<path d="M119.085 80.6091H112.429C112.396 81.2895 112.379 82.0036 112.379 82.7261C112.379 83.5577 112.404 84.3726 112.446 85.1539H119.102C119.06 84.3726 119.034 83.5577 119.034 82.7261C119.034 82.0036 119.051 81.2979 119.085 80.6091Z" fill="#010000"/>
<path d="M119.102 85.1454H112.446C112.514 86.3384 112.631 87.4557 112.791 88.4553H119.446C119.287 87.4473 119.169 86.3384 119.102 85.1454Z" fill="#010000"/>
<path d="M119.447 88.4638H112.791C112.909 89.1947 113.043 89.8583 113.194 90.4548H119.85C119.699 89.8583 119.564 89.1863 119.447 88.4638Z" fill="#010000"/>
<path d="M119.85 90.4548H113.194C113.303 90.8748 113.421 91.2612 113.547 91.6057H120.203C120.077 91.2612 119.959 90.8748 119.85 90.4548Z" fill="#010000"/>
<path d="M120.203 91.6057H113.547C113.64 91.8661 113.74 92.1013 113.841 92.3113H120.497C120.396 92.1013 120.295 91.8661 120.203 91.6057Z" fill="#010000"/>
<path d="M120.489 92.3113H113.833C113.909 92.4793 113.993 92.6221 114.077 92.7565H120.732C120.648 92.6221 120.564 92.4709 120.489 92.3113Z" fill="#010000"/>
<path d="M120.74 92.7565H114.085C114.161 92.8741 114.236 92.9833 114.32 93.0758H120.976C120.9 92.9833 120.816 92.8741 120.74 92.7565Z" fill="#010000"/>
<path d="M120.967 93.0758H114.312C114.555 93.3614 114.816 93.521 115.085 93.521H121.74C121.471 93.521 121.211 93.3614 120.967 93.0758Z" fill="#010000"/>
</g>
<path d="M121.748 93.521C123.247 93.521 124.463 88.6842 124.463 82.7177C124.463 76.7511 123.247 71.9143 121.748 71.9143C120.249 71.9143 119.034 76.7511 119.034 82.7177C119.034 88.6842 120.249 93.521 121.748 93.521Z" fill="#010000"/>
<path d="M121.345 47.8966H85.6224C85.6224 47.8966 79.8997 51.9458 72.303 61.0186H121.345V47.8966Z" fill="#E6EFFE"/>
<path d="M109.816 69.6462L109.337 73.7122H113.589C113.589 73.7122 112.858 70.3435 112.169 69.8479C112.009 69.7386 111.11 69.6798 109.816 69.6462Z" fill="#E6EFFE"/>
<path d="M95.6899 73.7121H108.497L108.984 69.6378C104.413 69.5874 96.5807 69.7974 96.5807 69.7974L95.6899 73.7121Z" fill="#E6EFFE"/>
<path d="M60.9922 73.7121C60.9922 73.7121 60.9502 70.3434 61.6393 69.8562C62.3283 69.3605 73.0763 69.8058 73.0763 69.8058L71.9503 73.7205H60.9922V73.7121Z" fill="#E6EFFE"/>
<path d="M74.6562 70.4106H94.085L94.2363 69.7973H74.7991L74.6562 70.4106Z" fill="#E6EFFE"/>
<path d="M74.303 71.9228H93.7317L93.8578 71.4019H74.4206L74.303 71.9228Z" fill="#E6EFFE"/>
<path d="M73.9333 73.5441H93.3453L93.4965 72.9141H74.0762L73.9333 73.5441Z" fill="#E6EFFE"/>
<path d="M15.0843 76.5348C13.1011 78.9038 15.0843 137.474 15.0843 137.474H27.9248C27.9248 137.474 31.8828 104.072 32.6055 103.132L30.9584 137.474H39.6812L44.3619 77.7193C44.3619 77.7193 17.2944 73.8969 15.0843 76.5348Z" fill="#010000"/>
<path d="M48.3115 64.8158C52.4628 66.4708 57.7569 56.0287 60.0679 49.6441C60.0679 49.6441 58.0175 49.5181 56.9334 47.1323C53.2611 54.7937 50.009 57.734 50.009 57.734C49.2779 57.3476 42.7316 46.3594 41.3955 45.2169C39.7232 43.7888 35.8996 43.1083 36.0425 46.8634C36.1433 49.5853 43.8409 63.0349 48.3199 64.8242L48.3115 64.8158Z" fill="#ECB5BC"/>
<path d="M50.5549 55.9614C50.7062 57.9272 53.3281 60.2122 54.9919 61.2875C55.597 60.4054 56.4373 59.2209 57.0004 57.5575C55.0508 56.205 54.3281 55.5834 52.4793 54.1384C52.0591 54.5501 50.8827 55.3649 50.5549 55.9614Z" fill="#F2D666"/>
<path d="M51.9751 55.2725C51.2608 55.5077 50.412 56.6082 49.7734 57.0114C47.5801 54.3904 42.2523 44.8723 40.4119 44.0659C38.8237 43.3686 36.8321 43.587 35.3867 44.5951C32.4623 46.6281 45.6137 65.1433 47.3196 65.7566C50.5129 66.9075 55.5465 60.5481 55.5213 59.2208C55.328 59.414 51.9667 55.2725 51.9667 55.2725H51.9751Z" fill="#F2D666"/>
<path d="M50.5383 56.7007C51.5803 58.4984 52.8996 60.0862 54.4879 61.4303C54.7484 61.6487 55.0509 61.2623 54.7736 61.0607C53.1349 59.8425 51.74 58.364 50.6055 56.6671C50.5803 56.6251 50.5131 56.6671 50.5383 56.7091V56.7007Z" fill="#EDB25A"/>
<path d="M49.555 56.9863C48.1516 59.1033 47.5634 61.5227 47.8491 64.0429C47.8743 64.2445 48.1937 64.2445 48.1685 64.0429C47.8407 61.5563 48.3533 59.1873 49.6979 57.0619C49.7483 56.9779 49.6138 56.9023 49.5634 56.9863H49.555Z" fill="#EDB25A"/>
<path d="M49.5468 56.8938C48.3115 57.4903 47.009 58.742 46.8409 60.1701C46.8241 60.3213 47.0678 60.3885 47.135 60.2457C47.4208 59.6325 47.614 59.0192 48.0342 58.4648C48.4712 57.8851 49.0258 57.4315 49.6729 57.087C49.8073 57.0114 49.6897 56.8182 49.5552 56.8854L49.5468 56.8938Z" fill="#EDB25A"/>
<path d="M48.8323 58.2548C48.5466 60.1702 48.1012 62.5308 49.1684 64.2866C49.2357 64.4042 49.4205 64.3286 49.3869 64.1942C48.8575 62.1444 48.8155 60.3802 49.0676 58.2884C49.0844 58.154 48.8575 58.1288 48.8323 58.2548Z" fill="#EDB25A"/>
<path d="M55.0843 59.7753C55.0843 60.0022 54.8994 60.187 54.6725 60.187C54.4456 60.187 54.2607 60.0022 54.2607 59.7753C54.2607 59.5485 54.4456 59.3637 54.6725 59.3637C54.8994 59.3637 55.0843 59.5485 55.0843 59.7753Z" fill="#EDB25A"/>
<path d="M55.765 58.6328C55.9925 58.6328 56.1768 58.4485 56.1768 58.2212C56.1768 57.9938 55.9925 57.8095 55.765 57.8095C55.5376 57.8095 55.3533 57.9938 55.3533 58.2212C55.3533 58.4485 55.5376 58.6328 55.765 58.6328Z" fill="#EDB25A"/>
<path d="M24.9917 42.8142L37.4708 54.6257L36.9498 41.1425L36.975 30.986L27.2186 29.3646L24.9917 42.8142Z" fill="#ECB5BC"/>
<path d="M37.249 36.0372L26.4132 34.2439L29.5315 15.4137L46.0878 18.1537L43.9165 31.2652C43.3936 34.4229 40.4077 36.5599 37.249 36.0372Z" fill="#ECB5BC"/>
<path d="M37.0005 35.8332C34.6727 35.1443 33.1937 33.4137 31.5803 31.7084C31.2441 31.3556 30.6979 31.91 31.0509 32.2376C32.8324 33.8926 34.4711 35.5727 36.9165 36.1356C37.1097 36.1776 37.1938 35.892 37.0005 35.8332Z" fill="#DC8D8F"/>
<path d="M43.5551 25.4835C43.4542 26.0967 43.5467 26.6176 43.7568 26.6596C43.9668 26.6932 44.2274 26.2227 44.3282 25.6179C44.429 25.0046 44.3366 24.4838 44.1265 24.4418C43.9164 24.4082 43.6559 24.8786 43.5551 25.4835Z" fill="#010000"/>
<path d="M38.8073 24.6938C38.7064 25.307 38.7989 25.8279 39.009 25.8699C39.219 25.9035 39.4795 25.4414 39.5804 24.8282C39.6812 24.2149 39.5888 23.6941 39.3787 23.6521C39.1686 23.6185 38.9081 24.0889 38.8073 24.6938Z" fill="#010000"/>
<path d="M42.1432 25.1475C41.6642 26.8024 41.3028 29.1294 42.2356 30.692C42.4373 31.028 43.0423 30.9104 43.0087 30.482C42.9415 29.6839 42.6137 28.9278 42.4877 28.1297C42.328 27.1469 42.2692 26.1724 42.3448 25.1727C42.3532 25.0635 42.1852 25.0383 42.1516 25.1475H42.1432Z" fill="#DC8D8F"/>
<path d="M42.6558 31.8093C42.6558 31.8093 39.0591 31.238 38.5969 31.1372C38.5969 31.6917 39.3112 32.9098 40.7986 33.1534C41.7566 33.313 42.5129 32.767 42.6558 31.8093Z" fill="white"/>
<path d="M27.5634 13.9828C28.4374 11.9078 30.1517 9.87479 32.2945 9.40435C35.5047 8.70709 39.6055 10.2024 42.0761 11.9666C44.782 13.8988 49.1098 15.6713 52.1098 13.2855C51.53 17.3011 49.0174 19.4348 45.177 20.3673C40.9921 21.3754 38.1097 20.8798 34.1517 19.5021C34.0004 21.6442 34.5215 23.82 34.9836 25.8866C34.4962 25.9202 33.4122 26.105 32.9752 25.8362C32.0508 25.2734 31.7651 23.2488 31.5214 22.3163C29.8912 24.5593 27.2189 29.3729 27.2189 29.3729C27.2189 29.0705 23.3953 20.5101 23.681 18.5108C24.4289 13.2771 28.0424 14.092 27.5634 13.9828Z" fill="#010000"/>
<path d="M29.3952 24.0805C29.1431 25.601 30.412 27.0796 31.4205 27.2392C32.4289 27.4072 32.7902 26.1975 33.0423 24.677C33.2944 23.1564 32.681 21.7871 31.6726 21.6275C30.6641 21.4595 29.6473 22.56 29.3952 24.0805Z" fill="#ECB5BC"/>
<path d="M32.2608 23.7529C32.3112 23.2236 32.0927 22.6692 31.6053 22.4171C31.1767 22.1987 30.496 22.2575 30.2355 22.7028C30.1179 22.9044 30.37 23.2152 30.5885 23.0556C30.8574 22.8456 31.1011 22.6692 31.454 22.8204C31.807 22.9716 31.9834 23.3832 31.9918 23.7613C31.9918 23.9377 32.2523 23.9377 32.2692 23.7613L32.2608 23.7529Z" fill="#DC8D8F"/>
<path d="M31.6557 22.9295C31.3448 23.232 30.4877 24.4753 31.1767 24.7777C31.5045 24.9205 31.6641 24.5509 31.6641 24.2905C31.6641 23.8788 31.7482 23.5176 31.9667 23.1648C32.0843 22.9715 31.8154 22.7699 31.6557 22.9295Z" fill="#DC8D8F"/>
<path d="M62.5217 32.5653L63.1352 33.019C63.1352 33.019 63.0595 32.977 63.0175 32.977L62.4041 32.5233C62.4461 32.5233 62.4881 32.5401 62.5217 32.5653Z" fill="#E06666"/>
<path d="M49.2273 48.8124L48.6138 48.3587C48.5382 48.2999 48.5046 48.1907 48.555 48.0731L49.1684 48.5268C49.118 48.6444 49.1516 48.7536 49.2273 48.8124Z" fill="#E06666"/>
<path d="M55.6309 32.9517L55.009 32.4981L62.3957 32.5233L63.0175 32.977L55.6309 32.9517Z" fill="#FC86A0"/>
<path d="M49.1684 48.5352L48.5549 48.0815L54.7483 32.6913L55.3701 33.145L49.1684 48.5352Z" fill="#B44452"/>
<path d="M55.3703 33.145L54.7568 32.6913C54.7989 32.5737 54.9081 32.4981 55.0173 32.4981L55.6308 32.9517C55.5215 32.9517 55.4123 33.0274 55.3703 33.145Z" fill="#E06666"/>
<path d="M55.6306 32.9517L63.0172 32.9769C63.1685 32.9769 63.2693 33.1449 63.2021 33.3046L57.0087 48.6863C56.9667 48.8039 56.8575 48.8795 56.7398 48.8795L49.3616 48.8543C49.2019 48.8543 49.1011 48.6947 49.1767 48.5351L55.3785 33.1449C55.4205 33.0273 55.5297 32.9517 55.639 32.9517H55.6306Z" fill="#E06666"/>
<path d="M62.0847 34.5227C61.967 34.8839 61.6561 35.1611 61.3788 35.1443C61.1015 35.1275 60.967 34.8251 61.0847 34.4639C61.2023 34.1026 61.5133 33.8254 61.7906 33.8422C62.0679 33.859 62.2023 34.1614 62.0847 34.5227Z" fill="white"/>
<path d="M61.9253 34.5144C61.8497 34.758 61.6396 34.9428 61.4547 34.9344C61.2698 34.926 61.1774 34.716 61.253 34.4808C61.3287 34.2456 61.5387 34.0523 61.7236 34.0607C61.9085 34.0692 62.0009 34.2792 61.9253 34.5144Z" fill="#010000"/>
<path d="M60.6899 34.4219C60.6563 34.5227 60.5722 34.5983 60.4966 34.5899C60.421 34.5899 60.3874 34.5059 60.4126 34.4051C60.4378 34.3043 60.5302 34.2287 60.6058 34.2371C60.6815 34.2371 60.7151 34.3211 60.6899 34.4219Z" fill="white"/>
<path d="M60.0677 49.6439C60.4039 47.8378 61.5299 44.1414 60.6224 42.5201C59.5719 40.6383 57.303 38.7146 57.0425 38.8826C56.74 39.269 57.8576 40.4031 58.4207 41.2516C59.0761 42.2345 59.4879 43.0325 59.5971 43.461C58.4711 41.302 56.6139 39.5462 56.4543 39.6891C55.7568 40.2855 58.3618 42.5453 58.6476 44.0574C57.7064 42.6293 56.2106 40.4115 55.698 40.4955C55.1097 41.0248 57.2778 43.9482 57.7064 44.6623C56.9921 43.8138 55.4543 41.1844 54.8912 41.5204C54.4458 41.8564 56.0593 43.9734 56.3786 45.0235C56.4459 45.2503 56.7988 46.5693 56.4963 48.1738C56.2274 49.6019 54.6643 51.5677 53.7231 52.9454C56.0761 54.844 59.1686 51.2905 60.0677 49.6439Z" fill="#ECB5BC"/>
<path d="M12.0421 43.2427C14.5883 39.8152 25.496 39.8152 25.496 39.8152C39.1936 57.7676 36.9582 41.1425 36.9582 41.1425C37.6977 42.9991 42.7986 46.3762 43.7314 48.0143C44.1096 48.678 42.4625 83.1379 42.0003 83.6083C41.6978 83.9191 30.8826 86.8678 16.8572 82.2222C16.4455 79.1139 10.1681 51.0974 12.0505 43.2427H12.0421Z" fill="#145187"/>
<path d="M31.2945 48.6947C31.1096 47.5522 24.5129 40.1931 24.2524 39.3447C21.5381 38.9414 11.6893 40.1511 10.9414 45.1748C10.1851 50.2572 11.0927 62.5223 11.6893 71.8556C12.4204 83.2386 11.7061 91.5553 11.6893 93.3783C15.5381 94.8316 22.7482 94.6468 29.5214 93.7479C32.0508 68.6549 31.2945 54.5584 31.2945 48.6863V48.6947Z" fill="#F2D666"/>
<path d="M20.6892 76.1567C19.8741 78.2065 19.0505 80.2899 17.8656 82.1632C16.9329 83.6334 15.2438 84.7843 14.5631 86.33C14.437 86.6156 14.6387 86.918 14.9665 86.8508C16.6808 86.4812 17.7984 84.3978 18.5547 82.9529C19.664 80.8359 20.3362 78.5257 21.0001 76.2407C21.0589 76.0391 20.7732 75.9719 20.6976 76.1567H20.6892Z" fill="#EDB25A"/>
<path d="M31.0089 68.4365C31.0089 68.8313 30.6895 69.1589 30.2862 69.1589C29.8828 69.1589 29.5635 68.8397 29.5635 68.4365C29.5635 68.0332 29.8828 67.714 30.2862 67.714C30.6895 67.714 31.0089 68.0332 31.0089 68.4365Z" fill="#EDB25A"/>
<path d="M30.5213 77.5428C30.5213 77.9376 30.202 78.2652 29.7986 78.2652C29.3953 78.2652 29.0759 77.946 29.0759 77.5428C29.0759 77.1395 29.3953 76.8203 29.7986 76.8203C30.202 76.8203 30.5213 77.1395 30.5213 77.5428Z" fill="#EDB25A"/>
<path d="M29.8829 87.17C29.8829 87.5649 29.5636 87.8925 29.1602 87.8925C28.7568 87.8925 28.4375 87.5733 28.4375 87.17C28.4375 86.7668 28.7568 86.4476 29.1602 86.4476C29.5636 86.4476 29.8829 86.7668 29.8829 87.17Z" fill="#EDB25A"/>
<path d="M29.5044 45.5023C29.5548 54.4995 29.0506 63.564 28.4371 72.536C27.9581 79.559 26.6388 86.9936 27.1094 94.0251C27.1262 94.2351 27.4623 94.3107 27.4959 94.0755C28.538 87.2457 28.5212 80.0294 28.9833 73.124C29.6052 63.8916 29.7144 54.7516 29.5884 45.5023C29.5884 45.4519 29.5044 45.4519 29.5044 45.5023Z" fill="#EDB25A"/>
<path d="M39.0086 42.4194C38.3279 44.1751 37.7649 45.9897 37.2859 47.7958C37.2859 47.7958 39.1935 44.6624 39.1935 94.4536C41.3279 93.8067 43.7229 94.378 44.37 92.5802C45.6473 89.0267 45.6809 54.0712 45.0843 47.6446C45.0086 46.7877 40.6305 43.8139 39.0086 42.4109V42.4194Z" fill="#F2D666"/>
<path d="M38.1853 44.2172C40.3029 51.5931 40.5382 59.5738 40.824 67.2017C41.1685 76.1821 41.1517 85.1793 41.1349 94.1681C41.1349 94.4705 41.6055 94.4705 41.6055 94.1681C41.5887 84.7424 41.5803 75.3084 41.1517 65.8912C40.824 58.6665 40.5214 51.1226 38.4878 44.1248C38.429 43.9316 38.1265 44.0156 38.1853 44.2088V44.2172Z" fill="#EDB25A"/>
<path d="M39.513 67.7309C39.8071 67.6973 40.1012 67.6637 40.3953 67.6301C40.6306 67.6049 40.5718 67.2604 40.3533 67.3192C40.0676 67.4033 39.7819 67.4873 39.4962 67.5713C39.4121 67.5965 39.4289 67.7393 39.513 67.7225V67.7309Z" fill="#EDB25A"/>
<path d="M39.5131 77.3162C39.9081 77.2909 40.3115 77.2657 40.7064 77.2321C40.8577 77.2237 40.8577 76.9801 40.7064 76.9969C40.3115 77.0473 39.9081 77.1061 39.5131 77.1565C39.4123 77.1733 39.4123 77.3246 39.5131 77.3162Z" fill="#EDB25A"/>
<path d="M39.5131 86.6493L40.7064 86.5653C40.8577 86.5569 40.8577 86.3133 40.7064 86.3301L39.5131 86.4897C39.4123 86.5065 39.4123 86.6577 39.5131 86.6493Z" fill="#EDB25A"/>
<path d="M44.9668 47.6531C45.2525 53.0212 44.9668 58.406 45.2609 63.7657C45.2777 64.0261 45.6306 64.0177 45.6559 63.7657C46.2273 58.5237 45.597 52.8952 45.2021 47.6531C45.1937 47.5019 44.9584 47.5019 44.9668 47.6531Z" fill="#EDB25A"/>
<path d="M45.3281 44.8976C46.5214 43.0494 48.4794 39.3783 50.5971 38.7062C53.0593 37.9249 56.6139 38.1013 56.7064 38.4626C56.6559 39.0422 54.74 39.1262 53.5635 39.3951C52.1853 39.7143 51.1769 40.0755 50.7231 40.3612C53.4795 39.3951 56.5383 39.3867 56.5635 39.6387C56.6812 40.7308 52.5551 40.5628 51.0677 41.6549C53.0509 41.176 56.1854 40.4704 56.5635 40.9576C56.6475 41.8985 52.3534 42.6798 51.3954 42.9402C52.7063 42.789 56.2106 41.7473 56.4291 42.5117C56.5467 43.167 53.4038 43.6962 52.2526 44.3515C51.782 44.6203 48.9164 49.3668 46.8323 49.6776C43.2273 49.4088 42.2945 49.2155 45.3281 44.8892V44.8976Z" fill="#ECB5BC"/>
<path d="M28.698 63.4717C32.614 65.6139 42.6561 55.4154 47.5301 49.4508C47.5301 49.4508 44.5721 49.9549 43.7821 47.4515C37.2863 54.1469 31.2358 56.6419 31.2358 56.6419C30.5551 56.1714 20.8239 45.6369 19.6391 44.3516C18.1517 42.7302 14.2189 42.4362 13.8995 46.183C13.6726 48.8964 24.4626 61.1615 28.698 63.4801V63.4717Z" fill="#ECB5BC"/>
<path d="M35.9419 53.7183C35.9419 53.7183 33.6477 55.0456 31.5805 56.2301C29.6897 54.13 20.261 38.3365 13.824 43.2426C9.26095 46.7205 27.051 63.9504 28.8746 64.5217C31.9166 65.4626 38.7654 59.1872 38.7654 59.1872C39.6058 57.2382 37.1688 56.0789 35.9419 53.7267V53.7183Z" fill="#F2D666"/>
<path d="M38.4121 51.6266C39.3953 52.7103 41.2525 55.995 41.6558 56.6922C41.6558 56.6922 39.8155 59.0865 38.7903 60.0609C36.5549 58.5572 35.7062 56.121 34.9751 53.6092C35.9247 52.9035 36.6978 52.3154 38.4121 51.635V51.6266Z" fill="#F2D666"/>
<path d="M34.8492 54.4072C35.0593 55.4825 35.387 56.5242 35.8744 57.5071C36.2862 58.3304 36.8156 59.4225 37.6391 59.8929C37.866 60.0189 38.0509 59.7753 37.9585 59.5737C37.5971 58.7168 36.824 58.0447 36.3618 57.2215C35.8408 56.3058 35.4795 55.3229 35.2274 54.3064C35.1685 54.0544 34.7988 54.1636 34.8492 54.4072Z" fill="#EDB25A"/>
<path d="M14.4206 48.7199C16.3366 52.7186 18.6812 56.3982 21.8325 59.5316C24.0762 61.7662 26.8325 64.9753 30.2779 64.8913C30.5384 64.8913 30.6057 64.4965 30.3368 64.4293C26.488 63.4632 23.9669 60.5145 21.2863 57.7843C18.6056 55.054 16.4123 52.0046 14.5467 48.6443C14.4963 48.5519 14.3702 48.6359 14.4122 48.7199H14.4206Z" fill="#EDB25A"/>
<path d="M21.8742 44.2087C25.017 47.6446 27.3196 51.9122 30.5885 55.1885C30.7146 55.3145 30.9247 55.1549 30.8322 54.9953C28.5885 50.9881 24.807 47.7034 21.9246 44.1499C21.891 44.1079 21.8321 44.1667 21.8657 44.2087H21.8742Z" fill="#EDB25A"/>
<path d="M31.5637 55.9614C30.5805 57.5576 28.7065 60.4054 29.8241 62.2704C29.9166 62.43 30.2107 62.3712 30.1939 62.1696C29.9838 60.019 30.8578 57.9944 31.841 56.121C31.9334 55.9446 31.6729 55.785 31.5721 55.9614H31.5637Z" fill="#EDB25A"/>
<path d="M30.5301 57.4147C29.0175 58.0363 27.8074 59.162 27.0931 60.6406C26.9503 60.943 27.3956 61.1362 27.5217 60.8254C28.1183 59.3972 29.2192 58.2883 30.6142 57.6331C30.7318 57.5743 30.6478 57.3643 30.5217 57.4147H30.5301Z" fill="#EDB25A"/>
<path d="M17.4626 53.2396C19.7147 54.9365 23.3366 55.0541 26.0593 55.2474C26.3198 55.2642 26.387 54.8273 26.1181 54.7853C23.3281 54.3485 19.9332 54.8105 17.4962 53.1724C17.4541 53.1472 17.4205 53.2144 17.4541 53.2396H17.4626Z" fill="#EDB25A"/>
<path d="M39.4707 58.5824C39.4707 58.8092 39.2859 58.9941 39.059 58.9941C38.8321 58.9941 38.6472 58.8092 38.6472 58.5824C38.6472 58.3556 38.8321 58.1708 39.059 58.1708C39.2859 58.1708 39.4707 58.3556 39.4707 58.5824Z" fill="#EDB25A"/>
<path d="M40.5804 57.0282C40.5804 57.255 40.3955 57.4399 40.1686 57.4399C39.9417 57.4399 39.7568 57.255 39.7568 57.0282C39.7568 56.8014 39.9417 56.6166 40.1686 56.6166C40.3955 56.6166 40.5804 56.8014 40.5804 57.0282Z" fill="#EDB25A"/>
<path d="M25.8908 37.3957C25.958 37.6814 31.8152 44.9984 32.6136 46.1241C32.6136 46.1241 31.3194 49.0728 30.0421 50.2657C26.8236 48.8544 22.9328 40.5208 23.1177 39.2775C24.5799 38.5214 25.5883 37.2529 25.8992 37.3957H25.8908Z" fill="#F2D666"/>
<path d="M23.5548 39.6639C24.6136 42.6126 25.7228 45.9645 27.4792 48.5855C28.9329 50.7613 29.5884 49.5012 31.2019 47.9134C31.3111 47.8042 31.1515 47.6446 31.0338 47.7454C30.6557 48.0731 30.2607 48.5267 29.8321 48.7787C28.8321 49.3752 28.4792 49.2408 27.8573 48.3587C27.3111 47.5774 26.8909 46.6869 26.4623 45.8385C25.4455 43.8055 24.5295 41.7305 23.6976 39.6135C23.664 39.5211 23.5127 39.5547 23.5463 39.6555L23.5548 39.6639Z" fill="#EDB25A"/>
<path d="M36.958 40.1259C36.2185 42.1757 35.7143 43.9651 35.1765 46.0652C35.1765 46.0652 36.5547 47.5606 37.7396 48.3923C38.8236 47.2077 39.0505 41.6128 39.0505 41.6128C39.0505 41.6128 38.2186 40.3107 36.9496 40.1343L36.958 40.1259Z" fill="#F2D666"/>
<path d="M38.7484 42.5706C38.7736 43.6879 38.6139 44.8136 38.5215 45.9309C38.4963 46.2753 38.5803 47.4179 38.219 47.6195C38.177 47.6447 37.2358 47.3254 37.0677 47.3002C36.7904 47.2666 36.698 47.6951 36.9249 47.8127C37.5299 48.1319 38.7148 48.6444 38.8997 47.6783C39.0341 47.0062 38.8745 46.1913 38.8576 45.5109C38.8324 44.5364 38.7568 43.5451 38.824 42.5706C38.824 42.5202 38.74 42.5118 38.74 42.5706H38.7484Z" fill="#EDB25A"/>
<path d="M-9.45386 80.7351C-11.7312 82.8353 -14.9497 132.45 -14.9497 132.45L-2.18489 134.097C-2.18489 134.097 3.98323 103.753 4.00004 104.946C4.08407 112.524 4.05046 135.483 4.05046 135.483L16.1934 137.138L16.1514 85.9604C16.1514 85.9604 -6.91603 78.3997 -9.45386 80.7435V80.7351Z" fill="#145187"/>
<path d="M8.0841 86.5401C7.68073 89.0603 7.98326 89.2031 5.98324 88.9931C4.45381 88.8335 2.83195 88.3126 1.32774 87.9682C-2.6807 87.0441 -6.68914 86.0024 -10.4791 84.3979C-10.7564 84.2803 -10.8825 84.7339 -10.6051 84.8515C-4.90761 87.2374 1.32774 88.6403 7.42023 89.5812C7.47905 89.5896 7.55468 89.5812 7.57989 89.514C8.00006 88.5227 8.10931 87.6238 8.23536 86.5485C8.24376 86.4645 8.0925 86.4393 8.0841 86.5317V86.5401Z" fill="#023D66"/>
<path d="M16.1432 88.6487C13.1851 89.1023 10.5549 89.3207 7.58846 89.0351C7.36997 89.0099 7.31955 89.3795 7.53804 89.4215C10.4456 90.018 13.3532 89.4467 16.2356 88.9511C16.4373 88.9175 16.3532 88.6151 16.1516 88.6487H16.1432Z" fill="#023D66"/>
<path d="M6.96636 89.4299C6.64703 91.5805 6.5882 93.7731 6.36131 95.9404C6.20165 97.4106 6.44535 102.552 4.21844 102.762C4.00835 102.779 3.92431 103.039 4.10919 103.165C5.14281 103.862 6.30249 101.443 6.48736 100.762C6.92434 99.1327 6.8151 97.1418 6.94115 95.4616C7.08401 93.4706 7.32771 91.4208 7.04199 89.4299C7.04199 89.3963 6.97476 89.3963 6.96636 89.4299Z" fill="#023D66"/>
<path d="M5.21022 89.1359C4.98333 94.672 4.05054 100.082 3.63037 105.585C3.61356 105.761 3.89088 105.795 3.9413 105.627C5.33627 100.368 5.54636 94.5376 5.32787 89.1359C5.32787 89.0603 5.21022 89.0603 5.21022 89.1359Z" fill="#023D66"/>
<path d="M5.18527 87.7917C5.12644 88.1614 5.37855 88.5058 5.7567 88.5646C6.12645 88.6234 6.47099 88.3714 6.52982 87.9934C6.58864 87.6237 6.33654 87.2793 5.95838 87.2205C5.58023 87.1617 5.24409 87.4137 5.18527 87.7917Z" fill="#F2D666"/>
<path d="M17.2271 50.9545C17.4456 48.5435 7.30261 44.8219 -6.00003 43.419C-6.4118 43.377 -13.4791 47.0649 -12.8236 57.8851C-12.8236 57.8851 -16.4455 77.5008 -15.9749 78.7778C-14.5295 82.6673 8.48749 86.1452 12.8573 84.9187C14.0422 84.5827 17.2271 50.9545 17.2271 50.9545Z" fill="#010000"/>
<path d="M46.4543 48.7534C46.782 49.0895 50.7064 42.0328 51.9417 42.8057C52.614 43.2258 48.9165 47.4933 49.0509 47.9722C49.5551 47.821 53.4627 42.3353 53.9501 42.9485C54.5216 43.671 50.0846 48.6694 50.2694 49.0559C50.7568 49.1987 53.8829 44.0238 54.5468 44.6287C55.051 45.2503 51.3535 49.6523 51.5972 50.064C51.9753 50.316 54.1854 47.3253 54.6896 47.7538C55.0762 48.157 51.4375 52.8866 49.261 54.2307C46.6392 55.7261 44.5383 56.4569 44.5887 52.1221C44.5383 51.6433 44.5215 51.1897 44.5299 50.7696C45.261 50.1732 45.9585 49.3499 46.4291 48.4594C46.4039 48.5938 46.4039 48.6946 46.4459 48.745L46.4543 48.7534Z" fill="#ECB5BC"/>
<path d="M33.0759 64.9501C38.7398 64.0008 46.5802 57.9103 48.7146 54.9448C48.7146 54.9448 45.8827 54.0291 44.16 52.6514C41.1263 54.5752 35.4036 56.2889 31.5632 56.7089C27.0086 57.213 15.748 51.9793 14.2774 52.1221C12.7143 52.2733 12.2521 60.0776 12.9244 60.8337C14.4538 62.5391 29.0674 65.6221 33.0675 64.9501H33.0759Z" fill="#E06666"/>
<path d="M45.9585 57.4735C45.0762 56.3142 43.9753 54.8692 42.6392 54.2308C42.4459 54.1384 42.2358 54.3736 42.4039 54.5416C42.9417 55.0877 43.6224 55.4741 44.219 55.9613C44.8157 56.4486 45.3703 56.9694 45.9081 57.5239C45.9417 57.5575 46.0006 57.5155 45.9669 57.4735H45.9585Z" fill="#B44452"/>
<path d="M46.6305 45.326C46.9079 44.8639 47.4709 45.4604 47.0507 46.6869C46.7734 47.4934 46.8322 48.9047 46.1936 50.8117C45.723 51.7021 45.2692 50.1816 44.5381 50.778C44.6053 47.6698 46.1095 46.1996 46.6389 45.326H46.6305Z" fill="#ECB5BC"/>
<path d="M4.50439 50.9545L17.1684 62.4971L15.5213 51.1141L16.9583 41.9405L8.37838 39.1262L4.50439 50.9545Z" fill="#ECB5BC"/>
<path d="M15.5209 51.1141C15.5209 51.1141 16.3529 58.8848 14.6638 58.6243C9.51249 57.8347 5.6385 47.4849 5.6385 47.4849C5.6385 47.4849 -1.77332 47.3001 -3.03384 49.0475C-4.96663 51.7189 -2.17669 62.5643 -3.02544 66.6891C-3.9162 71.0322 -11.9583 82.0456 -10.2608 82.6505C-7.00866 83.8098 9.99148 89.1359 16.6386 86.414C16.6386 86.414 14.9495 76.8204 15.6386 72.368C16.3025 68.0752 19.8739 65.8322 20.0252 64.3957C20.2521 62.3039 19.8151 57.5742 18.4958 53.7855C18.1764 52.8782 15.5125 51.1225 15.5125 51.1225L15.5209 51.1141Z" fill="#E06666"/>
<path d="M13.0676 72.5191C10.1684 72.1999 6.92466 71.9983 4.08429 72.7543C3.79017 72.8299 3.8406 73.3088 4.15993 73.292C7.17676 73.1576 10.0339 72.7795 13.076 73.0652C13.4289 73.0988 13.4205 72.5527 13.076 72.5107L13.0676 72.5191Z" fill="#B44452"/>
<path d="M12.9076 25.6682C13.7227 24.2821 13.6387 21.8375 13.479 20.317C12.9412 15.2093 8.87397 10.1604 3.62182 9.39598C-0.638723 8.77432 -3.22698 12.227 -6.03373 14.7557C-8.31106 16.8138 -11.7817 19.3257 -15.0842 18.7376C-10.0422 22.6608 -7.39508 26.3991 -0.470654 23.1648C1.76466 22.1231 14.874 19.0988 9.13447 28.7009C8.479 29.793 12.1933 26.9031 12.9076 25.6682Z" fill="#F2D666"/>
<path d="M13.723 20.7285C12.2356 20.6361 9.43724 22.3582 9.37842 22.7699L10.0423 23.4167C10.5045 23.6016 13.5213 22.1902 14.2776 21.7786C14.1852 21.4678 14.0003 21.1989 13.723 20.7201V20.7285Z" fill="#E06666"/>
<path d="M16.0261 46.3835L6.97126 43.4143L12.4059 26.851L26.9703 31.6268L23.3455 42.6743C22.3476 45.7155 19.0709 47.373 16.0287 46.3755L16.0261 46.3835Z" fill="#ECB5BC"/>
<path d="M16.3277 46.3257C14.3277 45.3848 13.2437 43.6206 12.0336 41.8649C11.7311 41.4281 11.1092 41.8901 11.4453 42.3185C12.8235 44.0491 14.0756 45.7712 16.2101 46.6113C16.3782 46.6785 16.4958 46.4013 16.3277 46.3257Z" fill="#DC8D8F"/>
<path d="M23.6641 37.8913C23.4877 38.429 23.4961 38.9162 23.6809 38.975C23.8658 39.0338 24.1599 38.6474 24.3364 38.1098C24.5129 37.5721 24.5045 37.0849 24.3196 37.0261C24.1347 36.9672 23.8406 37.3537 23.6641 37.8913Z" fill="#010000"/>
<path d="M24.3194 37.026L24.79 37.1856L24.1765 37.4544L24.3194 37.026Z" fill="#010000"/>
<path d="M19.4876 36.5219C19.3111 37.0596 19.3195 37.5468 19.5044 37.6056C19.6893 37.6644 19.9834 37.278 20.1599 36.7404C20.3364 36.2027 20.328 35.7155 20.1431 35.6567C19.9582 35.5979 19.6641 35.9843 19.4876 36.5219Z" fill="#010000"/>
<path d="M20.1429 35.6567L20.6135 35.8163L20 36.0851L20.1429 35.6567Z" fill="#010000"/>
<path d="M22.4373 37.3789C21.7483 38.8406 21.076 40.9072 21.7483 42.4781C21.9247 42.8982 22.4878 42.6294 22.5214 42.2681C22.5886 41.5205 22.3785 40.756 22.3701 39.9915C22.3701 39.1262 22.4289 38.2946 22.6222 37.4461C22.6474 37.3453 22.4962 37.2613 22.4457 37.3705L22.4373 37.3789Z" fill="#DC8D8F"/>
<path d="M21.975 43.4778C21.975 43.4778 18.8154 42.4613 18.4036 42.3101C18.3196 42.8141 18.7985 44.007 20.1095 44.4354C20.9582 44.7127 21.7145 44.3262 21.9666 43.4778H21.975Z" fill="white"/>
<path d="M23.1177 29.3982C22.8992 31.0195 18.9328 31.5404 17.7227 31.9184C15.084 32.7501 12.7226 34.0522 11.605 36.732C10.3024 39.8403 11.21 43.3434 12.3865 46.2501C9.67218 44.6035 8.22679 42.3017 7.99989 39.1347C7.69737 34.9343 9.16797 31.868 12.0251 28.8185C14.1512 26.5503 16.1092 25.5086 19.126 24.845C21.2101 24.3829 23.7479 24.4418 24.2942 27.004" fill="#F2D666"/>
<path d="M19.042 24.072C18.3865 27.97 21.1932 31.4731 23.2269 33.6405C26.9244 37.572 25.7899 43.0577 22.9664 47.2413C25.4286 46.5188 27.1849 43.5366 28.2437 41.3776C29.7731 38.2777 29.8404 34.5982 29.1345 31.2883C28.3614 27.676 26.3613 24.1812 22.6722 22.9715C20.1008 22.1315 18.3445 24.3997 19.042 24.072Z" fill="#F2D666"/>
<path d="M26.0002 25.0382C17.1262 16.4526 8.37819 23.5596 7.03364 26.3991C5.14286 30.3727 4.78992 37.5721 7.87398 40.6888C11.3362 28.6253 26.0002 25.0382 26.0002 25.0382Z" fill="#F2D666"/>
<path d="M10.7396 35.4803C10.3027 36.816 11.2439 38.3282 12.1262 38.6138C13.0086 38.9078 13.5044 37.8661 13.9414 36.5304C14.3783 35.1947 14.017 33.8758 13.1346 33.5817C12.2523 33.2877 11.1766 34.1362 10.7396 35.4719V35.4803Z" fill="#ECB5BC"/>
<path d="M13.3782 35.5979C13.5043 35.1274 13.395 34.573 12.9833 34.2705C12.6051 33.9849 11.9496 33.9513 11.6471 34.363C11.4791 34.5898 11.79 34.8166 12.0001 34.7158C12.2606 34.5814 12.4791 34.4638 12.7732 34.6402C13.0673 34.8166 13.1597 35.203 13.1177 35.5223C13.0925 35.6903 13.3362 35.7743 13.3866 35.5979H13.3782Z" fill="#DC8D8F"/>
<path d="M12.9412 34.7327C12.5295 35.0183 11.8404 35.7323 12.1177 36.2784C12.2101 36.4632 12.479 36.48 12.6219 36.3456C12.8068 36.1608 12.7732 35.9256 12.8404 35.6903C12.9076 35.4551 13.0253 35.2367 13.1765 35.0519C13.311 34.8923 13.1345 34.6066 12.9412 34.7411V34.7327Z" fill="#DC8D8F"/>
<path d="M0.109428 47.6782C2.30272 48.1738 5.04224 51.4081 4.83216 55.2725C4.60526 59.3888 1.31112 61.783 -3.25195 64.4041C-3.80657 64.7233 -3.54607 66.2354 -3.10909 66.2186C1.79852 65.9582 8.63891 59.1452 6.94982 52.643C5.53805 47.2077 2.87416 47.1825 2.65567 47.1657C1.47078 47.0649 0.151443 47.1657 0.101022 47.6866L0.109428 47.6782Z" fill="#010000"/>
<path d="M15.5466 51.1812C17.7399 51.6768 20.2442 60.5228 20.0341 64.3788C20.0341 64.3788 21.303 61.9342 20.866 59.918C20.4374 57.969 18.5887 50.8368 15.5466 51.1728V51.1812Z" fill="#010000"/>
<path d="M-23.9331 83.0454C-24.8827 84.1207 -18.4372 87.439 -18.4372 87.439C-18.1263 86.7501 -0.21018 64.9166 2.9243 55.743C3.47893 54.13 -1.29422 48.1403 -2.32784 48.4847C-4.68921 49.2744 -14.4456 72.242 -23.9331 83.037V83.0454Z" fill="#E06666"/>
<path d="M-1.31957 48.8208C3.54602 51.8619 1.73088 56.9191 0.327507 61.2875C0.251876 61.5143 0.562803 61.6067 0.688855 61.4387C3.54602 57.5072 3.29392 51.1562 -1.1599 48.552C-1.33637 48.4512 -1.48763 48.72 -1.31957 48.8208Z" fill="#B44452"/>
<path d="M57.2859 50.9378C56.1766 51.4334 52.8068 60.0358 53.0926 62.7744C53.2774 64.4966 61.2859 66.9244 63.3027 66.5716C63.1599 63.7237 60.8741 62.22 60.5296 57.2971C60.2775 53.71 60.5464 50.7781 60.3951 50.2489L57.2943 50.9294L57.2859 50.9378Z" fill="#010000"/>
<path d="M74.6311 78.0469C79.7152 76.3668 85.5555 70.419 87.1018 67.3864C87.1018 67.3864 85.3202 66.8655 83.5303 65.8406C81.0093 68.0416 75.8076 72.5192 72.3285 73.4517C68.2025 74.5606 56.8074 70.0158 55.4712 70.3518C54.0511 70.7131 54.7401 77.9713 55.4712 78.5594C57.1267 79.9203 71.0344 79.223 74.6227 78.0385L74.6311 78.0469Z" fill="#ECB5BC"/>
<path d="M84.3119 59.5149C84.5052 59.0528 85.1019 59.5149 84.8918 60.7078C84.6985 61.7831 84.4548 62.5643 84.6313 62.6988C84.9842 62.9676 87.5893 55.911 88.8414 56.4486C89.5221 56.7426 86.7237 61.195 86.9086 61.6151C87.354 61.405 90.1691 55.8017 90.7069 56.2974C91.3372 56.877 87.959 62.1191 88.1859 62.4467C88.6565 62.5139 90.7994 57.2971 91.4969 57.7675C92.0431 58.2632 89.2699 62.8416 89.5557 63.1944C89.9422 63.3708 91.5473 60.3045 92.0767 60.6238C92.4885 60.9346 89.8078 65.807 87.9926 67.3528C85.7909 69.1001 83.959 70.0662 83.3959 66.0759C82.438 62.4047 83.9002 60.5146 84.3119 59.5233V59.5149Z" fill="#ECB5BC"/>
<path d="M46.311 70.6712L56.933 80.7185L56.4792 69.2515L56.5044 60.6071L48.2102 59.2294L46.311 70.6712Z" fill="#ECB5BC"/>
<path d="M57.908 88.0356C57.908 88.0356 74.3452 135.634 73.3451 137.214C69.8577 142.708 32.1767 141.145 19.1178 131.803C18.269 131.199 40.1768 90.0013 42.1768 86.8258C42.9667 85.5741 57.908 88.0356 57.908 88.0356Z" fill="#145187"/>
<path d="M56.4795 69.2514L56.5972 75.6191L46.866 67.3108C46.866 67.3108 40.6727 67.8064 39.7567 69.5874C38.3617 72.3176 42.1769 86.8257 42.1769 86.8257C42.1769 86.8257 57.3199 89.9004 58.009 89.1191C60.9418 85.7924 62.5804 82.1885 62.5216 80.836C62.4124 78.4082 57.4207 72.6285 56.4795 69.2514Z" fill="#145187"/>
<path d="M57.7483 89.2116C54.7651 89.2788 51.7819 88.2455 48.8911 87.8506C46.6726 87.5482 44.3953 86.4561 42.202 86.4309C41.6221 86.4309 41.6221 87.3298 42.202 87.3382C43.37 87.355 44.8238 88.1699 46.0255 88.3883C47.5045 88.6655 49.0003 88.6655 50.4457 89.0351C52.8071 89.64 55.3533 90.0012 57.8155 89.6484C58.0592 89.6148 58.0004 89.22 57.7567 89.22L57.7483 89.2116Z" fill="#023D66"/>
<path d="M44.1596 87.8927C42.8907 90.8497 41.6554 93.8152 40.4285 96.7891C39.2016 99.7629 37.1596 103.073 37.0587 106.341C37.0503 106.626 37.4621 106.836 37.6638 106.593C39.5293 104.316 40.0587 101.191 40.9915 98.4272C42.1596 94.9661 43.3193 91.4966 44.4453 88.0103C44.4958 87.8423 44.2268 87.7247 44.1596 87.8927Z" fill="#023D66"/>
<path d="M47.5212 88.464C47.2439 94.5545 45.7565 100.998 46.1347 107.055C46.1515 107.391 46.6053 107.45 46.7145 107.13C48.6557 101.435 48.2019 94.3949 48.1515 88.464C48.1515 88.0608 47.538 88.0608 47.5212 88.464Z" fill="#023D66"/>
<path d="M51.0844 89.2032C51.3869 91.2614 51.2188 93.2776 51.3449 95.3357C51.3617 95.5458 51.6726 95.613 51.7315 95.3861C52.2609 93.3448 51.9415 91.1186 51.5382 89.0772C51.4793 88.7748 51.0424 88.9092 51.0844 89.2032Z" fill="#023D66"/>
<path d="M55.1937 89.6904C55.303 91.5554 55.1349 93.4792 55.3786 95.3273C55.4122 95.5793 55.8324 95.7138 55.8828 95.3945C56.1685 93.5128 55.824 91.505 55.5383 89.64C55.5047 89.4468 55.1769 89.4888 55.1937 89.6904Z" fill="#023D66"/>
<path d="M58.8992 84.9272C56.7479 84.3559 53.7815 83.7763 51.647 84.6248C51.3445 84.7424 51.3781 85.1876 51.7226 85.2044C52.8235 85.2548 53.9243 84.986 55.0336 84.9776C56.2941 84.9776 57.5378 85.1204 58.7731 85.3808C59.0672 85.4396 59.1933 85.0028 58.8992 84.9272Z" fill="#023D66"/>
<path d="M57.0926 86.6661C56.8069 87.0862 56.5296 87.5062 56.2438 87.9178C55.9917 88.2959 55.6472 88.6739 55.5211 89.1108C55.4455 89.3796 55.7816 89.5644 55.9833 89.3796C56.3195 89.0687 56.4959 88.5899 56.706 88.1867C56.9497 87.7414 57.185 87.2962 57.4287 86.8594C57.5548 86.6325 57.227 86.4477 57.0926 86.6577V86.6661Z" fill="#023D66"/>
<path d="M54.9079 86.6746C54.7567 87.0778 54.597 87.4727 54.4457 87.8759C54.3113 88.2203 54.0844 88.5732 54.1936 88.9512C54.2609 89.1612 54.4961 89.2032 54.6558 89.0688C54.9499 88.8252 54.9583 88.3884 55.0424 88.0355C55.1348 87.6239 55.2357 87.2039 55.3281 86.7922C55.3953 86.515 55.0088 86.4226 54.9079 86.6746Z" fill="#023D66"/>
<path d="M52.0173 86.7166C52.1014 87.3802 52.1266 88.0439 52.1014 88.7075C52.0762 89.2704 53.0173 89.2452 52.9585 88.7075C52.8745 88.0103 52.7316 87.3214 52.5299 86.6494C52.4459 86.3889 51.9921 86.4225 52.0257 86.7166H52.0173Z" fill="#023D66"/>
<path d="M47.0927 84.272C47.3112 85.0113 47.5129 85.7589 47.6978 86.5066C47.849 87.1198 47.8574 87.8171 48.3028 88.2959C48.4541 88.4556 48.7482 88.38 48.7986 88.1615C48.9415 87.5231 48.5969 86.9098 48.3784 86.3134C48.1095 85.5825 47.8238 84.86 47.5213 84.146C47.4204 83.894 47.0255 83.9864 47.1011 84.2636L47.0927 84.272Z" fill="#023D66"/>
<path d="M44.7734 83.2639C44.7818 84.0872 44.7902 84.9189 44.8071 85.7421C44.8071 86.3806 44.7146 87.0863 45.0592 87.6491C45.1264 87.7583 45.3029 87.7751 45.3617 87.6491C45.6474 87.0611 45.4961 86.389 45.4457 85.7421C45.3785 84.9189 45.3113 84.0872 45.2524 83.2639C45.2272 82.9615 44.7734 82.9531 44.7818 83.2639H44.7734Z" fill="#023D66"/>
<path d="M57.8154 114.985H60.0171V93.9076H57.8154V114.985Z" fill="#E6F0FC"/>
<path d="M41.958 114.985H44.1597V93.9076H41.958V114.985Z" fill="#E6F0FC"/>
<path d="M40.3954 95.2349H61.572V92.5803H40.3954V95.2349Z" fill="#010000"/>
<path d="M46.8827 87.6491C48.6979 88.086 52.2021 88.6236 53.3366 90.1442C54.6475 91.8999 55.5131 94.8066 55.2442 94.983C54.7652 95.1006 54.1601 93.5969 53.6139 92.7232C52.9668 91.7067 52.3954 91.001 52.0425 90.7154C53.5887 92.656 54.4542 95.109 54.261 95.2014C53.4206 95.6046 52.387 92.2443 51.0929 91.3539C52.034 92.8156 53.4794 95.1342 53.1937 95.571C52.4626 95.8987 50.6307 92.6728 50.1433 91.9755C50.6391 92.9836 52.4542 95.5122 51.8996 95.8987C51.4038 96.1759 50.1013 93.7985 49.2525 93.0592C48.908 92.7568 44.2861 91.7907 43.4541 90.203C42.6558 87.2291 42.5466 86.431 46.8743 87.6491H46.8827Z" fill="#ECB5BC"/>
<path d="M29.4117 83.4067C28.7899 87.1534 38.4286 89.6652 44.1598 90.4213C44.1598 90.4213 43.8908 88.6907 45.6808 87.355C38.6471 85.6917 35.6135 83.5243 35.6135 83.5243C35.7983 82.8522 45.311 76.7785 45.5463 75.3083C45.7984 73.7458 41.9412 68.7978 41.0337 69.2598C38.9664 70.3183 30.084 79.3575 29.4117 83.4067Z" fill="#ECB5BC"/>
<path d="M35.8153 83.3983C34.6304 82.3482 33.0421 82.3398 31.5379 82.407C31.2354 82.4238 31.2354 82.9027 31.5379 82.8775C32.9245 82.7683 34.4455 82.6758 35.5884 83.6167C35.7396 83.7427 35.9665 83.5327 35.8153 83.3899V83.3983Z" fill="#DC8D8F"/>
<path d="M55.8867 64.7656L47.5215 63.3811L50.1745 47.3606L64.2602 49.6917L62.5542 59.9936C62.0313 63.1513 59.0454 65.2883 55.8867 64.7656Z" fill="#ECB5BC"/>
<path d="M56.538 64.715C54.5632 64.1185 53.3195 62.64 51.9582 61.1867C51.6304 60.8338 51.0758 61.3883 51.4288 61.7159C52.9582 63.1188 54.3616 64.547 56.454 65.0174C56.6557 65.0594 56.7313 64.7738 56.538 64.715Z" fill="#DC8D8F"/>
<path d="M65.4625 47.653C67.3449 54.0628 59.4204 52.7607 55.6725 53.1471C50.1262 53.9116 49.185 57.1291 52.0086 61.321C52.6725 62.5139 53.0338 63.8077 53.1178 65.2022C49.5968 64.4545 45.4035 63.8581 42.4791 61.7075C37.4034 56.247 41.5883 47.8462 46.4791 43.8055C51.9161 39.3027 62.5885 41.5877 65.4625 47.653Z" fill="#010000"/>
<path d="M62.101 55.9278C62.0169 56.4486 62.0926 56.8939 62.2691 56.9275C62.4539 56.9611 62.664 56.5578 62.7565 56.037C62.8405 55.5161 62.7649 55.0709 62.5884 55.0373C62.4035 55.0037 62.1934 55.4069 62.101 55.9278Z" fill="#010000"/>
<path d="M62.5882 55.0373L63.042 55.1129L62.521 55.4489L62.5882 55.0373Z" fill="#010000"/>
<path d="M58.0595 55.2557C57.9754 55.7765 58.0511 56.2217 58.2275 56.2553C58.4124 56.2889 58.6225 55.8857 58.7149 55.3649C58.799 54.844 58.7233 54.3988 58.5469 54.3652C58.362 54.3316 58.1519 54.7348 58.0595 55.2557Z" fill="#010000"/>
<path d="M58.5467 54.3736L59.0005 54.4492L58.4795 54.7852L58.5467 54.3736Z" fill="#010000"/>
<path d="M60.891 55.6421C60.4708 57.0282 60.0843 59.0948 60.933 60.3969C61.1431 60.7245 61.7229 60.6153 61.7061 60.1869C61.6809 59.498 61.3784 58.8512 61.2523 58.1707C61.1011 57.339 61.0423 56.5158 61.0843 55.6757C61.0843 55.5581 60.9246 55.5497 60.891 55.6505V55.6421Z" fill="#DC8D8F"/>
<path d="M61.3364 61.3126C61.3364 61.3126 58.2775 60.8254 57.8826 60.7414C57.8826 61.2118 58.4876 62.2451 59.7565 62.4551C60.5717 62.5896 61.2187 62.1275 61.3364 61.3126Z" fill="white"/>
<path d="M49.866 55.5414C49.6559 56.8351 50.7315 58.0868 51.5887 58.2296C52.4458 58.3724 52.7568 57.3475 52.9669 56.0538C53.1769 54.7601 52.6559 53.6008 51.8072 53.458C50.95 53.3152 50.0845 54.2477 49.866 55.5414Z" fill="#ECB5BC"/>
<path d="M52.3195 55.2557C52.3699 54.7937 52.1767 54.3148 51.7565 54.088C51.3867 53.8948 50.7565 53.9368 50.5464 54.34C50.4371 54.55 50.6724 54.8525 50.8993 54.6928C51.1262 54.5332 51.3027 54.3652 51.6052 54.4912C51.9077 54.6172 52.0422 54.9533 52.0506 55.2641C52.0506 55.4489 52.3111 55.4405 52.3279 55.2641L52.3195 55.2557Z" fill="#DC8D8F"/>
<path d="M51.7648 54.5416C51.4287 54.8608 50.9245 55.5833 51.2018 56.0453C51.3278 56.2553 51.6388 56.2553 51.7648 56.0453C51.8909 55.8353 51.8236 55.6253 51.8489 55.3985C51.8741 55.1717 51.9581 54.97 52.0673 54.7768C52.1766 54.5836 51.9161 54.382 51.7564 54.5416H51.7648Z" fill="#DC8D8F"/>
</g>
</svg>
