<svg width="27" height="41" viewBox="0 0 27 41" fill="none" xmlns="http://www.w3.org/2000/svg">
<path fill-rule="evenodd" clip-rule="evenodd" d="M1.27164 19.6568C3.61544 25.23 9.08514 34.0563 11.8601 38.4044C12.6416 39.6288 14.4113 39.6086 15.1739 38.3723C18.2122 33.4469 24.567 22.9312 26.1857 18.5733H26.1713C26.7073 17.0862 27 15.4788 27 13.8014C27 6.17912 20.9558 0 13.5 0C6.04416 0 0 6.17912 0 13.8014C0 15.8948 0.455863 17.8793 1.27164 19.6568Z" fill="#3581FF"/>
<path fill-rule="evenodd" clip-rule="evenodd" d="M13.5 23.2333C18.7191 23.2333 22.95 19.1032 22.95 14.0083C22.95 8.9135 18.7191 4.78333 13.5 4.78333C8.28096 4.78333 4.05005 8.9135 4.05005 14.0083C4.05005 19.1032 8.28096 23.2333 13.5 23.2333Z" fill="white"/>
<path d="M13.3398 17.64C12.2838 17.64 11.2038 17.364 10.7118 17.064L11.0118 15.552C11.3718 15.768 12.2598 15.96 12.9078 15.96C13.6998 15.96 14.2878 15.66 14.2878 14.88C14.2878 14.196 13.7238 14.028 12.9198 13.992L12.0678 13.956V12.504L12.7998 12.48C13.5918 12.42 14.2158 12.132 14.2158 11.544C14.2158 10.944 13.6638 10.704 12.8838 10.704C12.3558 10.704 11.7558 10.8 11.2998 10.956L11.0838 9.396C11.6478 9.144 12.5958 9.036 13.5438 9.036C15.1758 9.036 16.3878 9.72 16.3878 11.124C16.3878 12.096 15.8718 12.78 14.9838 13.104C16.0038 13.284 16.6278 13.896 16.6278 15.096C16.6278 16.74 15.3318 17.64 13.3398 17.64Z" fill="#3581FF"/>
</svg>
