<svg width="27" height="41" viewBox="0 0 27 41" fill="none" xmlns="http://www.w3.org/2000/svg">
<path fill-rule="evenodd" clip-rule="evenodd" d="M1.27164 19.6568C3.61544 25.23 9.08514 34.0563 11.8601 38.4044C12.6416 39.6288 14.4113 39.6086 15.1739 38.3723C18.2122 33.4469 24.567 22.9312 26.1857 18.5733H26.1713C26.7073 17.0862 27 15.4788 27 13.8014C27 6.17912 20.9558 0 13.5 0C6.04416 0 0 6.17912 0 13.8014C0 15.8948 0.455863 17.8793 1.27164 19.6568Z" fill="#3581FF"/>
<path fill-rule="evenodd" clip-rule="evenodd" d="M13.5 23.2333C18.7191 23.2333 22.95 19.1032 22.95 14.0083C22.95 8.9135 18.7191 4.78333 13.5 4.78333C8.28096 4.78333 4.05005 8.9135 4.05005 14.0083C4.05005 19.1032 8.28096 23.2333 13.5 23.2333Z" fill="white"/>
<path d="M12.9224 17.568V11.328L11.6744 11.496V10.2L14.0504 9.192H15.1784V17.568H12.9224Z" fill="#3581FF"/>
</svg>
