<svg width="40" height="60" viewBox="0 0 40 60" fill="none" xmlns="http://www.w3.org/2000/svg">
<path fill-rule="evenodd" clip-rule="evenodd" d="M1.88391 28.766C6.63524 39.9263 20.0575 60 20.0575 60C20.0575 60 35.6097 35.6476 38.7936 27.1805H38.7723C39.5664 25.0042 40 22.6519 40 20.1972C40 9.04261 31.0457 0 20 0C8.9543 0 0 9.04261 0 20.1972C0 23.2606 0.675353 26.1648 1.88391 28.766Z" fill="#E90000"/>
<path fill-rule="evenodd" clip-rule="evenodd" d="M20 34C27.732 34 34 27.9558 34 20.5C34 13.0442 27.732 7 20 7C12.268 7 6 13.0442 6 20.5C6 27.9558 12.268 34 20 34Z" fill="white"/>
<path d="M18.703 20.697H15.479V23.375H19.977V24.571H9.51195V23.375H13.958V20.697H10.864V15.289H18.638V16.498H12.385V19.488H18.703V20.697ZM27.65 20.138C27.403 20.528 27.156 20.918 26.896 21.308C26.012 21.035 24.803 20.229 24.335 19.254C23.919 20.294 22.762 21.256 21.618 21.62C21.345 21.23 21.059 20.84 20.773 20.45C22.203 19.982 23.23 19.163 23.477 17.85H21.267V16.654H27.377V17.85H25.167C25.44 19.137 26.519 19.813 27.65 20.138ZM22.45 22.088H30.081V26.04H28.56V23.297H22.45V22.088ZM31.732 18.695H30.068V21.542H28.56V14.444H30.068V17.447H31.732V18.695ZM22.645 16.004V14.821H26.012V16.004H22.645Z" fill="#E90000"/>
</svg>
